<?xml version="1.0" encoding="utf-8"?>
<!-- Generator: Adobe Illustrator 21.1.0, SVG Export Plug-In . SVG Version: 6.00 Build 0)  -->
<svg version="1.1" id="Слой_1" xmlns="http://www.w3.org/2000/svg" xmlns:xlink="http://www.w3.org/1999/xlink" x="0px" y="0px"
	 viewBox="0 0 85 66" style="enable-background:new 0 0 85 66;" xml:space="preserve">
<style type="text/css">
	.st0{fill:none;}
	.st1{fill:#3EB8FF;}
	.st2{fill:#FFFFFF;}
	.st3{fill:#6EF3FF;}
	.st4{fill:none;stroke:#000000;stroke-width:4;stroke-miterlimit:10;}
</style>
<line class="st0" x1="19.2" y1="47.3" x2="22.9" y2="44.2"/>
<line class="st0" x1="22.7" y1="10" x2="19.2" y2="6.9"/>
<polygon class="st1" points="77.8,65.8 74.1,1.4 13.9,0.8 14.4,57 8.9,65.8 "/>
<polygon class="st2" points="26.9,47.3 67.1,47.3 66.5,44.5 23.4,44.5 22.7,43.4 22.1,10.1 67.1,9 66.1,6.7 20,6.7 19.2,45.7 
	20.3,47.3 "/>
<polygon points="72.5,0 12.9,0 12.9,57 14.4,57 14.4,1.6 72.5,1.6 "/>
<polygon points="81.5,66 81.5,6.9 79.9,6.9 79.9,65 34.9,65 34.9,66 "/>
<path d="M70.1,66l4.5-10H13.3L7.9,66H70.1z M14.3,57.6h58L68.8,65H10.2L14.3,57.6z"/>
<polygon points="81.5,65.8 72.5,65.8 72.5,0 81.5,5.2 "/>
<path d="M67.9,48H18.5V6h49.4V48z M20.1,46.5h46.3v-39H20.1V46.5z"/>
<polygon class="st2" points="67.1,9.7 22.1,9.7 22.1,44.8 22.9,44.2 22.7,44.8 67.1,44.5 66.3,10.3 "/>
<path d="M67.9,45.2H21.4V8.8h46.5V45.2z M22.9,43.6h43.4V10.4H22.9V43.6z"/>
<polygon points="73.5,56.4 68.8,65.2 68.6,65.8 75.7,65.8 "/>
<g>
	<circle class="st3" cx="21" cy="51.9" r="1.7"/>
	<path d="M21,54.4c-1.4,0-2.5-1.1-2.5-2.5c0-1.4,1.1-2.5,2.5-2.5s2.5,1.1,2.5,2.5C23.5,53.4,22.3,54.4,21,54.4z M21,51
		c-0.5,0-1,0.5-1,1c0,0.5,0.5,1,1,1s1-0.5,1-1C21.9,51.4,21.5,51,21,51z"/>
</g>
<g>
	<circle class="st3" cx="27.6" cy="51.9" r="1.7"/>
	<path d="M27.6,54.4c-1.4,0-2.5-1.1-2.5-2.5c0-1.4,1.1-2.5,2.5-2.5s2.5,1.1,2.5,2.5C30.2,53.4,29.1,54.4,27.6,54.4z M27.6,51
		c-0.5,0-1,0.5-1,1c0,0.5,0.5,1,1,1s1-0.5,1-1C28.6,51.4,28.2,51,27.6,51z"/>
</g>
<path d="M67,53.1H53.6c-0.7,0-1.2-0.5-1.2-1.2c0-0.7,0.5-1.2,1.2-1.2H67c0.7,0,1.2,0.5,1.2,1.2C68.2,52.5,67.7,53.1,67,53.1z"/>
<polygon points="28.5,66 33.2,57.1 31.9,56.4 27,65.4 28,66 "/>
<g>
	<polygon class="st2" points="47.1,6.7 50.1,1 54.4,1 52.3,6.7 	"/>
	<path d="M52.9,7.5h-7.1l3.8-7.4h5.8L52.9,7.5z M48.4,6h3.4l1.4-4.2h-2.6L48.4,6z"/>
</g>
<g>
	<polygon class="st2" points="51.9,6.7 54.1,1 59.2,1 57.2,6.7 	"/>
	<path d="M57.8,7.5h-6.9l2.8-7.4h6.7L57.8,7.5z M53.1,6h3.5l1.4-4.2h-3.4L53.1,6z"/>
</g>
<rect x="18.6" y="45.1" transform="matrix(0.7685 -0.6398 0.6398 0.7685 -24.5209 24.0459)" width="4.7" height="1.6"/>
<g>
	<path d="M45.6,28.3c0.4,0,0.8,0.3,0.6,0.7c-0.1,0.2-0.4,0.5-0.6,0.5c-0.3,0.1-0.7-0.4-0.7-0.7C45,28.5,45.3,28.3,45.6,28.3z"/>
	<path d="M48.8,36.4c-0.2-0.2-0.5-0.5-0.5-0.7c-0.1-0.4,0.2-0.7,0.5-0.6c0.2,0,0.7,0.4,0.6,0.5c-0.1,0.3-0.3,0.5-0.5,0.8
		C49,36.4,48.9,36.4,48.8,36.4z"/>
	<path d="M49.8,39.2c-0.4,0.2-0.6,0.4-0.8,0.4c-0.2,0.1-0.8-0.5-0.6-0.7c0.2-0.2,0.5-0.5,0.6-0.5C49.3,38.6,49.4,38.9,49.8,39.2z"/>
	<path d="M59,26.3c-0.2-0.4-0.5-0.5-0.5-0.8c0-0.3,0.2-0.5,0.5-0.5c0.4,0.1,0.8,0.2,0.7,0.6C59.6,25.7,59.3,26,59,26.3z"/>
	<path d="M56.4,29.1c-0.2,0.2-0.5,0.5-0.6,0.5c-0.2,0-0.5-0.3-0.6-0.5c0.2-0.2,0.4-0.5,0.6-0.7C56,28.2,56.3,28.6,56.4,29.1z"/>
	<path d="M55.7,25c0.2,0,0.5,0.1,0.5,0.5c0,0.4-0.2,0.7-0.5,0.7s-0.5-0.2-0.5-0.6C55.2,25.2,55.3,25,55.7,25z"/>
	<path d="M54.6,37.2C54.5,37.7,54.4,38,54,38c-0.2,0-0.5-0.3-0.5-0.5c0-0.3,0.2-0.7,0.6-0.7C54.3,36.8,54.5,37.1,54.6,37.2z"/>
	<path d="M49,32.8c-0.5,0.1-0.5-0.3-0.5-0.6c-0.1-0.4,0.2-0.5,0.5-0.5c0.4,0,0.7,0.1,0.7,0.5C49.6,32.6,49.4,32.8,49,32.8z"/>
	<path d="M53.4,30.6c0.3-0.3,0.5-0.6,0.7-0.6c0.2,0,0.5,0.3,0.6,0.5c0.1,0.3-0.2,0.6-0.6,0.6C53.8,31.1,53.7,30.9,53.4,30.6z"/>
	<path d="M67.4,30c-0.2,0.1-0.3,0.2-0.5,0.5c0.1,0.2,0.2,0.5,0.5,0.6V30z"/>
	<path d="M65.5,42.9c0.1-0.3-0.5-0.7,0.1-0.9c0.2-0.1,0.5,0.1,0.8,0.2c0.2,0.1,0.2,0.5,0.2,0.5C66.2,42.8,65.9,42.9,65.5,42.9
		C65.6,43,65.5,43,65.5,42.9z"/>
	<path d="M46.7,30.6c0-0.4,0.2-0.5,0.5-0.5c0.4,0,0.6,0.2,0.6,0.5c0,0.2-0.4,0.5-0.5,0.5C47,31.1,46.7,31,46.7,30.6z"/>
	<path d="M45.6,39.6c-0.4,0-0.5-0.2-0.5-0.5c0-0.4,0.2-0.7,0.5-0.6c0.2,0,0.5,0.3,0.5,0.5C46.1,39.3,45.9,39.6,45.6,39.6z"/>
	<path d="M57.4,16.5c-0.1,0-0.1,0-0.2,0c-0.2,0.2-0.3,0.3-0.5,0.5v0.1c0,0.4,0.2,0.5,0.6,0.6c0.2-0.2,0.5-0.5,0.5-0.6
		C58,16.9,57.7,16.6,57.4,16.5z"/>
	<path d="M67.4,9.8c-0.2,0.1-0.4,0.3-0.4,0.6c0,0.2,0.2,0.3,0.4,0.4V9.8z"/>
	<path d="M43.5,27.4c0.2,0.2,0.4,0.3,0.5,0.4c0.2-0.2,0.4-0.5,0.7-0.8c-0.1-0.1-0.2-0.2-0.2-0.2C44.1,27,43.8,27.3,43.5,27.4z"/>
	<path d="M46.2,32.3c-0.2,0.2-0.4,0.5-0.6,0.4c-0.2,0-0.5-0.2-0.7-0.4c-0.2-0.2,0.4-0.6,0.8-0.6C46,31.8,46.1,31.9,46.2,32.3z"/>
	<path d="M41.3,30.6c-0.3,0.2-0.5,0.5-0.7,0.5c-0.3,0-0.7-0.2-0.6-0.5c0-0.4,0.2-0.6,0.6-0.5C40.8,30,41,30.3,41.3,30.6z"/>
	<path d="M67.4,33.4c-0.2,0.1-0.3,0.2-0.6,0.4c0.2,0.2,0.5,0.5,0.6,0.6V33.4z"/>
	<path d="M58,33.7c-0.1,0.5-0.2,0.9-0.6,0.8c-0.2,0-0.5-0.3-0.5-0.5c-0.1-0.2,0.4-0.7,0.7-0.6C57.7,33.4,57.8,33.7,58,33.7z"/>
	<path d="M41,44.3c0-0.1,0.1-0.2,0.1-0.2c0-0.3-0.2-0.5-0.5-0.5c-0.4,0-0.6,0.2-0.6,0.5c0,0.1,0,0.2,0,0.2H41z"/>
	<path d="M37.6,44.3c0-0.1,0.1-0.2,0-0.5c-0.1-0.1-0.2-0.3-0.4-0.3c-0.4-0.1-0.6,0.2-0.7,0.7v0.1H37.6z"/>
	<path d="M52.3,43c-0.5,0.1-0.5-0.3-0.5-0.6c0-0.3,0.2-0.5,0.5-0.5c0.3,0,0.6,0.1,0.5,0.5C52.8,42.7,52.8,43,52.3,43z"/>
	<path d="M64.9,27.2c-0.2,0.2-0.5,0.5-0.5,0.5c-0.3-0.2-0.6-0.4-0.7-0.7c-0.1-0.4,0.4-0.5,0.6-0.5C64.5,26.6,64.6,26.9,64.9,27.2z"
		/>
	<path d="M37.2,33.3c0.2,0.3,0.5,0.5,0.5,0.7c0,0.2-0.3,0.5-0.5,0.5c-0.3-0.1-0.5-0.3-0.8-0.5C36.7,33.7,36.9,33.6,37.2,33.3z"/>
	<path d="M59.1,31.6c0.3,0.3,0.5,0.5,0.7,0.6c-0.2,0.2-0.5,0.5-0.7,0.6c-0.4,0.1-0.5-0.3-0.5-0.6C58.7,32,58.9,31.9,59.1,31.6z"/>
	<path d="M58.1,27.3c-0.2,0.2-0.5,0.4-0.7,0.4c-0.2,0-0.5-0.3-0.5-0.5c0-0.2,0.3-0.5,0.5-0.5c0.2,0,0.5,0.3,0.8,0.5
		C58.1,27.1,58.1,27.2,58.1,27.3z"/>
	<path d="M42.3,28.4c-0.1,0-0.2,0-0.3,0.1c-0.1,0.1-0.2,0.1-0.2,0.2c-0.1,0.1-0.2,0.2-0.1,0.4c0,0.2,0.3,0.4,0.5,0.5
		c0.4,0.1,0.5-0.2,0.5-0.5C42.7,28.6,42.7,28.3,42.3,28.4z"/>
	<path d="M67.4,36.7c-0.2,0.2-0.5,0.5-0.4,0.5c0.1,0.2,0.2,0.3,0.4,0.5V36.7z"/>
	<path d="M52.5,31.6c0.4,0.4,0.6,0.7,0.3,1.1c-0.2,0.3-0.7,0.2-1.1-0.3C52,32.1,52.2,31.9,52.5,31.6z"/>
	<path d="M66.5,15.6c-0.2,0.2-0.4,0.5-0.6,0.5c-0.2,0-0.5-0.4-0.5-0.6c0-0.1,0.3-0.5,0.5-0.5C66.1,14.9,66.4,14.9,66.5,15.6z"/>
	<path d="M47.4,33.4c0.2,0.2,0.5,0.5,0.4,0.6c-0.1,0.2-0.3,0.5-0.5,0.6c-0.3,0.1-0.5-0.3-0.5-0.6c0-0.2,0.2-0.4,0.4-0.6
		C47.3,33.4,47.3,33.4,47.4,33.4z"/>
	<path d="M54.7,34c-0.2,0.2-0.4,0.4-0.5,0.5c-0.3,0.1-0.6-0.2-0.6-0.5s0.3-0.5,0.6-0.5C54.4,33.4,54.6,33.6,54.7,34z"/>
	<path d="M43.9,29.8c0.3,0.3,0.5,0.5,0.5,0.6c0.1,0.4-0.2,0.8-0.5,0.7c-0.2-0.1-0.4-0.4-0.5-0.6C43.3,30.3,43.6,30.2,43.9,29.8z"/>
	<path d="M64.6,44.3c0.1-0.1,0.1-0.2,0.1-0.2c0.1-0.3-0.2-0.6-0.5-0.5c-0.2,0.1-0.5,0.4-0.6,0.6c0,0,0,0.1,0.1,0.2H64.6z"/>
	<path d="M49.1,41.9c0.1,0.1,0.3,0.3,0.4,0.5c0.1,0.4-0.3,0.6-0.6,0.5c-0.2,0-0.4-0.3-0.4-0.5S48.5,41.8,49.1,41.9z"/>
	<path d="M55.9,35c0.2,0.2,0.4,0.4,0.4,0.6c0.1,0.4-0.3,0.5-0.6,0.5c-0.3,0-0.5-0.2-0.5-0.5c0.1-0.2,0.3-0.5,0.5-0.7
		C55.7,35,55.8,35,55.9,35z"/>
	<path d="M66.4,29.1c-0.1,0.1-0.2,0.3-0.4,0.2c-0.3,0-0.8-0.1-0.7-0.5c0-0.2,0.3-0.5,0.5-0.5C66.2,28.4,66.4,28.7,66.4,29.1z"/>
	<path d="M55.9,43c-0.5-0.1-0.6-0.3-0.6-0.5c0-0.4,0.3-0.6,0.6-0.5c0.2,0,0.5,0.4,0.5,0.5C56.3,42.7,56,42.8,55.9,43z"/>
	<path d="M60.7,26.4c0.3,0.3,0.5,0.5,0.6,0.7c0.1,0.3-0.2,0.6-0.5,0.6s-0.5-0.3-0.5-0.6C60.3,26.9,60.5,26.7,60.7,26.4z"/>
	<path d="M56.9,23.9c0.1-0.5,0.3-0.6,0.7-0.7c0.4,0,0.4,0.3,0.4,0.5c0,0.4-0.2,0.6-0.5,0.6C57.2,24.5,57.1,24.2,56.9,23.9z"/>
	<path d="M59.6,39.3c-0.1,0.1-0.3,0.3-0.5,0.5c-0.2-0.2-0.5-0.5-0.5-0.7c0-0.1,0.3-0.5,0.5-0.5C59.3,38.5,59.6,38.7,59.6,39.3z"/>
	<path d="M64.2,21.1c-0.2-0.4-0.5-0.6-0.5-0.8c0-0.2,0.4-0.5,0.5-0.5c0.3-0.1,0.5,0.2,0.5,0.5C64.7,20.6,64.5,20.8,64.2,21.1z"/>
	<path d="M67.4,26.7c-0.2,0.1-0.5,0.5-0.4,0.7c0,0.2,0.2,0.2,0.4,0.5V26.7z"/>
	<path d="M50.7,34.7c-0.2-0.3-0.5-0.5-0.5-0.7c0-0.2,0.1-0.7,0.5-0.6c0.2,0.1,0.5,0.3,0.7,0.5C51.1,34.1,51,34.3,50.7,34.7z"/>
	<path d="M39.3,35.6c0,0.3-0.4,0.8-0.6,0.6c-0.2-0.1-0.4-0.4-0.4-0.6s0.2-0.5,0.5-0.5C39,35.1,39.4,35.3,39.3,35.6z"/>
	<path d="M62.7,35.1c0.1,0.1,0.3,0.2,0.3,0.4c0.1,0.4-0.3,0.8-0.7,0.7c-0.2,0-0.3-0.2-0.4-0.4C61.9,35.4,62.2,35.1,62.7,35.1z"/>
	<path d="M30.8,44.3c0-0.1,0-0.2,0-0.2c0-0.2-0.3-0.5-0.5-0.5c-0.4,0-0.5,0.4-0.5,0.7c0,0,0,0,0,0.1L30.8,44.3L30.8,44.3z"/>
	<path d="M33.9,38c-0.3-0.3-0.6-0.5-0.6-0.6c0-0.3,0.2-0.6,0.5-0.6c0.4,0,0.5,0.2,0.5,0.5C34.3,37.5,34,37.7,33.9,38z"/>
	<path d="M53,28.9c-0.2,0.2-0.5,0.4-0.7,0.5c-0.1,0-0.5-0.2-0.5-0.4c0-0.3,0.2-0.7,0.6-0.6c0.2,0,0.4,0.2,0.5,0.3
		C52.9,28.8,53,28.8,53,28.9z"/>
	<path d="M57.4,21.1c-0.2-0.3-0.5-0.5-0.5-0.7c0.1-0.2,0.4-0.4,0.5-0.5c0.2,0.2,0.5,0.5,0.5,0.7C58.1,20.7,57.7,20.9,57.4,21.1z"/>
	<path d="M48,27.2c-0.3,0.2-0.5,0.5-0.7,0.5c-0.2-0.1-0.5-0.3-0.7-0.5c0.2-0.2,0.3-0.5,0.5-0.5S47.6,26.9,48,27.2z"/>
	<path d="M46.2,35.6c-0.2,0.2-0.5,0.5-0.6,0.5c-0.2,0-0.4-0.4-0.5-0.6c0-0.1,0.2-0.4,0.4-0.4c0.2,0,0.5,0.2,0.8,0.3
		C46.2,35.5,46.2,35.6,46.2,35.6z"/>
	<path d="M44,40.1c0.2,0.2,0.4,0.4,0.4,0.5c0,0.2-0.1,0.6-0.5,0.5c-0.2-0.1-0.5-0.3-0.5-0.5c0-0.2,0.2-0.5,0.4-0.7
		C43.9,40.1,43.9,40.1,44,40.1z"/>
	<path d="M34.2,44.3c0-0.1,0-0.2,0-0.2c0-0.4-0.3-0.5-0.6-0.5c-0.2,0-0.3,0.2-0.6,0.5c0.1,0.1,0.2,0.2,0.3,0.2H34.2z"/>
	<path d="M43.6,44.3h0.8c0.1-0.1,0.1-0.2,0.1-0.2c-0.1-0.2-0.4-0.5-0.6-0.5c-0.2,0-0.5,0.4-0.5,0.5C43.5,44.2,43.6,44.2,43.6,44.3z"
		/>
	<path d="M59.2,21.4c0.2,0.3,0.5,0.5,0.5,0.7c0,0.4-0.3,0.6-0.6,0.5c-0.2-0.1-0.4-0.4-0.4-0.6C58.6,21.9,58.9,21.7,59.2,21.4z"/>
	<path d="M59.9,35.7c-0.3,0.2-0.5,0.5-0.6,0.5c-0.3,0-0.7-0.2-0.6-0.5c0-0.2,0.3-0.5,0.5-0.5C59.3,35.3,59.5,35.5,59.9,35.7z"/>
	<path d="M59.7,42.6c-0.2,0.2-0.3,0.4-0.5,0.4c-0.3,0-0.7-0.2-0.7-0.5c0-0.2,0.3-0.4,0.5-0.5C59.4,41.9,59.7,42,59.7,42.6z"/>
	<path d="M60.8,23.1c0.2,0.4,0.5,0.5,0.5,0.7c0,0.4-0.3,0.6-0.6,0.5c-0.2,0-0.4-0.4-0.4-0.5C60.3,23.6,60.5,23.4,60.8,23.1z"/>
	<path d="M54,19.9L54,19.9c-0.2,0.2-0.3,0.3-0.5,0.4c0,0,0,0,0,0.1c0,0.3,0.2,0.7,0.5,0.5c0.2-0.1,0.4-0.3,0.6-0.4
		c0-0.1,0-0.2,0-0.2C54.4,20.2,54.2,19.9,54,19.9z"/>
	<path d="M66.5,22c-0.1,0.5-0.3,0.7-0.6,0.6c-0.2,0-0.5-0.3-0.5-0.5c-0.1-0.4,0.2-0.6,0.6-0.6C66.2,21.7,66.4,21.9,66.5,22z"/>
	<path d="M62.5,21.5c0.2,0.2,0.5,0.4,0.5,0.6c0.1,0.4-0.2,0.5-0.6,0.5c-0.4,0-0.4-0.3-0.5-0.5C62,21.7,62.1,21.6,62.5,21.5z"/>
	<path d="M52.4,39.8c-0.2-0.3-0.5-0.5-0.5-0.8c0-0.3,0.2-0.5,0.5-0.4c0.2,0.1,0.4,0.3,0.6,0.5C52.8,39.3,52.7,39.5,52.4,39.8z"/>
	<path d="M67.3,44.3h0.2v-0.5c-0.2,0.1-0.3,0.2-0.5,0.3C67.1,44.2,67.2,44.2,67.3,44.3z"/>
	<path d="M67.4,13.1c-0.3,0.2-0.4,0.5-0.3,0.8c0,0.1,0.2,0.2,0.3,0.2V13.1z"/>
	<path d="M45.4,43c-0.1-0.2-0.3-0.4-0.3-0.5c0-0.4,0.3-0.6,0.6-0.5c0.2,0,0.5,0.4,0.5,0.5c0,0.2-0.3,0.4-0.5,0.6
		C45.5,43,45.4,43,45.4,43z"/>
	<path d="M33.5,41.3c-0.1-0.1-0.2-0.3-0.2-0.5c0-0.4,0.2-0.7,0.5-0.7c0.4,0,0.4,0.4,0.4,0.6C34.3,41.2,34,41.2,33.5,41.3z"/>
	<path d="M36.8,41.2c-0.1-0.1-0.2-0.2-0.2-0.4c0-0.3,0.5-0.7,0.7-0.6c0.2,0.1,0.3,0.3,0.3,0.5C37.7,41,37.4,41.3,36.8,41.2z"/>
	<path d="M65.8,19.5c-0.2-0.4-0.5-0.5-0.5-0.8s0.1-0.6,0.5-0.5c0.4,0.1,0.5,0.3,0.5,0.6C66.4,19,66.1,19.2,65.8,19.5z"/>
	<path d="M38.9,33c-0.2-0.3-0.5-0.5-0.5-0.7c0.1-0.2,0.3-0.5,0.5-0.5c0.2,0,0.5,0.3,0.5,0.5C39.4,32.5,39.1,32.7,38.9,33z"/>
	<path d="M64.2,31.3c-0.2-0.2-0.5-0.4-0.5-0.5c-0.1-0.4,0.3-0.8,0.6-0.7c0.2,0.1,0.4,0.3,0.4,0.5C64.6,30.7,64.4,31,64.2,31.3z"/>
	<path d="M52.3,21.4c-0.2,0.3-0.4,0.5-0.5,0.8c0,0.2,0.3,0.5,0.5,0.4c0.2,0,0.5-0.3,0.5-0.5C52.8,21.9,52.6,21.7,52.3,21.4
		L52.3,21.4z"/>
	<path d="M64.2,40.1c0.2,0.3,0.5,0.5,0.5,0.7c-0.1,0.2-0.4,0.5-0.5,0.5c-0.2,0-0.4-0.3-0.5-0.5C63.7,40.5,63.9,40.4,64.2,40.1z"/>
	<path d="M62.7,38.3c0.2,0.3,0.5,0.5,0.4,0.6c-0.1,0.2-0.2,0.5-0.5,0.6c-0.2,0.1-0.4-0.2-0.6-0.4C62.1,38.9,62.4,38.7,62.7,38.3z"/>
	<path d="M55.6,18.4c-0.1,0.1-0.2,0.2-0.2,0.2c0,0-0.1,0.1-0.1,0.2c-0.1,0.2,0.2,0.4,0.5,0.7c0.2-0.3,0.5-0.5,0.5-0.6
		c-0.1-0.2-0.3-0.5-0.5-0.6C55.7,18.3,55.6,18.3,55.6,18.4z"/>
	<path d="M34.7,42.5c0.3-0.3,0.5-0.5,0.7-0.5s0.4,0.2,0.5,0.4c-0.2,0.2-0.4,0.5-0.7,0.6C35.3,43,35,42.7,34.7,42.5z"/>
	<path d="M42.9,42.3c-0.3,0.3-0.5,0.6-0.7,0.6c-0.2,0-0.5-0.4-0.6-0.5c0.2-0.2,0.5-0.4,0.8-0.5C42.5,41.9,42.7,42.1,42.9,42.3z"/>
	<path d="M64.1,24.5c-0.2-0.2-0.4-0.5-0.4-0.7c0-0.2,0.3-0.4,0.5-0.5c0.2-0.1,0.5,0,0.5,0.4c-0.1,0.2-0.2,0.5-0.4,0.7
		C64.2,24.5,64.2,24.5,64.1,24.5z"/>
	<path d="M67.4,23.5c-0.2,0.1-0.2,0.2-0.4,0.3c0.2,0.2,0.2,0.4,0.4,0.5V23.5z"/>
	<path d="M58.1,37.4c-0.3,0.2-0.5,0.5-0.6,0.5c-0.2-0.1-0.4-0.4-0.6-0.5c0.2-0.2,0.4-0.4,0.6-0.5C57.7,36.8,57.8,37.1,58.1,37.4z"/>
	<path d="M50,37.3c0.4-0.2,0.6-0.5,0.8-0.4c0.2,0.1,0.3,0.3,0.5,0.5c-0.2,0.2-0.4,0.5-0.6,0.5C50.4,37.8,50.3,37.5,50,37.3z"/>
	<path d="M47.9,37.4c-0.2,0.2-0.4,0.4-0.5,0.5c-0.3,0.1-0.5-0.2-0.5-0.5c0-0.2,0-0.6,0.4-0.5c0.2,0.1,0.4,0.2,0.6,0.4
		C47.9,37.3,47.9,37.4,47.9,37.4z"/>
	<path d="M35.3,36.4c-0.2-0.3-0.4-0.5-0.4-0.6c0.1-0.2,0.4-0.5,0.5-0.5c0.2,0.1,0.4,0.3,0.6,0.5C35.9,35.9,35.7,36.1,35.3,36.4z"/>
	<path d="M62.6,41.7c0.2,0.4,0.5,0.5,0.5,0.8S62.7,43,62.5,43C62.2,43,62,42.7,62,42.4C62.1,42.2,62.3,42,62.6,41.7z"/>
	<path d="M53.8,41.3c-0.1-0.2-0.3-0.5-0.3-0.7c0-0.2,0.4-0.5,0.5-0.4s0.5,0.4,0.5,0.5s-0.3,0.4-0.5,0.5C54,41.4,53.9,41.3,53.8,41.3
		z"/>
	<path d="M59.1,18.1c0.2,0.3,0.5,0.5,0.5,0.7c0,0.2-0.3,0.3-0.5,0.5c-0.2-0.2-0.4-0.4-0.5-0.6C58.7,18.6,58.9,18.3,59.1,18.1z"/>
	<path d="M50.4,31.1c-0.1-0.1-0.2-0.3-0.2-0.5c0-0.3,0.1-0.6,0.5-0.5c0.2,0.1,0.5,0.3,0.5,0.5C51.2,31,50.9,31.1,50.4,31.1z"/>
	<path d="M61.4,40.7c-0.2,0.2-0.5,0.4-0.7,0.5c-0.1,0-0.3-0.2-0.5-0.3c0.2-0.2,0.4-0.5,0.6-0.7c0.1-0.1,0.4,0.2,0.5,0.2
		C61.4,40.5,61.4,40.6,61.4,40.7z"/>
	<path d="M40,37.4c0.1-0.5,0.2-0.7,0.6-0.6c0.2,0,0.4,0.2,0.4,0.4c0,0.3-0.1,0.7-0.5,0.7C40.3,37.9,40.2,37.6,40,37.4z"/>
	<path d="M65.8,35c0.2,0.3,0.5,0.5,0.5,0.6c-0.1,0.2-0.3,0.5-0.5,0.6c-0.3,0-0.5-0.3-0.5-0.6C65.4,35.3,65.6,35.2,65.8,35z"/>
	<path d="M57.8,44.3c0-0.1,0.1-0.1,0-0.2c-0.1-0.2-0.3-0.4-0.5-0.6c-0.2,0.2-0.4,0.4-0.5,0.6v0.1L57.8,44.3L57.8,44.3z"/>
	<path d="M27.4,44.3c0.1-0.1,0.2-0.2,0.1-0.2c-0.1-0.2-0.3-0.5-0.5-0.8c-0.2,0.3-0.5,0.5-0.5,0.6c0,0.2,0,0.2,0.1,0.4H27.4z"/>
	<path d="M41.1,34c-0.5,0.5-0.8,0.5-1.1,0.2c-0.2-0.2-0.2-0.5,0.1-0.7C40.5,33.3,40.8,33.4,41.1,34z"/>
	<path d="M32.8,42.3c-0.4,0.2-0.5,0.5-0.8,0.5c-0.2,0-0.4-0.3-0.5-0.4c0.2-0.2,0.4-0.5,0.6-0.5C32.2,42,32.5,42.2,32.8,42.3z"/>
	<path d="M64.8,13.7c-0.4,0.2-0.6,0.5-0.8,0.5c-0.1,0-0.4-0.4-0.4-0.4c0.2-0.2,0.4-0.5,0.7-0.6C64.4,13.1,64.6,13.4,64.8,13.7z"/>
	<path d="M65.8,11.5L65.8,11.5c-0.2,0.2-0.2,0.3-0.4,0.4c0.1,0.2,0.3,0.5,0.5,0.8c0.2-0.3,0.5-0.5,0.5-0.7
		C66.4,11.5,66.1,11.5,65.8,11.5z"/>
	<path d="M55.3,32.5c0-0.5,0.2-0.8,0.6-0.8c0.2,0,0.4,0.2,0.4,0.5c0.1,0.4-0.2,0.6-0.6,0.6C55.5,32.8,55.3,32.5,55.3,32.5z"/>
	<path d="M47,44.3h0.8c0.1-0.1,0.2-0.2,0.2-0.2c-0.3-0.2-0.5-0.5-0.7-0.5c-0.3-0.1-0.5,0.2-0.5,0.5C47,44.2,47,44.2,47,44.3z"/>
	<path d="M60.8,31.2c-0.2-0.2-0.4-0.4-0.5-0.6c-0.1-0.4,0.2-0.5,0.6-0.5c0.2,0,0.4,0.2,0.4,0.3c-0.1,0.2-0.2,0.5-0.3,0.8
		C60.9,31.2,60.8,31.2,60.8,31.2z"/>
	<path d="M67.4,16.5c-0.2,0.2-0.5,0.5-0.5,0.5c0.2,0.2,0.3,0.3,0.5,0.5V16.5z"/>
	<path d="M49,25c0.5,0,0.5,0.3,0.5,0.5c0,0.3-0.2,0.5-0.5,0.5c-0.2-0.1-0.5-0.3-0.5-0.5C48.5,25.3,48.6,25,49,25z"/>
	<path d="M60.2,17.1c0.3-0.2,0.5-0.5,0.6-0.5c0.2,0.1,0.5,0.3,0.5,0.5c0.1,0.3-0.2,0.6-0.5,0.5C60.6,17.6,60.5,17.4,60.2,17.1z"/>
	<path d="M54.2,23.3c0.2,0.2,0.3,0.5,0.3,0.6c0,0.2-0.4,0.5-0.5,0.5c-0.2-0.1-0.5-0.3-0.5-0.5c0-0.2,0.3-0.4,0.5-0.6
		C54,23.3,54.1,23.3,54.2,23.3z"/>
	<path d="M51,44.3c0.1-0.1,0.2-0.2,0.4-0.3c-0.3-0.2-0.6-0.5-0.7-0.5c-0.2,0.1-0.4,0.3-0.5,0.5c0,0,0,0.1,0.1,0.2L51,44.3L51,44.3z"
		/>
	<path d="M42.9,35.7c-0.3,0.2-0.5,0.5-0.7,0.5c-0.2-0.1-0.4-0.4-0.5-0.5c0.2-0.2,0.4-0.4,0.6-0.5C42.4,35.2,42.6,35.5,42.9,35.7z"/>
	<path d="M64.8,37.6c-0.3,0.1-0.5,0.2-0.8,0.2c-0.1,0-0.3-0.3-0.3-0.5c0-0.2,0.3-0.4,0.4-0.4c0.3,0.1,0.5,0.3,0.8,0.5
		C64.8,37.4,64.8,37.5,64.8,37.6z"/>
	<path d="M60.8,34.6c-0.2-0.3-0.5-0.5-0.5-0.7c0-0.2,0.3-0.3,0.5-0.5c0.2,0.2,0.4,0.5,0.6,0.7C61.1,34.3,61,34.4,60.8,34.6z"/>
	<path d="M51.3,27.3c-0.3,0.2-0.5,0.5-0.6,0.4c-0.2-0.1-0.4-0.4-0.5-0.5c0.2-0.2,0.4-0.5,0.5-0.5S51,27,51.3,27.3z"/>
	<path d="M59.2,29.6c-0.2-0.3-0.5-0.5-0.5-0.7c0-0.2,0.3-0.3,0.5-0.5c0.2,0.2,0.4,0.4,0.5,0.6C59.6,29.1,59.4,29.4,59.2,29.6z"/>
	<path d="M58,30.7c-0.2,0.2-0.5,0.4-0.5,0.4c-0.2-0.2-0.4-0.4-0.6-0.6c0.2-0.2,0.4-0.4,0.5-0.4c0.2,0,0.5,0.2,0.6,0.4
		C58.1,30.6,58,30.6,58,30.7z"/>
	<path d="M42.9,39c-0.3,0.2-0.5,0.5-0.7,0.5c-0.2,0-0.5-0.2-0.5-0.5c-0.1-0.4,0.2-0.5,0.5-0.5C42.4,38.6,42.6,38.7,42.9,39z"/>
	<path d="M48,40.8c-0.3,0.2-0.5,0.5-0.6,0.5c-0.2-0.1-0.4-0.4-0.6-0.5c0.2-0.2,0.4-0.4,0.5-0.4C47.5,40.3,47.7,40.5,48,40.8z"/>
	<path d="M67.4,40.3c-0.2,0.2-0.3,0.3-0.4,0.5c0.2,0.1,0.2,0.2,0.4,0.3V40.3z"/>
	<path d="M39.4,42.6C39.3,42.7,39,43,38.9,43c-0.2-0.1-0.4-0.4-0.5-0.6c0-0.1,0.3-0.4,0.4-0.4c0.2,0.1,0.5,0.2,0.6,0.4
		C39.4,42.4,39.4,42.5,39.4,42.6z"/>
	<path d="M60.9,21.1c-0.3-0.4-0.5-0.5-0.6-0.8c0-0.1,0.3-0.4,0.5-0.4c0.2,0,0.5,0.2,0.5,0.3C61.3,20.5,61.1,20.8,60.9,21.1z"/>
	<path d="M39,38.4c0.2,0.2,0.4,0.4,0.4,0.6c0,0.2-0.3,0.5-0.5,0.4c-0.2,0-0.5-0.3-0.5-0.5c0-0.2,0.2-0.4,0.4-0.6
		C38.8,38.4,38.9,38.4,39,38.4z"/>
	<path d="M61.8,18.8c0.3-0.2,0.5-0.5,0.7-0.5s0.4,0.2,0.5,0.4c-0.2,0.2-0.3,0.5-0.5,0.5C62.4,19.2,62.1,19,61.8,18.8z"/>
	<path d="M35.5,39.7c-0.2-0.3-0.5-0.5-0.5-0.6c0.1-0.2,0.3-0.4,0.5-0.6c0.2,0.2,0.5,0.3,0.5,0.5C36,39.2,35.7,39.4,35.5,39.7z"/>
	<path d="M31,40.8c-0.2,0.2-0.4,0.4-0.5,0.4s-0.4-0.3-0.5-0.5c0.2-0.2,0.3-0.5,0.5-0.5c0.2,0,0.4,0.2,0.6,0.4
		C31,40.7,31,40.8,31,40.8z"/>
	<path d="M50.4,23.3c0.2,0.1,0.5,0.2,0.8,0.3c0.1,0.1,0,0.5-0.2,0.6c-0.1,0.1-0.4,0.2-0.4,0.1c-0.2-0.2-0.3-0.5-0.4-0.8
		C50.2,23.4,50.3,23.3,50.4,23.3z"/>
	<path d="M37.1,38c-0.2-0.3-0.5-0.5-0.5-0.6c0-0.2,0.3-0.4,0.5-0.5c0.2,0.2,0.5,0.3,0.5,0.5C37.7,37.5,37.4,37.7,37.1,38z"/>
	<path d="M26.6,41.1C26.6,41.1,26.6,41.1,26.6,41.1c0.2,0.2,0.5,0.2,0.6,0.1c0.2-0.2,0.2-0.5,0.3-0.8C27.3,40.7,26.9,40.8,26.6,41.1
		z"/>
	<path d="M52.3,36.3c-0.2-0.3-0.3-0.5-0.5-0.8c0.2-0.1,0.3-0.2,0.5-0.2c0.2,0,0.5,0.2,0.5,0.2c-0.1,0.3-0.2,0.5-0.3,0.8
		C52.5,36.3,52.4,36.3,52.3,36.3z"/>
	<path d="M63.3,25.4c-0.3,0.2-0.5,0.5-0.8,0.6c-0.1,0-0.4-0.4-0.4-0.5c0.1-0.2,0.3-0.5,0.5-0.5C62.7,25,63,25.2,63.3,25.4z"/>
	<path d="M44.5,37.2c-0.1,0.5-0.2,0.7-0.5,0.6c-0.2,0-0.4-0.3-0.5-0.5c0.2-0.2,0.3-0.5,0.5-0.5C44.1,36.8,44.3,37.1,44.5,37.2z"/>
	<path d="M55.9,39.5c-0.6,0.1-0.5-0.2-0.5-0.5c0-0.4,0.2-0.5,0.5-0.5c0.2,0,0.4,0.4,0.4,0.5C56.2,39.3,55.9,39.4,55.9,39.5z"/>
	<path d="M63.2,28.9c-0.3,0.2-0.5,0.5-0.7,0.5c-0.2,0-0.5-0.3-0.5-0.5s0.2-0.5,0.5-0.5S62.9,28.7,63.2,28.9z"/>
	<path d="M23,43.9L23,43.9V44c0,0.1,0,0.2,0,0.2h0.8c0.1-0.1,0.1-0.2,0.1-0.2c0-0.1-0.1-0.2-0.2-0.3C23.6,44,23.3,44,23,43.9z"/>
	<path d="M32,38.3c0.2,0.3,0.6,0.5,0.5,0.7c-0.1,0.2-0.3,0.4-0.5,0.5c-0.1,0-0.4-0.2-0.4-0.4C31.6,38.9,31.9,38.7,32,38.3z"/>
	<path d="M60.2,37.3c0.3-0.2,0.6-0.5,0.7-0.5c0.2,0.2,0.4,0.4,0.5,0.6c0,0.1-0.3,0.4-0.5,0.4C60.7,37.7,60.5,37.5,60.2,37.3z"/>
	<path d="M52.3,26.1c-0.2-0.3-0.5-0.5-0.5-0.6c0-0.3,0.2-0.5,0.5-0.5c0.5,0,0.5,0.3,0.5,0.5C52.8,25.7,52.6,25.8,52.3,26.1z"/>
	<path d="M66.4,32.8c-0.5,0.1-0.8-0.1-0.8-0.5c0-0.3,0.1-0.5,0.4-0.5C66.3,31.8,66.4,32.1,66.4,32.8z"/>
	<path d="M62.4,12.4c0.2-0.2,0.4-0.3,0.5-0.4c-0.1-0.2-0.2-0.2-0.3-0.4c-0.2,0.2-0.3,0.4-0.5,0.6C62.3,12.2,62.4,12.3,62.4,12.4z"/>
	<path d="M55.7,22.8c-0.2-0.3-0.5-0.5-0.5-0.7c0.1-0.2,0.3-0.4,0.5-0.5c0.1,0,0.5,0.3,0.4,0.5C56.2,22.3,55.9,22.5,55.7,22.8z"/>
	<path d="M59,15.1L59,15.1c-0.2,0.1-0.3,0.3-0.4,0.6c0.2,0.1,0.4,0.2,0.5,0.2C59,15.6,58.9,15.4,59,15.1z"/>
	<path d="M57.6,40.2c0.1,0.2,0.3,0.4,0.3,0.5s-0.3,0.4-0.5,0.5c-0.2-0.2-0.5-0.3-0.5-0.5c0-0.2,0.3-0.4,0.5-0.5
		C57.4,40.2,57.5,40.2,57.6,40.2z"/>
	<path d="M42.9,32.2c-0.3,0.2-0.5,0.5-0.7,0.5c-0.2,0-0.4-0.3-0.5-0.5c0.2-0.2,0.4-0.4,0.6-0.5C42.4,31.8,42.6,32,42.9,32.2z"/>
	<path d="M64.2,33.2c0.2,0.3,0.5,0.5,0.5,0.5c-0.2,0.2-0.4,0.5-0.6,0.8c-0.1-0.2-0.4-0.3-0.3-0.4C63.9,33.9,64,33.6,64.2,33.2z"/>
	<path d="M51.4,40.8c-0.3,0.2-0.5,0.5-0.6,0.4c-0.2-0.1-0.4-0.3-0.5-0.5c0.2-0.2,0.3-0.5,0.5-0.5C50.9,40.2,51.1,40.5,51.4,40.8z"/>
	<path d="M60.6,44.3h0.5c0.1-0.1,0.2-0.2,0.3-0.3c-0.2-0.2-0.4-0.4-0.6-0.6c-0.2,0.2-0.5,0.5-0.5,0.5C60.4,44.1,60.5,44.2,60.6,44.3
		z"/>
	<path d="M67.4,20.1c-0.2,0.1-0.3,0.2-0.6,0.3c0.3,0.3,0.4,0.5,0.6,0.5V20.1z"/>
	<path d="M44.5,34c-0.2,0.2-0.4,0.4-0.6,0.4c-0.2,0-0.3-0.3-0.5-0.5c0.2-0.2,0.4-0.4,0.6-0.4c0.2,0,0.3,0.2,0.5,0.2
		C44.5,33.9,44.5,34,44.5,34z"/>
	<path d="M64.2,9.9c-0.2,0.2-0.3,0.4-0.5,0.5c0.2,0.2,0.4,0.3,0.6,0.3h0.1c0.1-0.1,0.2-0.2,0.2-0.2c0.1-0.1,0.2-0.2,0.2-0.3
		c0-0.1-0.2-0.4-0.2-0.4C64.3,9.8,64.2,9.9,64.2,9.9z"/>
	<path d="M48.4,28.8c0.3-0.2,0.5-0.3,0.8-0.3c0.2,0,0.2,0.4,0.3,0.5c0,0.1-0.2,0.2-0.3,0.3C48.8,29.4,48.6,29.1,48.4,28.8z"/>
	<path d="M63.2,15.4c-0.3,0.2-0.5,0.5-0.6,0.5c-0.2,0-0.5-0.3-0.5-0.5s0.3-0.5,0.5-0.5C62.7,14.9,62.9,15.2,63.2,15.4z"/>
	<path d="M41.1,40.8c-0.2,0.2-0.5,0.5-0.6,0.5s-0.3-0.3-0.5-0.5c0.2-0.2,0.3-0.4,0.5-0.4C40.7,40.3,40.9,40.5,41.1,40.8z"/>
	<path d="M28.7,43c-0.2-0.3-0.4-0.5-0.5-0.7c0-0.2,0.4-0.5,0.5-0.4c0.2,0.1,0.5,0.3,0.5,0.5C29.2,42.6,28.9,42.8,28.7,43z"/>
	<path d="M63.6,16.9c0.2-0.1,0.5-0.2,0.8-0.2c0.1,0,0.3,0.3,0.3,0.5s-0.2,0.4-0.4,0.4c-0.2-0.1-0.5-0.2-0.7-0.4
		C63.6,17.1,63.6,17,63.6,16.9z"/>
	<path d="M66,24.9c0.2,0.2,0.4,0.5,0.4,0.5c0,0.2-0.2,0.4-0.4,0.5c-0.3,0.1-0.5-0.2-0.5-0.5C65.5,25.3,65.8,25.1,66,24.9z"/>
	<path d="M63,32.4c-0.1,0.2-0.2,0.2-0.3,0.4c-0.2-0.2-0.4-0.4-0.5-0.6c0-0.1,0.2-0.4,0.4-0.4C62.8,31.8,62.9,32,63,32.4z"/>
	<path d="M66.6,39c-0.3,0.2-0.5,0.5-0.6,0.5s-0.3-0.2-0.5-0.4c0.2-0.2,0.3-0.4,0.5-0.5C66.1,38.7,66.3,38.9,66.6,39z"/>
	<path d="M54.7,27c-0.2,0.3-0.4,0.5-0.6,0.8c-0.2-0.2-0.3-0.5-0.4-0.6c0-0.2,0.2-0.4,0.3-0.4C54.1,26.8,54.4,26.9,54.7,27z"/>
	<path d="M53.7,44.3h0.8c0-0.2,0-0.3-0.1-0.5c-0.2-0.3-0.5-0.2-0.9,0.2C53.6,44.2,53.7,44.2,53.7,44.3z"/>
	<path d="M25.1,42v1c0.3-0.2,0.7-0.4,0.6-0.5c-0.1-0.2-0.2-0.5-0.4-0.7C25.3,42,25.2,42,25.1,42z"/>
</g>
<g>
	<path d="M45.7,26.1c-0.4,0-0.8-0.3-0.6-0.7c0.1-0.2,0.4-0.5,0.6-0.5c0.3-0.1,0.7,0.4,0.7,0.7C46.3,26,46,26.1,45.7,26.1z"/>
	<path d="M42.4,18c0.2,0.2,0.5,0.5,0.5,0.7c0.1,0.4-0.2,0.7-0.5,0.6c-0.2,0-0.7-0.4-0.6-0.5c0.1-0.3,0.3-0.5,0.5-0.8
		C42.3,18,42.3,18,42.4,18z"/>
	<path d="M41.4,15.2c0.4-0.2,0.6-0.4,0.8-0.4c0.2-0.1,0.8,0.5,0.6,0.7c-0.2,0.2-0.5,0.5-0.6,0.5C42,15.9,41.8,15.6,41.4,15.2z"/>
	<path d="M32.3,28.2c0.2,0.4,0.5,0.5,0.5,0.8c0,0.3-0.2,0.5-0.5,0.5c-0.4-0.1-0.8-0.2-0.7-0.6C31.6,28.7,32,28.5,32.3,28.2z"/>
	<path d="M34.9,25.4c0.2-0.2,0.5-0.5,0.6-0.5c0.2,0,0.5,0.3,0.6,0.5c-0.2,0.2-0.4,0.5-0.6,0.7C35.3,26.2,35,25.8,34.9,25.4z"/>
	<path d="M35.6,29.4c-0.2,0-0.5-0.1-0.5-0.5c0-0.4,0.2-0.7,0.5-0.7c0.4,0,0.5,0.2,0.5,0.6C36.1,29.2,36,29.4,35.6,29.4z"/>
	<path d="M36.7,17.2c0.1-0.5,0.2-0.8,0.6-0.8c0.2,0,0.5,0.3,0.5,0.5c0,0.3-0.2,0.7-0.6,0.7C37,17.6,36.8,17.3,36.7,17.2z"/>
	<path d="M42.3,21.6c0.5-0.1,0.5,0.3,0.5,0.6c0.1,0.4-0.2,0.5-0.5,0.5c-0.4,0-0.7-0.1-0.7-0.5C41.7,21.8,41.9,21.6,42.3,21.6z"/>
	<path d="M38,23.8c-0.3,0.3-0.5,0.6-0.7,0.6c-0.2,0-0.5-0.3-0.6-0.5c-0.1-0.3,0.2-0.6,0.6-0.6C37.4,23.3,37.7,23.6,38,23.8z"/>
	<path d="M23.9,24.4c0.2-0.1,0.3-0.2,0.5-0.5c-0.1-0.2-0.2-0.5-0.5-0.6V24.4z"/>
	<path d="M25.7,11.5c-0.1,0.3,0.5,0.7-0.1,0.9c-0.2,0.1-0.5-0.1-0.8-0.2c-0.2-0.1-0.2-0.5-0.2-0.5C25.1,11.6,25.4,11.5,25.7,11.5
		C25.7,11.4,25.7,11.5,25.7,11.5z"/>
	<path d="M44.5,23.9c0,0.4-0.2,0.5-0.5,0.5c-0.4,0-0.6-0.2-0.6-0.5c0-0.2,0.4-0.5,0.5-0.5C44.2,23.3,44.5,23.5,44.5,23.9z"/>
	<path d="M45.7,14.9c0.4,0,0.5,0.2,0.5,0.5c0,0.4-0.2,0.7-0.5,0.6c-0.2,0-0.5-0.3-0.5-0.5C45.1,15.1,45.4,14.9,45.7,14.9z"/>
	<path d="M33.8,37.9c0.1,0,0.1,0,0.2,0c0.2-0.2,0.3-0.3,0.5-0.5v-0.1c0-0.4-0.2-0.5-0.6-0.6c-0.2,0.2-0.5,0.5-0.5,0.6
		C33.3,37.5,33.6,37.8,33.8,37.9z"/>
	<path d="M23.9,44.6c0.2-0.1,0.4-0.3,0.4-0.6c0-0.2-0.2-0.3-0.4-0.4V44.6z"/>
	<path d="M47.9,27c-0.2-0.2-0.4-0.3-0.5-0.4c-0.2,0.2-0.4,0.5-0.7,0.8c0.1,0.1,0.2,0.2,0.2,0.2C47.2,27.3,47.5,27.2,47.9,27z"/>
	<path d="M45.1,22c0.2-0.2,0.4-0.5,0.6-0.4c0.2,0,0.5,0.2,0.7,0.4c0.2,0.2-0.4,0.6-0.8,0.6C45.3,22.6,45.1,22.5,45.1,22z"/>
	<path d="M50,23.9c0.3-0.2,0.5-0.5,0.7-0.5c0.3,0,0.7,0.2,0.6,0.5c0,0.4-0.2,0.6-0.6,0.5C50.5,24.4,50.4,24.1,50,23.9z"/>
	<path d="M23.9,21c0.2-0.1,0.3-0.2,0.6-0.4c-0.2-0.2-0.5-0.5-0.6-0.6V21z"/>
	<path d="M33.3,20.7c0.1-0.5,0.2-0.9,0.6-0.8c0.2,0,0.5,0.3,0.5,0.5c0.1,0.2-0.4,0.7-0.7,0.6C33.6,21,33.4,20.8,33.3,20.7z"/>
	<path d="M50.3,10.1c0,0.1-0.1,0.2-0.1,0.2c0,0.3,0.2,0.5,0.5,0.5s0.6-0.2,0.6-0.5c0-0.1,0-0.2,0-0.2H50.3z"/>
	<path d="M53.7,10.1c0,0.1-0.1,0.2,0,0.5c0.1,0.1,0.2,0.3,0.4,0.3c0.4,0.1,0.6-0.2,0.7-0.7v-0.1H53.7z"/>
	<path d="M39,11.5c0.5-0.1,0.5,0.3,0.5,0.6c0,0.3-0.2,0.5-0.5,0.5c-0.3,0-0.6-0.1-0.5-0.5C38.4,11.8,38.5,11.4,39,11.5z"/>
	<path d="M26.3,27.3c0.2-0.2,0.5-0.5,0.5-0.5c0.3,0.2,0.6,0.4,0.7,0.7c0.1,0.4-0.4,0.5-0.6,0.5C26.8,27.8,26.6,27.5,26.3,27.3z"/>
	<path d="M54,21.1c-0.2-0.3-0.5-0.5-0.5-0.7c0-0.2,0.3-0.5,0.5-0.5c0.3,0.1,0.5,0.3,0.8,0.5C54.6,20.6,54.4,20.8,54,21.1z"/>
	<path d="M32.2,22.9c-0.3-0.3-0.5-0.5-0.7-0.6c0.2-0.2,0.5-0.5,0.7-0.6c0.4-0.1,0.5,0.3,0.5,0.6C32.7,22.4,32.4,22.6,32.2,22.9z"/>
	<path d="M33.1,27.2c0.2-0.2,0.5-0.4,0.7-0.4c0.2,0,0.5,0.3,0.5,0.5c0,0.2-0.3,0.5-0.5,0.5c-0.2,0-0.5-0.3-0.8-0.5
		C33.1,27.3,33.1,27.3,33.1,27.2z"/>
	<path d="M49,26c0.1,0,0.2,0,0.3-0.1c0.1-0.1,0.2-0.1,0.2-0.2c0.1-0.2,0.1-0.2,0.1-0.4S49.2,25.1,49,25c-0.3-0.1-0.5,0.2-0.5,0.5
		C48.5,25.8,48.6,26,49,26z"/>
	<path d="M23.9,17.7c0.2-0.2,0.5-0.5,0.4-0.5c-0.1-0.2-0.2-0.3-0.4-0.5V17.7z"/>
	<path d="M38.7,22.8c-0.4-0.4-0.6-0.7-0.3-1.1c0.2-0.3,0.7-0.2,1.1,0.3C39.3,22.3,39,22.6,38.7,22.8z"/>
	<path d="M24.8,38.9c0.2-0.2,0.4-0.5,0.6-0.5c0.2,0,0.5,0.4,0.5,0.6c0,0.1-0.3,0.5-0.5,0.5C25.1,39.6,24.8,39.5,24.8,38.9z"/>
	<path d="M43.9,21.1c-0.2-0.2-0.5-0.5-0.4-0.6c0.1-0.2,0.3-0.5,0.5-0.6c0.3-0.1,0.5,0.3,0.5,0.6c0,0.2-0.2,0.4-0.4,0.6
		C44.1,21.1,44,21.1,43.9,21.1z"/>
	<path d="M36.6,20.4c0.2-0.2,0.4-0.4,0.5-0.5c0.3-0.1,0.6,0.2,0.6,0.5c0,0.4-0.3,0.5-0.6,0.5C36.8,21,36.7,20.8,36.6,20.4z"/>
	<path d="M47.5,24.6C47.2,24.3,47,24.2,47,24c-0.1-0.4,0.2-0.8,0.5-0.7c0.2,0.1,0.4,0.4,0.5,0.6C47.9,24.1,47.6,24.2,47.5,24.6z"/>
	<path d="M26.7,10.1c-0.1,0.1-0.1,0.2-0.1,0.2c-0.1,0.3,0.2,0.6,0.5,0.5c0.2-0.1,0.5-0.4,0.6-0.6c0,0,0-0.1-0.1-0.2H26.7z"/>
	<path d="M42.1,12.5c-0.1-0.1-0.3-0.3-0.4-0.5c-0.1-0.4,0.3-0.6,0.6-0.5c0.2,0,0.4,0.3,0.4,0.5C42.8,12.2,42.8,12.6,42.1,12.5z"/>
	<path d="M35.4,19.4C35.3,19.2,35,19,35,18.8c-0.1-0.4,0.3-0.5,0.6-0.5c0.3,0,0.5,0.2,0.5,0.5c-0.1,0.2-0.3,0.5-0.5,0.7
		C35.6,19.4,35.5,19.4,35.4,19.4z"/>
	<path d="M24.8,25.3c0.1-0.1,0.2-0.3,0.4-0.2c0.3,0,0.8,0.1,0.7,0.5c0,0.2-0.3,0.5-0.5,0.5C25.1,26,24.9,25.7,24.8,25.3z"/>
	<path d="M35.4,11.4c0.5,0.1,0.6,0.3,0.6,0.5c0,0.4-0.3,0.6-0.6,0.5c-0.2,0-0.5-0.4-0.5-0.5C35,11.8,35.3,11.6,35.4,11.4z"/>
	<path d="M30.6,28c-0.3-0.3-0.5-0.5-0.6-0.7c-0.1-0.3,0.2-0.6,0.5-0.6c0.4,0,0.5,0.3,0.5,0.6C31,27.5,30.8,27.7,30.6,28z"/>
	<path d="M34.3,30.5c-0.1,0.5-0.3,0.6-0.7,0.7c-0.4,0-0.4-0.3-0.4-0.5c0-0.4,0.2-0.6,0.5-0.6C34,30,34.2,30.3,34.3,30.5z"/>
	<path d="M31.6,15.2c0.1-0.1,0.3-0.3,0.5-0.5c0.2,0.2,0.5,0.5,0.5,0.7c0,0.1-0.3,0.5-0.5,0.5C31.9,15.9,31.6,15.7,31.6,15.2z"/>
	<path d="M27.1,33.3c0.2,0.4,0.5,0.6,0.5,0.8c0,0.2-0.4,0.5-0.5,0.5c-0.3,0.1-0.5-0.2-0.5-0.5C26.6,33.8,26.9,33.6,27.1,33.3z"/>
	<path d="M23.9,27.7c0.2-0.1,0.5-0.5,0.4-0.7c0-0.2-0.2-0.2-0.4-0.5V27.7z"/>
	<path d="M40.6,19.7c0.2,0.3,0.5,0.5,0.5,0.7c0,0.2-0.1,0.7-0.5,0.6c-0.2-0.1-0.5-0.3-0.7-0.5C40.2,20.2,40.4,20.1,40.6,19.7z"/>
	<path d="M51.9,18.8c0-0.3,0.4-0.8,0.6-0.6c0.2,0.1,0.4,0.4,0.4,0.6s-0.2,0.5-0.5,0.5S51.9,19.2,51.9,18.8z"/>
	<path d="M28.5,19.3c-0.1-0.1-0.3-0.2-0.3-0.4c-0.1-0.4,0.3-0.8,0.7-0.7c0.2,0,0.3,0.2,0.4,0.4C29.4,19,29.1,19.3,28.5,19.3z"/>
	<path d="M60.5,10.1c0,0.1,0,0.2,0,0.2c0,0.2,0.3,0.5,0.5,0.5c0.4,0,0.5-0.4,0.5-0.7c0,0,0,0,0-0.1L60.5,10.1L60.5,10.1z"/>
	<path d="M57.4,16.4c0.3,0.3,0.6,0.5,0.6,0.6c0,0.3-0.2,0.6-0.5,0.6s-0.5-0.2-0.5-0.5C57.1,16.9,57.2,16.7,57.4,16.4z"/>
	<path d="M38.3,25.5c0.2-0.2,0.5-0.4,0.7-0.5c0.1,0,0.5,0.2,0.5,0.4c0,0.3-0.2,0.7-0.6,0.6c-0.2,0-0.4-0.2-0.5-0.3
		C38.3,25.7,38.3,25.6,38.3,25.5z"/>
	<path d="M33.8,33.3c0.2,0.3,0.5,0.5,0.5,0.7c-0.1,0.2-0.4,0.4-0.5,0.5c-0.2-0.2-0.5-0.5-0.5-0.7C33.2,33.7,33.5,33.5,33.8,33.3z"/>
	<path d="M43.3,27.3c0.3-0.2,0.5-0.5,0.7-0.5c0.2,0.1,0.5,0.3,0.7,0.5c-0.2,0.2-0.3,0.5-0.5,0.5C43.9,27.7,43.6,27.5,43.3,27.3z"/>
	<path d="M45.1,18.8c0.2-0.2,0.5-0.5,0.6-0.5c0.2,0,0.4,0.4,0.5,0.6c0,0.1-0.2,0.4-0.4,0.4c-0.2,0-0.5-0.2-0.8-0.3
		C45.1,18.9,45.1,18.9,45.1,18.8z"/>
	<path d="M47.3,14.3c-0.2-0.2-0.4-0.4-0.4-0.5c0-0.2,0.1-0.6,0.5-0.5c0.2,0.1,0.5,0.3,0.5,0.5c0,0.2-0.2,0.5-0.4,0.7
		C47.4,14.3,47.3,14.3,47.3,14.3z"/>
	<path d="M57.1,10.1c0,0.1,0,0.2,0,0.2c0,0.4,0.3,0.5,0.6,0.5c0.2,0,0.3-0.2,0.6-0.5c-0.1-0.1-0.2-0.2-0.3-0.2H57.1z"/>
	<path d="M47.7,10.1h-0.8c-0.1,0.1-0.1,0.2-0.1,0.2c0.1,0.2,0.4,0.5,0.6,0.5c0.2,0,0.5-0.4,0.5-0.5C47.8,10.3,47.7,10.2,47.7,10.1z"
		/>
	<path d="M32.2,33.1c-0.2-0.3-0.5-0.5-0.5-0.7c0-0.4,0.3-0.6,0.6-0.5c0.2,0.1,0.4,0.4,0.4,0.6C32.7,32.5,32.4,32.8,32.2,33.1z"/>
	<path d="M31.4,18.7c0.3-0.2,0.5-0.5,0.6-0.5c0.3,0,0.7,0.2,0.6,0.5c0,0.2-0.3,0.5-0.5,0.5C32,19.2,31.8,18.9,31.4,18.7z"/>
	<path d="M31.6,11.9c0.2-0.2,0.3-0.4,0.5-0.4c0.3,0,0.7,0.2,0.7,0.5c0,0.2-0.3,0.4-0.5,0.5C31.9,12.5,31.6,12.4,31.6,11.9z"/>
	<path d="M30.4,31.3C30.2,31,30,30.8,30,30.6c0-0.4,0.3-0.6,0.6-0.5c0.2,0,0.4,0.4,0.4,0.5C31,30.8,30.7,31,30.4,31.3z"/>
	<path d="M37.3,34.5L37.3,34.5c0.2-0.2,0.3-0.3,0.5-0.4c0,0,0,0,0-0.1c0-0.3-0.2-0.7-0.5-0.5c-0.2,0.1-0.4,0.3-0.6,0.4
		c0,0.1,0,0.2,0,0.2C36.8,34.3,37.1,34.5,37.3,34.5z"/>
	<path d="M24.8,32.4c0.1-0.5,0.3-0.7,0.6-0.6c0.2,0,0.5,0.3,0.5,0.5c0.1,0.4-0.2,0.6-0.6,0.6C25.1,32.8,24.9,32.5,24.8,32.4z"/>
	<path d="M28.8,32.9c-0.2-0.2-0.5-0.4-0.5-0.6c-0.1-0.4,0.2-0.5,0.6-0.5s0.4,0.3,0.5,0.5C29.4,32.7,29.2,32.8,28.8,32.9z"/>
	<path d="M38.9,14.6c0.2,0.3,0.5,0.5,0.5,0.8c0,0.3-0.2,0.5-0.5,0.4c-0.2-0.1-0.4-0.3-0.6-0.5C38.5,15.2,38.7,14.9,38.9,14.6z"/>
	<path d="M24,10.1h-0.2v0.5c0.2-0.1,0.3-0.2,0.5-0.3C24.2,10.3,24.1,10.2,24,10.1z"/>
	<path d="M23.9,41.3c0.3-0.2,0.4-0.5,0.3-0.8c0-0.1-0.2-0.2-0.3-0.2V41.3z"/>
	<path d="M45.9,11.4c0.1,0.2,0.3,0.4,0.3,0.5c0,0.4-0.3,0.6-0.6,0.5c-0.2,0-0.5-0.4-0.5-0.5c0-0.2,0.3-0.4,0.5-0.6
		C45.7,11.4,45.8,11.4,45.9,11.4z"/>
	<path d="M57.7,13.1c0.1,0.1,0.2,0.3,0.2,0.5c0,0.4-0.2,0.7-0.5,0.7s-0.4-0.4-0.4-0.6C57,13.2,57.3,13.1,57.7,13.1z"/>
	<path d="M54.4,13.1c0.1,0.1,0.2,0.2,0.2,0.4c0,0.3-0.5,0.7-0.7,0.6c-0.2-0.1-0.3-0.3-0.3-0.5C53.6,13.4,53.9,13.1,54.4,13.1z"/>
	<path d="M25.4,35c0.2,0.4,0.5,0.5,0.5,0.8s-0.1,0.6-0.5,0.5c-0.4-0.1-0.5-0.3-0.5-0.6C24.9,35.4,25.2,35.3,25.4,35z"/>
	<path d="M52.4,21.4c0.2,0.3,0.5,0.5,0.5,0.7c-0.1,0.2-0.3,0.5-0.5,0.5c-0.2,0-0.5-0.3-0.5-0.5C51.9,22,52.2,21.7,52.4,21.4z"/>
	<path d="M27.1,23.2c0.2,0.2,0.5,0.4,0.5,0.5c0.1,0.4-0.3,0.8-0.6,0.7c-0.2-0.1-0.4-0.3-0.4-0.5C26.6,23.7,26.9,23.5,27.1,23.2z"/>
	<path d="M39,33.1c0.2-0.3,0.4-0.5,0.5-0.8c0-0.2-0.3-0.5-0.5-0.4c-0.2,0-0.5,0.3-0.5,0.5C38.4,32.5,38.7,32.8,39,33.1L39,33.1z"/>
	<path d="M27,14.3c-0.2-0.3-0.5-0.5-0.5-0.7c0.1-0.2,0.4-0.5,0.5-0.5c0.2,0,0.4,0.3,0.5,0.5C27.6,13.9,27.3,14,27,14.3z"/>
	<path d="M28.7,16.2c-0.2-0.3-0.5-0.5-0.4-0.6c0.1-0.2,0.2-0.5,0.5-0.6c0.2-0.1,0.4,0.2,0.6,0.4C29.1,15.6,28.9,15.8,28.7,16.2z"/>
	<path d="M35.8,36c0.1-0.1,0.2-0.2,0.2-0.2c0,0,0.1-0.1,0.1-0.2c0.1-0.2-0.2-0.4-0.5-0.7c-0.2,0.3-0.5,0.5-0.5,0.6
		c0.1,0.2,0.3,0.5,0.5,0.6C35.6,36.1,35.6,36,35.8,36z"/>
	<path d="M56.6,11.9c-0.3,0.3-0.5,0.5-0.7,0.5s-0.4-0.2-0.5-0.4c0.2-0.2,0.4-0.5,0.7-0.6C56.1,11.5,56.3,11.7,56.6,11.9z"/>
	<path d="M48.4,12.2c0.3-0.3,0.5-0.6,0.7-0.6c0.2,0,0.5,0.4,0.6,0.5c-0.2,0.2-0.5,0.4-0.8,0.5C48.8,12.5,48.6,12.3,48.4,12.2z"/>
	<path d="M27.2,30c0.2,0.2,0.4,0.5,0.4,0.7c0,0.2-0.3,0.4-0.5,0.5c-0.2,0.1-0.5,0-0.5-0.4c0.1-0.2,0.2-0.5,0.4-0.7
		C27,30,27.1,30,27.2,30z"/>
	<path d="M23.9,31c0.2-0.1,0.2-0.2,0.4-0.3c-0.2-0.2-0.2-0.4-0.4-0.5V31z"/>
	<path d="M33.1,17.1c0.3-0.2,0.5-0.5,0.6-0.5c0.2,0.1,0.4,0.4,0.6,0.5c-0.2,0.2-0.4,0.4-0.6,0.5C33.6,17.6,33.4,17.3,33.1,17.1z"/>
	<path d="M41.4,17.1c-0.4,0.2-0.6,0.5-0.8,0.4c-0.2-0.1-0.3-0.3-0.5-0.5c0.2-0.2,0.4-0.5,0.6-0.5C40.8,16.5,41.1,16.9,41.4,17.1z"/>
	<path d="M43.4,17c0.2-0.2,0.4-0.4,0.5-0.5c0.3-0.1,0.5,0.2,0.5,0.5c0,0.2,0,0.6-0.4,0.5c-0.2-0.1-0.4-0.2-0.6-0.4
		C43.4,17.1,43.4,17.1,43.4,17z"/>
	<path d="M55.9,18c0.2,0.3,0.4,0.5,0.4,0.6c-0.1,0.2-0.4,0.5-0.5,0.5c-0.2-0.1-0.4-0.3-0.6-0.5C55.4,18.5,55.6,18.3,55.9,18z"/>
	<path d="M28.8,12.7c-0.2-0.4-0.5-0.5-0.5-0.8s0.3-0.5,0.5-0.5c0.3-0.1,0.5,0.2,0.5,0.5C29.3,12.2,29,12.4,28.8,12.7z"/>
	<path d="M37.4,13.1c0.1,0.2,0.3,0.5,0.3,0.7c0,0.2-0.4,0.5-0.5,0.4s-0.5-0.4-0.5-0.5c0-0.2,0.3-0.4,0.5-0.5
		C37.3,13.1,37.4,13.1,37.4,13.1z"/>
	<path d="M32.2,36.3c-0.2-0.3-0.5-0.5-0.5-0.7c0-0.2,0.3-0.3,0.5-0.5c0.2,0.2,0.4,0.4,0.5,0.6C32.6,35.9,32.4,36.1,32.2,36.3z"/>
	<path d="M40.9,23.3c0.1,0.1,0.2,0.3,0.2,0.5c0,0.3-0.1,0.6-0.5,0.5c-0.2-0.1-0.5-0.3-0.5-0.5C40.1,23.5,40.4,23.3,40.9,23.3z"/>
	<path d="M29.9,13.7c0.2-0.2,0.5-0.4,0.7-0.5c0.1,0,0.3,0.2,0.5,0.3c-0.2,0.2-0.4,0.5-0.6,0.7C30.3,14.3,30,14,29.9,14
		C29.9,13.9,29.9,13.8,29.9,13.7z"/>
	<path d="M51.3,17c-0.1,0.5-0.2,0.7-0.6,0.6c-0.2,0-0.4-0.2-0.4-0.4c0-0.3,0.1-0.7,0.5-0.7C51,16.5,51.1,16.8,51.3,17z"/>
	<path d="M25.4,19.5c-0.2-0.3-0.5-0.5-0.5-0.6c0.1-0.2,0.3-0.5,0.5-0.6c0.3,0,0.5,0.3,0.5,0.6C25.9,19.1,25.7,19.2,25.4,19.5z"/>
	<path d="M33.4,10.1c0,0.1-0.1,0.1,0,0.2c0.1,0.2,0.3,0.4,0.5,0.6c0.2-0.2,0.4-0.4,0.5-0.6v-0.1L33.4,10.1L33.4,10.1z"/>
	<path d="M63.9,10.1c-0.1,0.1-0.2,0.2-0.1,0.2c0.1,0.2,0.3,0.5,0.5,0.8c0.2-0.3,0.5-0.5,0.5-0.6c0-0.2,0-0.2-0.1-0.4H63.9z"/>
	<path d="M50.1,20.4c0.5-0.5,0.8-0.5,1.1-0.2c0.2,0.2,0.2,0.5-0.1,0.7C50.8,21.1,50.6,21,50.1,20.4z"/>
	<path d="M58.4,12.1c0.4-0.2,0.5-0.5,0.8-0.5c0.2,0,0.4,0.3,0.5,0.4c-0.2,0.2-0.4,0.5-0.6,0.5C59,12.5,58.8,12.2,58.4,12.1z"/>
	<path d="M26.4,40.8c0.4-0.2,0.6-0.5,0.8-0.5c0.1,0,0.4,0.4,0.4,0.4c-0.2,0.2-0.4,0.5-0.7,0.6C26.9,41.3,26.6,41,26.4,40.8z"/>
	<path d="M25.5,43L25.5,43c0.2-0.2,0.2-0.3,0.4-0.4c-0.1-0.2-0.3-0.5-0.5-0.8c-0.2,0.3-0.5,0.5-0.5,0.7C24.8,42.9,25.2,43,25.5,43z"
		/>
	<path d="M36,21.9c0,0.5-0.2,0.8-0.6,0.8c-0.2,0-0.4-0.2-0.4-0.5c-0.1-0.4,0.2-0.6,0.6-0.6C35.8,21.7,35.9,21.8,36,21.9z"/>
	<path d="M44.2,10.1h-0.8c-0.1,0.1-0.2,0.2-0.2,0.2c0.3,0.2,0.5,0.5,0.7,0.5c0.3,0.1,0.5-0.2,0.5-0.5C44.4,10.2,44.3,10.2,44.2,10.1
		z"/>
	<path d="M30.5,23.3c0.2,0.2,0.4,0.4,0.5,0.6c0.1,0.4-0.2,0.5-0.6,0.5c-0.2,0-0.4-0.2-0.4-0.3c0.1-0.2,0.2-0.5,0.3-0.8
		C30.3,23.3,30.4,23.3,30.5,23.3z"/>
	<path d="M23.9,38c0.2-0.2,0.5-0.5,0.5-0.5c-0.2-0.2-0.3-0.3-0.5-0.5V38z"/>
	<path d="M42.3,29.4c-0.5,0-0.5-0.3-0.5-0.5c0-0.3,0.2-0.5,0.5-0.5s0.5,0.3,0.5,0.5C42.8,29.1,42.7,29.4,42.3,29.4z"/>
	<path d="M31.1,37.4c-0.3,0.2-0.5,0.5-0.6,0.5c-0.2-0.1-0.5-0.3-0.5-0.5c-0.1-0.3,0.2-0.6,0.5-0.5C30.6,36.8,30.8,37.1,31.1,37.4z"
		/>
	<path d="M37.1,31.2c-0.2-0.2-0.3-0.5-0.3-0.6c0-0.2,0.4-0.5,0.5-0.5c0.2,0.1,0.5,0.3,0.5,0.5c0,0.2-0.3,0.4-0.5,0.6
		C37.2,31.2,37.1,31.2,37.1,31.2z"/>
	<path d="M40.2,10.1c-0.1,0.1-0.2,0.2-0.4,0.3c0.3,0.2,0.6,0.5,0.7,0.5c0.2-0.1,0.4-0.3,0.5-0.5c0,0,0-0.1-0.1-0.2L40.2,10.1
		C40.2,10.2,40.2,10.1,40.2,10.1z"/>
	<path d="M48.4,18.7c0.3-0.2,0.5-0.5,0.7-0.5c0.2,0.1,0.4,0.4,0.5,0.5c-0.2,0.2-0.4,0.4-0.6,0.5C48.8,19.2,48.7,18.9,48.4,18.7z"/>
	<path d="M26.4,16.8c0.3-0.1,0.5-0.2,0.8-0.2c0.1,0,0.3,0.3,0.3,0.5c0,0.2-0.3,0.4-0.4,0.4c-0.3-0.1-0.5-0.3-0.8-0.5
		C26.4,17,26.4,16.9,26.4,16.8z"/>
	<path d="M30.6,19.8c0.2,0.3,0.5,0.5,0.5,0.7c0,0.2-0.3,0.3-0.5,0.5c-0.2-0.2-0.4-0.5-0.6-0.7C30.1,20.2,30.3,20,30.6,19.8z"/>
	<path d="M39.9,27.1c0.3-0.2,0.5-0.5,0.6-0.4c0.2,0.1,0.4,0.4,0.5,0.5c-0.2,0.2-0.4,0.5-0.5,0.5S40.2,27.4,39.9,27.1z"/>
	<path d="M32.1,24.8c0.2,0.3,0.5,0.5,0.5,0.7c0,0.2-0.3,0.3-0.5,0.5c-0.2-0.2-0.4-0.4-0.5-0.6C31.6,25.3,31.9,25.1,32.1,24.8z"/>
	<path d="M33.3,23.7c0.2-0.2,0.5-0.4,0.5-0.4c0.2,0.2,0.4,0.4,0.6,0.6c-0.2,0.2-0.4,0.4-0.5,0.4c-0.2,0-0.5-0.2-0.6-0.4
		C33.3,23.9,33.3,23.8,33.3,23.7z"/>
	<path d="M48.4,15.5c0.3-0.2,0.5-0.5,0.7-0.5c0.2,0,0.5,0.2,0.5,0.5c0.1,0.4-0.2,0.5-0.5,0.5C48.8,15.9,48.7,15.6,48.4,15.5z"/>
	<path d="M43.3,13.6c0.3-0.2,0.5-0.5,0.6-0.5c0.2,0.1,0.4,0.4,0.6,0.5C44.4,13.8,44.2,14,44,14C43.8,14.1,43.6,13.9,43.3,13.6z"/>
	<path d="M23.9,14c0.2-0.2,0.3-0.3,0.4-0.5c-0.2-0.1-0.2-0.2-0.4-0.3V14z"/>
	<path d="M51.9,11.9c0.2-0.2,0.5-0.4,0.5-0.4c0.2,0.1,0.4,0.4,0.5,0.6c0,0.1-0.3,0.4-0.4,0.4c-0.2-0.1-0.5-0.2-0.6-0.4
		C51.9,12,51.9,11.9,51.9,11.9z"/>
	<path d="M30.3,33.3c0.3,0.4,0.5,0.5,0.6,0.8c0,0.1-0.3,0.4-0.5,0.4c-0.2,0-0.5-0.2-0.5-0.3C30,33.9,30.2,33.7,30.3,33.3z"/>
	<path d="M52.3,15.9c-0.2-0.2-0.4-0.4-0.4-0.6c0-0.2,0.3-0.5,0.5-0.4c0.2,0,0.5,0.3,0.5,0.5c0,0.2-0.2,0.4-0.4,0.6
		C52.5,16,52.4,16,52.3,15.9z"/>
	<path d="M29.4,35.6c-0.3,0.2-0.5,0.5-0.7,0.5s-0.4-0.2-0.5-0.4c0.2-0.2,0.3-0.5,0.5-0.5C28.9,35.2,29.1,35.4,29.4,35.6z"/>
	<path d="M55.8,14.7c0.2,0.3,0.5,0.5,0.5,0.6c-0.1,0.2-0.3,0.4-0.5,0.6c-0.2-0.2-0.5-0.3-0.5-0.5C55.3,15.2,55.6,15,55.8,14.7z"/>
	<path d="M60.3,13.6c0.2-0.2,0.4-0.4,0.5-0.4s0.4,0.3,0.5,0.5c-0.2,0.2-0.3,0.5-0.5,0.5c-0.2,0-0.4-0.2-0.6-0.4
		C60.3,13.7,60.3,13.7,60.3,13.6z"/>
	<path d="M40.9,31.2c-0.2-0.1-0.5-0.2-0.8-0.3c-0.1-0.1,0-0.5,0.2-0.6c0.1-0.1,0.4-0.2,0.4-0.1c0.2,0.2,0.3,0.5,0.4,0.8
		C41.1,31,41,31.1,40.9,31.2z"/>
	<path d="M54.1,16.4c0.2,0.3,0.5,0.5,0.5,0.6c0,0.2-0.3,0.4-0.5,0.5c-0.2-0.2-0.5-0.3-0.5-0.5C53.7,16.9,53.9,16.7,54.1,16.4z"/>
	<path d="M64.6,13.4C64.6,13.4,64.6,13.3,64.6,13.4c-0.2-0.2-0.5-0.2-0.6-0.1c-0.2,0.2-0.2,0.5-0.3,0.8C64,13.7,64.3,13.6,64.6,13.4
		z"/>
	<path d="M39,18.1c0.2,0.3,0.3,0.5,0.5,0.8c-0.2,0.1-0.3,0.2-0.5,0.2c-0.2,0-0.5-0.2-0.5-0.2c0.1-0.3,0.2-0.5,0.3-0.8
		C38.8,18.1,38.9,18.1,39,18.1z"/>
	<path d="M28,29c0.3-0.2,0.5-0.5,0.8-0.6c0.1,0,0.4,0.4,0.4,0.5c-0.1,0.2-0.3,0.5-0.5,0.5C28.5,29.4,28.3,29.2,28,29z"/>
	<path d="M46.8,17.2c0.1-0.5,0.2-0.7,0.5-0.6c0.2,0,0.4,0.3,0.5,0.5c-0.2,0.2-0.3,0.5-0.5,0.5C47.2,17.6,47,17.4,46.8,17.2z"/>
	<path d="M35.4,14.9c0.6-0.1,0.5,0.2,0.5,0.5c0,0.4-0.2,0.5-0.5,0.5c-0.2,0-0.4-0.4-0.4-0.5C35.1,15.2,35.4,14.9,35.4,14.9z"/>
	<path d="M28.1,25.5c0.3-0.2,0.5-0.5,0.7-0.5c0.2,0,0.5,0.3,0.5,0.5S29.1,26,28.8,26S28.5,25.7,28.1,25.5z"/>
	<path d="M68.2,10.6L68.2,10.6v-0.2c0-0.1,0-0.2,0-0.2h-0.8c-0.1,0-0.1,0-0.1,0.1c0,0.1,0.1,0.2,0.2,0.3
		C67.7,10.4,68,10.4,68.2,10.6z"/>
	<path d="M59.3,16.1c-0.2-0.3-0.6-0.5-0.5-0.7c0.1-0.2,0.3-0.4,0.5-0.5c0.1,0,0.4,0.2,0.4,0.4C59.6,15.5,59.5,15.7,59.3,16.1z"/>
	<path d="M31,17.1c-0.3,0.2-0.6,0.5-0.7,0.5c-0.2-0.2-0.4-0.4-0.5-0.6c0-0.1,0.3-0.4,0.5-0.4C30.6,16.7,30.8,16.9,31,17.1z"/>
	<path d="M39,28.3c0.2,0.3,0.5,0.5,0.5,0.6c0,0.3-0.2,0.5-0.5,0.5c-0.5,0-0.5-0.3-0.5-0.5C38.4,28.7,38.7,28.5,39,28.3z"/>
	<path d="M24.9,21.7c0.5-0.1,0.8,0.1,0.8,0.5c0,0.3-0.1,0.5-0.4,0.5C25,22.6,24.9,22.3,24.9,21.7z"/>
	<path d="M28.9,42c-0.2,0.2-0.4,0.3-0.5,0.4c0.1,0.2,0.2,0.2,0.3,0.4c0.2-0.2,0.3-0.4,0.5-0.6C29,42.2,29,42.1,28.9,42z"/>
	<path d="M35.6,31.6c0.2,0.3,0.5,0.5,0.5,0.7c-0.1,0.2-0.3,0.4-0.5,0.5c-0.1,0-0.5-0.3-0.4-0.5C35.1,32.1,35.3,31.9,35.6,31.6z"/>
	<path d="M32.4,39.3L32.4,39.3c0.2-0.1,0.3-0.3,0.4-0.6c-0.2-0.1-0.4-0.2-0.5-0.2C32.3,38.7,32.5,39,32.4,39.3z"/>
	<path d="M33.7,14.3c-0.1-0.2-0.3-0.4-0.3-0.5c0-0.2,0.3-0.4,0.5-0.5c0.2,0.2,0.5,0.3,0.5,0.5c0,0.2-0.3,0.4-0.5,0.5
		C33.8,14.3,33.7,14.3,33.7,14.3z"/>
	<path d="M48.4,22.2c0.3-0.2,0.5-0.5,0.7-0.5c0.2,0,0.4,0.3,0.5,0.5c-0.2,0.2-0.4,0.4-0.6,0.5C48.8,22.6,48.7,22.4,48.4,22.2z"/>
	<path d="M27,21.2c-0.2-0.3-0.5-0.5-0.5-0.5c0.2-0.2,0.4-0.5,0.6-0.8c0.1,0.2,0.4,0.3,0.3,0.4C27.4,20.5,27.3,20.8,27,21.2z"/>
	<path d="M39.9,13.6c0.3-0.2,0.5-0.5,0.6-0.4c0.2,0.1,0.4,0.3,0.5,0.5c-0.2,0.2-0.3,0.5-0.5,0.5C40.4,14.2,40.2,13.9,39.9,13.6z"/>
	<path d="M30.7,10.1h-0.5c-0.1,0.1-0.2,0.2-0.3,0.3c0.2,0.2,0.4,0.4,0.6,0.6c0.2-0.2,0.5-0.5,0.5-0.5C30.9,10.3,30.8,10.2,30.7,10.1
		z"/>
	<path d="M23.9,34.3c0.2-0.1,0.3-0.2,0.6-0.3c-0.3-0.3-0.4-0.5-0.6-0.5V34.3z"/>
	<path d="M46.8,20.4c0.2-0.2,0.4-0.4,0.6-0.4c0.2,0,0.3,0.3,0.5,0.5c-0.2,0.2-0.4,0.4-0.6,0.4c-0.2,0-0.3-0.2-0.5-0.2
		C46.8,20.5,46.8,20.5,46.8,20.4z"/>
	<path d="M27.1,44.5c0.2-0.2,0.3-0.4,0.5-0.5c-0.2-0.2-0.4-0.3-0.6-0.3h-0.1c-0.1,0.1-0.2,0.2-0.2,0.2c-0.1,0.1-0.2,0.2-0.2,0.3
		s0.2,0.4,0.2,0.4C26.9,44.6,27,44.5,27.1,44.5z"/>
	<path d="M42.9,25.7c-0.3,0.2-0.5,0.3-0.8,0.3c-0.2,0-0.2-0.4-0.3-0.5c0-0.1,0.2-0.2,0.3-0.3C42.5,25,42.7,25.3,42.9,25.7z"/>
	<path d="M28.1,39c0.3-0.2,0.5-0.5,0.6-0.5c0.2,0.1,0.5,0.3,0.5,0.5c0,0.2-0.3,0.5-0.5,0.5C28.5,39.5,28.4,39.3,28.1,39z"/>
	<path d="M50.1,13.7c0.2-0.2,0.5-0.5,0.6-0.5s0.3,0.3,0.5,0.5C51.1,13.8,51,14,50.7,14C50.6,14.1,50.4,13.9,50.1,13.7z"/>
	<path d="M62.6,11.4c0.2,0.3,0.4,0.5,0.5,0.7c0,0.2-0.4,0.5-0.5,0.4c-0.2-0.1-0.5-0.3-0.5-0.5C62.1,11.8,62.4,11.6,62.6,11.4z"/>
	<path d="M27.6,37.5c-0.2,0.1-0.5,0.2-0.8,0.2c-0.1,0-0.3-0.3-0.3-0.5s0.2-0.4,0.4-0.4c0.2,0.1,0.5,0.2,0.7,0.4
		C27.6,37.4,27.6,37.4,27.6,37.5z"/>
	<path d="M25.3,29.5c-0.2-0.2-0.4-0.5-0.4-0.5c0-0.2,0.2-0.4,0.4-0.5c0.3-0.1,0.5,0.2,0.5,0.5C25.7,29.1,25.5,29.3,25.3,29.5z"/>
	<path d="M28.3,22c0.1-0.2,0.2-0.2,0.3-0.4c0.2,0.2,0.4,0.4,0.5,0.6c0,0.1-0.2,0.4-0.4,0.4C28.5,22.6,28.4,22.4,28.3,22z"/>
	<path d="M24.7,15.4c0.3-0.2,0.5-0.5,0.6-0.5s0.3,0.2,0.5,0.4c-0.2,0.2-0.3,0.4-0.5,0.5C25.2,15.8,25,15.6,24.7,15.4z"/>
	<path d="M36.6,27.4c0.2-0.3,0.4-0.5,0.6-0.8c0.2,0.2,0.3,0.5,0.4,0.6c0,0.2-0.2,0.4-0.3,0.4C37.1,27.6,36.9,27.5,36.6,27.4z"/>
	<path d="M37.5,10.1h-0.8c0,0.2,0,0.3,0.1,0.5c0.2,0.3,0.5,0.2,0.9-0.2C37.7,10.2,37.6,10.1,37.5,10.1z"/>
	<path d="M66.1,12.4v-1.1c-0.3,0.2-0.7,0.4-0.6,0.5c0.1,0.2,0.2,0.5,0.4,0.7C66,12.5,66.1,12.4,66.1,12.4z"/>
</g>
<g>
	<g>
		<path class="st0" d="M75,66V55.5l-7.9-4l-7.4,14.4L75,66L75,66z M69.9,55.1c1,0,1,1.6,0,1.6S68.9,55.1,69.9,55.1z"/>
		<path d="M69.5,64.9c0.1,0.1,0.2-0.1,0.2-0.2s-0.2-0.1-0.2-0.2s0-0.2,0-0.2c-0.1,0-0.2,0.2-0.2,0.2c0,0.1,0.1,0,0.1,0.1
			C69.5,64.8,69.4,64.8,69.5,64.9z"/>
		<path d="M69.2,61.9c0.1,0.1,0.2,0.1,0.2,0v-0.2c0.1-0.2,0.2-0.2,0-0.3l-0.1-0.1c-0.1,0.1-0.1,0.2-0.2,0.2
			C69.1,61.8,69.1,61.7,69.2,61.9z"/>
		<path d="M69.4,63c0-0.1-0.2-0.2-0.1-0.3c0.1-0.1,0.2-0.3-0.1-0.2c-0.2,0,0,0.2-0.1,0.3c0,0.1-0.2,0.2,0,0.3L69.4,63z"/>
		<path d="M71.2,62.2c0.1,0.1,0.5,0.1,0.5-0.1c-0.1-0.2,0-0.2-0.2-0.3c-0.1-0.1-0.2-0.2-0.3-0.2c-0.2-0.1-0.2,0.1-0.3,0.2
			c-0.1,0.1-0.1,0.2-0.2,0.3c0,0,0,0,0,0.1c0,0,0,0,0.1,0C71,62.1,71.1,62.1,71.2,62.2z"/>
		<path d="M71.2,63c0.1,0,0.2,0.2,0.2,0.2c0.1,0,0-0.1,0-0.2H71.2l0.1-0.3c0.1-0.2-0.2-0.2-0.3,0L70.9,63C71,63,71.2,63,71.2,63z"/>
		<path d="M71,63.9c0.1-0.1,0.2,0,0.2-0.2c0-0.1,0-0.1,0.1-0.2c0.1-0.1-0.1-0.2-0.2-0.2c-0.1,0-0.1-0.1,0-0.1c0.1,0,0.3,0,0.3-0.1
			c0.1-0.2-0.2-0.1-0.2,0c-0.1,0.1-0.1-0.2-0.3-0.2c-0.1,0.1-0.2,0.2,0,0.2s0.1,0.1,0.1,0.2s-0.2,0.1-0.2,0.2
			C70.8,63.8,71,63.9,71,63.9c-0.1,0-0.2-0.2-0.2-0.1S71,63.9,71,63.9C71,64.1,71,64.1,71,63.9C71,63.9,71,63.9,71,63.9z"/>
		<path d="M72.5,62.1L72.5,62.1c0.2,0.1,0.1,0,0.2,0c0.2-0.2-0.2-0.4-0.2-0.2l0,0c-0.4,0.1,0,0.2-0.2,0.4c-0.1,0.2,0.2,0.1,0.2,0
			L72.5,62.1z"/>
		<path d="M72.5,64.7c0,0.1-0.3,0.2-0.2,0.3c0.1,0,0.2-0.1,0.2-0.1s0.1,0.1,0.2,0.1c0.2,0.1,0.2-0.2,0.2-0.3
			C72.8,64.5,72.5,64.5,72.5,64.7z"/>
	</g>
	<g>
		<path class="st0" d="M75,66V51.5l-4.5-4.1L58.7,60.2L65,66H75z M69.9,55.1c1,0,1,1.6,0,1.6S68.9,55.1,69.9,55.1z"/>
		<path d="M70.9,59.9c-0.1,0-0.2-0.2-0.2-0.2s-0.1,0.1,0,0.2C70.7,59.9,70.7,60,70.9,59.9l-0.2,0.3c-0.1,0.2,0.2,0.2,0.3,0.1
			c0,0,0.2-0.2,0.1-0.2C71.1,60,70.9,59.9,70.9,59.9z"/>
		<path d="M71,59.6C71.1,59.6,71,59.6,71,59.6c-0.1,0.1-0.2,0-0.3,0.1c-0.1,0.2,0.1,0.2,0.2,0.1c0.2-0.1,0.1,0.3,0.2,0.2
			c0.1,0,0.2-0.2,0.1-0.2c-0.2-0.1-0.1-0.1,0-0.2c0.1-0.1,0.2,0,0.2-0.2c0-0.1-0.1-0.2,0-0.2c0,0,0.1,0.1,0.1,0s-0.1-0.1-0.2-0.2
			c0-0.1-0.1-0.1-0.1,0s0.1,0.1,0.1,0.1c-0.1,0.1-0.2-0.1-0.2,0.1C71,59.3,71,59.3,71,59.3C70.9,59.4,71,59.6,71,59.6z"/>
		<path d="M70.1,58c0-0.1,0.3-0.2,0.2-0.2c-0.1,0-0.2,0-0.2,0s-0.1-0.1-0.2-0.1c-0.2-0.1-0.2,0.2-0.2,0.2C69.7,58.1,70,58.2,70.1,58
			z"/>
		<path d="M72.5,60.7c-0.1,0.1-0.2,0.2,0,0.2c0.2,0,0.1-0.2,0.2-0.2c0.1-0.1,0.3-0.2,0.1-0.3h-0.2C72.5,60.4,72.7,60.5,72.5,60.7z"
			/>
		<path d="M72.9,58.8c0,0.1-0.1,0.2,0,0.2c0.1,0,0.2-0.2,0.2-0.2C73.1,58.8,73,58.8,72.9,58.8c0.1-0.2,0.2-0.2,0.1-0.3
			c-0.1-0.1-0.2,0.1-0.2,0.2C72.8,58.7,72.9,58.7,72.9,58.8z"/>
		<path d="M71,60.9L71,60.9c-0.2-0.1-0.3-0.1-0.4-0.2s-0.5-0.2-0.5,0c0,0.2-0.1,0.2,0.1,0.3c0.1,0.1,0.2,0.3,0.2,0.3
			c0.2,0.1,0.2-0.1,0.3-0.2C70.9,61.1,71,61.1,71,60.9L71,60.9z"/>
		<path d="M72.3,61.4v0.2c-0.1,0.1-0.2,0.2-0.1,0.3c0,0,0,0.1,0.1,0.1c0.1-0.1,0.2-0.1,0.2-0.2c0.1-0.2,0.1-0.2,0-0.3
			C72.5,61.5,72.4,61.4,72.3,61.4z"/>
		<path d="M69.8,60.5c0.2-0.1-0.2-0.1-0.2-0.1s-0.2,0.2-0.2,0.2c0,0,0-0.1-0.1-0.1s-0.1,0.1-0.1,0.1c-0.2,0.1,0.1,0.4,0.2,0.2l0,0
			C69.8,60.7,69.5,60.6,69.8,60.5z"/>
		<path d="M72.3,59.9L72.3,59.9L72.3,59.9z"/>
	</g>
	<g>
		<path class="st0" d="M75,66V48.2l-7.1-3.8l-8.5,15.5L70.7,66H75z M69.9,55.1c1,0,1,1.6,0,1.6S68.9,55.1,69.9,55.1z"/>
		<path d="M71.1,55.8c0-0.1-0.1-0.1-0.2,0c0,0-0.1,0.1-0.1,0.2h-0.2l0,0c0,0.1,0,0.2,0,0.2c0,0,0.1,0,0.1,0.1l0.2,0.1l0.1-0.2
			C71,55.9,71.2,55.9,71.1,55.8z"/>
		<path d="M69.9,54.8L69.9,54.8c0.2,0.4,0.2,0.1,0.4,0.2c0.2,0.1,0.1-0.2,0-0.2l-0.2-0.1l0.1-0.1c0-0.1-0.1,0-0.1-0.1
			C69.9,54.4,69.7,54.7,69.9,54.8z"/>
		<path d="M72.7,54.7c0.1,0,0.2,0.3,0.3,0.2c0-0.1-0.1-0.2-0.1-0.2s0.1-0.1,0.1-0.2c0.1-0.2-0.2-0.2-0.3-0.2
			C72.5,54.4,72.5,54.7,72.7,54.7z"/>
		<path d="M72,56.3C72.1,56.3,72.1,56.2,72,56.3C71.9,56.2,71.9,56.3,72,56.3c-0.2-0.1-0.1-0.2-0.2-0.2c-0.1,0-0.1,0-0.2-0.1
			c-0.1-0.1-0.2,0.1-0.2,0.2s-0.1,0.1-0.1,0s0-0.2-0.1-0.3c-0.2-0.1-0.1,0.2-0.1,0.2c0.1,0.1-0.2,0.1-0.2,0.3c0.1,0.1,0.2,0.2,0.2,0
			s0.1-0.1,0.2-0.1c0.1,0,0.1,0.2,0.2,0.2c0.1,0,0.2-0.1,0.2-0.1s-0.1,0.1,0,0.1C71.9,56.5,71.9,56.3,72,56.3z"/>
		<path d="M72.7,57.6c-0.1,0-0.1,0.2-0.2,0.2c-0.1,0-0.2-0.1-0.2,0c0,0.1,0.2,0.2,0.2,0.2s0-0.1,0.1-0.1s0.2,0.2,0.2,0
			C72.9,57.7,72.8,57.6,72.7,57.6z"/>
		<path d="M71,58L71,57.7c-0.1,0-0.2,0.2-0.3,0.1c-0.1-0.1-0.3-0.2-0.2,0.1c0,0.2,0.2,0.1,0.3,0.1C70.8,58,71,58.2,71,58z"/>
		<path d="M69.8,57.8h-0.2c-0.2-0.1-0.2-0.2-0.3,0l-0.1,0.1c0.1,0.1,0.2,0.1,0.2,0.2c0.2,0.1,0.2,0.1,0.3-0.1
			C69.9,58,69.9,57.8,69.8,57.8z"/>
		<path d="M71.4,57.4L71.4,57.4L71.4,57.4z"/>
	</g>
	<g>
		<path class="st0" d="M74.4,40.7l-15.1,9.1l9.1,14.9l6.6-4V41.6L74.4,40.7z M69.9,56.7c-1,0-1-1.6,0-1.6C71,55.1,71,56.7,69.9,56.7
			z"/>
		<path d="M70.8,50.7c0.1,0,0.2-0.1,0.2-0.1s0.2,0.2,0.2,0.1c0.1-0.1-0.1-0.2-0.2-0.2c-0.1,0-0.1,0.1-0.1,0.1
			c-0.1,0-0.1-0.2-0.2-0.1C70.7,50.6,70.7,50.7,70.8,50.7z"/>
		<path d="M71.3,53.1c0,0,0.1-0.1,0.2-0.1l0.2,0.2c0.2,0.2,0.3-0.2,0.2-0.2l-0.2-0.2L71.6,53C71.5,53.1,71.3,53.1,71.3,53.1
			C71.3,53.2,71.3,53.2,71.3,53.1z"/>
		<path d="M72.5,51.3l-0.1,0.2c0.1,0.1,0.2-0.1,0.3,0.1c0.1,0.1,0.2,0.2,0.2,0.1c0.1-0.2-0.2-0.2-0.2-0.2
			C72.6,51.3,72.6,51.1,72.5,51.3z"/>
		<path d="M73.5,52.1c0.1,0.1,0.2,0.2,0.3,0.2c0,0,0.2,0,0.1-0.1c0-0.1-0.1-0.2-0.1-0.2c-0.2-0.2-0.1-0.1-0.3-0.1
			c-0.1,0-0.2,0.1-0.2,0.2C73.4,52,73.5,52,73.5,52.1z"/>
		<path d="M72.4,53.9c0.1-0.1,0.3,0,0.4-0.2c0.2-0.2,0-0.2-0.1-0.4c-0.1-0.2-0.1-0.2-0.2-0.3c0,0,0,0,0-0.1c0,0,0,0,0,0.1
			c-0.1,0.1-0.1,0.2-0.2,0.2s-0.4,0.4-0.2,0.5C72.2,53.9,72.2,54,72.4,53.9z"/>
		<path d="M71.9,54.6c0.1-0.4-0.1-0.1-0.2-0.3c-0.1-0.2-0.2,0.1-0.2,0.2l0.2,0.2c0,0-0.1,0-0.1,0.1c0,0.1,0.1,0.1,0.1,0.1
			C71.6,55,72,54.7,71.9,54.6L71.9,54.6z"/>
		<path d="M71.2,52.7C71.2,52.7,71.3,52.7,71.2,52.7c0,0.1-0.1,0.2,0,0.3c0.1,0.2,0.2-0.1,0.2-0.2c0-0.2,0.3,0.1,0.2-0.2
			c0-0.1-0.2-0.2-0.2-0.2c-0.1,0.2-0.1,0-0.2-0.1c-0.1-0.1,0-0.2-0.1-0.2c-0.1,0-0.2,0-0.2,0s0.2-0.1,0.1-0.1
			c-0.1,0-0.2,0.1-0.2,0.1s-0.1,0.1,0,0.1s0.1-0.1,0.1-0.1c0.1,0.1-0.2,0.2,0,0.2c0.1,0.1,0.1,0.1,0.1,0.2
			C71,52.8,71.1,52.8,71.2,52.7z"/>
		<path d="M73.6,52.6c0.2,0.1,0.5,0,0.5-0.2C74,52.2,73.4,52.5,73.6,52.6z"/>
		<path d="M69.4,53.2c-0.1-0.1,0-0.4-0.2-0.3c-0.1,0,0,0.2-0.1,0.2c-0.1,0.1-0.1,0.1-0.2,0.1c-0.2,0.1,0.1,0.2,0.2,0.3
			C69.4,53.6,69.5,53.4,69.4,53.2z"/>
		<path d="M71.9,51.6L71.9,51.6L71.9,51.6z"/>
	</g>
	<g>
		<path class="st0" d="M60.7,43.2l4.7,16.8l9.6-2.6V39.2L60.7,43.2z M69.9,56.7c-1,0-1-1.6,0-1.6C71,55.1,71,56.7,69.9,56.7z"/>
		<path d="M71.6,47.2L71.6,47.2c-0.2,0.4,0.1,0.2,0.2,0.4c0,0.2,0.2-0.1,0.2-0.1l-0.1-0.2h0.1v-0.1C71.9,47,71.4,47,71.6,47.2z"/>
		<path d="M71.8,49.7c0.1,0.1,0.2,0,0.2,0s0.1-0.1,0.1-0.1s-0.1,0.1-0.2,0c0-0.1,0.2-0.2,0.1-0.2c-0.1-0.1-0.1-0.1-0.1-0.2
			c0-0.1-0.2-0.2-0.2-0.1c0,0-0.1,0-0.1-0.1c0.1,0,0.2-0.2,0.2-0.2c-0.1-0.2-0.2,0-0.2,0.1c0,0.2-0.2-0.1-0.3,0.1
			c0,0.1,0.1,0.2,0.2,0.2c0.2-0.1,0.1,0,0.2,0.1c0.1,0.1-0.1,0.2,0,0.2C71.7,49.7,71.8,49.7,71.8,49.7
			C71.9,49.7,71.7,49.7,71.8,49.7z"/>
		<path d="M70.6,48.4c0.1-0.1,0.2-0.2,0.3-0.2c0.2,0,0.5-0.3,0.3-0.4c-0.1-0.1-0.2-0.2-0.3-0.2c-0.1,0-0.3-0.1-0.4,0
			c-0.2,0.1-0.1,0.2-0.1,0.3C70.4,48.2,70.5,48.3,70.6,48.4C70.6,48.5,70.6,48.5,70.6,48.4C70.6,48.5,70.6,48.5,70.6,48.4z"/>
		<path d="M71.5,48.8c0.1,0,0.2,0,0.2-0.1s0-0.1-0.1-0.1L71.5,48.8l-0.2-0.3c-0.2-0.2-0.3,0.1-0.2,0.2c0,0,0.1,0.2,0.1,0.2
			C71.3,49,71.4,48.8,71.5,48.8z"/>
		<path d="M73.8,48.9c-0.2-0.1-0.4,0.1-0.3,0.2c0.1,0.1-0.1,0.3,0.1,0.3c0.1,0,0.1-0.2,0.2-0.2c0.1,0,0.1-0.1,0.2-0.1
			C74.1,49.1,73.9,48.9,73.8,48.9z"/>
		<path d="M69.4,48.6c-0.2-0.2-0.5-0.1-0.5,0.1C68.8,48.9,69.5,48.8,69.4,48.6z"/>
		<path d="M69.9,50c0.1,0.1,0,0.3,0.2,0.2l0.1-0.2c0-0.1-0.2,0-0.2-0.2s-0.1-0.3-0.2-0.2C69.6,49.9,69.8,49.9,69.9,50z"/>
		<path d="M70.7,50.1L70.7,50.1L70.7,50.1z"/>
	</g>
	<g>
		<path class="st0" d="M60.2,40.9l6.9,16.2l2.1-0.9c-0.2-0.5,0-1.1,0.7-1.1c0.4,0,0.6,0.2,0.8,0.5l4.3-1.8V34.6L60.2,40.9z"/>
		<path d="M71.3,43.6c0.1-0.1,0.4,0,0.3-0.1c0-0.1-0.2-0.1-0.2-0.1c-0.1-0.1-0.1-0.1-0.1-0.2c-0.1-0.2-0.2,0-0.3,0.2
			C71,43.6,71.2,43.7,71.3,43.6z"/>
		<path d="M71.5,45.9c0,0-0.1-0.2-0.2-0.2c-0.1-0.1,0-0.2-0.1-0.2s-0.1,0.1-0.1,0.1s0.1,0.1,0.1,0.2l-0.2,0.2
			C71,46,71.2,46.1,71.3,46C71.3,46,71.4,45.9,71.5,45.9z"/>
		<path d="M71.6,45.1c-0.1,0-0.1,0.2,0,0.2v0.1c0-0.1-0.2-0.2-0.2-0.2c-0.2,0.1,0.1,0.2,0.1,0.2c0.2,0-0.1,0.2,0.2,0.3
			c0.1,0,0.2-0.1,0.2-0.2c-0.2-0.2,0-0.1,0.1-0.2c0.1-0.1,0.2,0.1,0.2,0c0.1-0.1,0-0.2,0.1-0.2c0,0,0,0.2,0.1,0.1s-0.1-0.2,0-0.2
			c0-0.1-0.1-0.1-0.1-0.1s0.1,0.1,0,0.1S72,45,71.9,45.1C71.7,45.1,71.7,45.1,71.6,45.1z"/>
		<path d="M72.2,47.9c0-0.1-0.1-0.2-0.2-0.2c0,0-0.1,0.1-0.1,0.2c-0.2,0.1-0.2,0.1-0.2,0.2c0,0,0,0.2,0.1,0.1c0.1,0,0.2,0,0.2-0.1
			S72.2,48,72.2,47.9z"/>
		<path d="M71.3,47.9c-0.2,0.2-0.1,0.5,0.2,0.5S71.5,47.6,71.3,47.9z"/>
		<path d="M72.7,46.8c-0.1,0,0,0.2-0.2,0.2c-0.1,0-0.3,0.2-0.1,0.2c0.2,0.1,0.2-0.2,0.2-0.2c0.1-0.1,0.3,0,0.2-0.2L72.7,46.8z"/>
		<path d="M71,46.7c-0.1-0.1-0.2-0.2-0.2-0.2c0-0.2-0.4-0.5-0.5-0.2c-0.1,0.2-0.2,0.2-0.1,0.3c0,0.1,0,0.3,0.1,0.4
			c0.2,0.2,0.2,0,0.4,0C70.8,46.8,70.9,46.8,71,46.7L71,46.7L71,46.7z"/>
		<path d="M73.6,45.3c-0.1,0.1,0.1,0.2,0,0.2c0,0.1-0.2,0.1-0.1,0.2c0.1,0.1,0.2,0,0.2-0.1s-0.1-0.1-0.1-0.2s0.2-0.1,0.2-0.2
			C73.8,45.2,73.7,45.3,73.6,45.3z"/>
		<path d="M68.8,48.8c0,0.1-0.2,0.2-0.1,0.3c0.1,0.2,0.2,0.2,0.3,0.1C69.4,49,68.8,48.6,68.8,48.8z"/>
		<path d="M69.9,45.5l-0.2,0.1v-0.1c-0.1,0-0.1,0.1-0.1,0.1c-0.2,0-0.1,0.4,0.1,0.2l0,0c0.4,0.2,0.2-0.1,0.4-0.2
			C70.2,45.6,70,45.5,69.9,45.5z"/>
		<path d="M72.7,46.3L72.7,46.3L72.7,46.3z"/>
	</g>
	<g>
		<polygon class="st0" points="75,32.8 61.9,34.6 64.4,52 75,50.6 		"/>
		<path d="M69.8,41.8C69.8,41.7,69.8,41.7,69.8,41.8c0.3,0.2,0.2-0.1,0.5-0.1c0.2,0,0-0.2-0.1-0.2L70,41.7c0,0,0.1-0.1,0-0.1h-0.1
			C69.6,41.4,69.6,41.9,69.8,41.8z"/>
		<path d="M72.3,41.8C72.3,41.8,72.3,42,72.3,41.8c0.2,0,0.1-0.1,0.1-0.2s0-0.1-0.1-0.1C72.2,41.6,72.3,41.7,72.3,41.8
			c-0.1-0.1-0.1-0.2-0.2-0.2c-0.1,0.1-0.1,0-0.2,0c-0.1,0-0.2,0.2-0.1,0.2c0,0.1,0,0.1-0.1,0.1c0-0.1-0.2-0.2-0.2-0.2
			c-0.2,0.1,0,0.2,0.1,0.2c0.2,0-0.2,0.2,0.1,0.3c0.1,0,0.2,0,0.2-0.2s0-0.1,0.2-0.2c0.1-0.1,0.2,0.1,0.2,0.1
			C72.2,42,72.2,41.8,72.3,41.8z"/>
		<path d="M71.3,41.9V42l-0.2,0.2c-0.2,0.1,0,0.3,0.2,0.2l0.2-0.1l-0.1-0.2C71.4,42,71.4,41.9,71.3,41.9
			C71.3,41.8,71.3,41.8,71.3,41.9z"/>
		<path d="M72,40.1c0.1,0,0.3,0.1,0.3,0s-0.2-0.1-0.2-0.2s0-0.1-0.1-0.2c-0.1-0.2-0.2-0.1-0.3,0.1C71.7,39.9,71.9,40.2,72,40.1z"/>
		<path d="M72.4,43.8c0.1,0,0.3,0.1,0.3-0.2c0,0-0.2-0.2-0.2-0.2c-0.1,0-0.1,0.2-0.2,0.2s-0.3,0.1-0.2,0.2S72.3,43.9,72.4,43.8z"/>
		<path d="M71,44.7c0.2,0.1,0.2-0.6,0-0.5C70.7,44.2,70.7,44.6,71,44.7z"/>
		<path d="M70.5,43c0.2,0,0.2,0,0.4-0.1H71c0,0,0,0-0.1-0.1s-0.2-0.2-0.2-0.3c0-0.2-0.2-0.5-0.4-0.3c-0.1,0.1-0.2,0.1-0.2,0.2
			c0,0.1-0.1,0.3-0.1,0.4C70.3,43.1,70.4,43,70.5,43z"/>
		<path d="M72.6,43L72.6,43L72.6,43z"/>
	</g>
	<g>
		<polygon class="st0" points="75,28.6 61.1,32.4 65.8,49.4 75,46.9 		"/>
		<path d="M71.9,36.5c0.1-0.1,0.3,0.1,0.3-0.1c0-0.1-0.2-0.1-0.2-0.2c-0.1-0.1-0.1-0.1-0.1-0.2c-0.1-0.2-0.2,0-0.3,0.1
			C71.6,36.4,71.7,36.6,71.9,36.5z"/>
		<path d="M71.3,38.7C71,38.9,71.3,39,71.5,39c0,0,0.2-0.1,0.2-0.1c0,0-0.1-0.2-0.1-0.2s0-0.2-0.1-0.2s-0.1,0-0.1,0.1l0.1,0.2
			C71.5,38.6,71.3,38.7,71.3,38.7z"/>
		<path d="M72.4,38.1c-0.1,0-0.2-0.2-0.2-0.1c-0.1,0.1-0.1,0.1-0.2,0.1c-0.1,0-0.2,0.2-0.1,0.2c0,0,0,0.1-0.1,0.1
			c0-0.1-0.2-0.2-0.2-0.2c-0.2,0.1,0,0.2,0.1,0.2c0.2,0-0.1,0.2,0.1,0.3c0.1,0,0.2-0.1,0.2-0.2c-0.1-0.2,0-0.1,0.1-0.2
			s0.2,0.1,0.2,0c0.1,0,0.1-0.2,0.1-0.2s0,0.2,0.1,0.1C72.5,38.3,72.5,38.2,72.4,38.1c0.1-0.1,0-0.2,0-0.2
			C72.3,38,72.5,38.1,72.4,38.1z"/>
		<path d="M73,40c0,0-0.2-0.2-0.2-0.1c-0.1,0,0,0.2-0.2,0.2s-0.3,0.1-0.2,0.2c0.2,0.1,0.2-0.1,0.2-0.2C72.8,40.2,73.1,40.2,73,40z"
			/>
		<path d="M71.3,40.8c-0.2,0.2-0.1,0.5,0.1,0.5C71.6,41.2,71.5,40.6,71.3,40.8z"/>
		<path d="M70.8,39.6c0.2,0,0.2-0.1,0.4-0.1h0.1c0,0,0,0-0.1-0.1S71,39.3,71,39.2c0-0.2-0.3-0.5-0.4-0.3c-0.1,0.1-0.2,0.2-0.2,0.3
			c0,0.1-0.1,0.3,0,0.4C70.6,39.8,70.7,39.6,70.8,39.6z"/>
		<path d="M70.2,38.3L70,38.3v-0.1h-0.1c-0.2,0-0.2,0.4,0.1,0.2c0,0,0,0,0.1,0c0.3,0.2,0.2-0.1,0.4-0.1
			C70.4,38.3,70.3,38.3,70.2,38.3z"/>
		<path d="M72.8,39.3L72.8,39.3L72.8,39.3z"/>
	</g>
	<g>
		<polygon class="st0" points="75,26 71.1,22.7 59.6,35.7 72.8,47.4 75,45 		"/>
		<path d="M72,33.9C72.1,33.9,72.1,33.9,72,33.9c0.2,0.1,0.3,0.1,0.4,0.2c0.1,0.1,0.5,0.2,0.5,0c0-0.2,0.1-0.2-0.1-0.3
			c-0.1-0.1-0.2-0.3-0.2-0.3c-0.2-0.1-0.2,0.1-0.3,0.2C72.2,33.7,72.2,33.7,72,33.9C72.1,33.9,72.1,33.9,72,33.9z"/>
		<path d="M70.7,33.4v-0.2c0.1-0.1,0.2-0.2,0.1-0.3c0,0,0-0.1-0.1-0.1c-0.1,0.1-0.2,0.1-0.2,0.2c-0.1,0.2-0.1,0.2,0,0.3
			C70.6,33.3,70.7,33.4,70.7,33.4z"/>
		<path d="M70.5,33.9c-0.2,0-0.1,0.2-0.2,0.2c-0.1,0.1-0.3,0.2-0.1,0.3h0.2c0.1-0.1-0.1-0.2,0-0.3C70.7,34,70.7,33.9,70.5,33.9z"/>
		<path d="M72.2,34.9c0.1,0,0.2,0.2,0.2,0.2s0.1-0.1,0-0.2C72.5,34.9,72.4,34.8,72.2,34.9l0.2-0.3c0.1-0.2-0.2-0.2-0.3-0.1
			c0,0-0.1,0.2-0.1,0.2C72,34.8,72.2,34.9,72.2,34.9z"/>
		<path d="M73.4,34.3c-0.2,0.1,0.2,0.1,0.2,0.1s0.2-0.2,0.2-0.2c0,0,0,0.1,0.1,0.1s0.1-0.1,0.1-0.1c0.2-0.1-0.1-0.4-0.2-0.2l0,0
			C73.3,34,73.6,34.2,73.4,34.3z"/>
		<path d="M72.1,35.3C72,35.3,72.1,35.2,72.1,35.3c0.1-0.1,0.2,0,0.3-0.1c0.1-0.2-0.1-0.1-0.2-0.1c-0.2,0.1-0.1-0.3-0.2-0.2
			c-0.1,0-0.2,0.2-0.1,0.2c0.2,0.1,0.1,0.1,0,0.2c-0.1,0.1-0.2,0-0.2,0.2c0,0.1,0.1,0.2,0,0.2c0,0-0.1-0.1-0.1,0s0.1,0.1,0.2,0.2
			c0,0.1,0.1,0.1,0.1,0s-0.1-0.1-0.1-0.1c0.1-0.1,0.2,0.1,0.2-0.1c0.1-0.1,0.1-0.1,0.2-0.2C72.2,35.4,72.2,35.3,72.1,35.3z"/>
		<path d="M73.1,36.8c0,0.1-0.3,0.2-0.2,0.2c0.1,0,0.2,0,0.2,0s0.1,0.1,0.2,0.1c0.2,0.1,0.2-0.2,0.2-0.2
			C73.5,36.7,73.2,36.6,73.1,36.8z"/>
		<path d="M70.2,36c0-0.1,0.1-0.2,0-0.2c-0.1,0-0.2,0.2-0.2,0.2C70.1,36,70.1,36,70.2,36c-0.1,0.2-0.2,0.2-0.1,0.3
			c0.1,0.1,0.2-0.1,0.2-0.2S70.2,36.1,70.2,36z"/>
		<path d="M70.8,35L70.8,35L70.8,35z"/>
	</g>
	<g>
		<polygon class="st0" points="75,20 60.2,28.2 68.6,43.4 75,39.9 		"/>
		<path d="M72.8,32.7c0.2,0.1,0.2,0.1,0.3,0.1c0.1,0,0.3,0,0.4-0.1c0.2-0.2,0-0.2,0-0.4s-0.1-0.2-0.2-0.3c0,0,0,0,0-0.1
			c0,0,0,0-0.1,0.1c-0.1,0.1-0.2,0.2-0.2,0.2C72.8,32.3,72.5,32.7,72.8,32.7z"/>
		<path d="M71.6,29.6c0.1,0,0.2-0.1,0.2-0.1c0.1,0,0.2,0.2,0.2,0.1c0.1-0.1-0.1-0.2-0.1-0.2c-0.1,0-0.1,0.1-0.1,0.1
			c-0.1,0-0.1-0.2-0.2-0.1C71.5,29.4,71.6,29.5,71.6,29.6z"/>
		<path d="M73.5,30.4c0,0.1,0.2,0.2,0.2,0.1c0.1-0.2-0.2-0.2-0.2-0.2c-0.1-0.1-0.1-0.3-0.2-0.2l-0.1,0.2
			C73.2,30.4,73.4,30.3,73.5,30.4z"/>
		<path d="M71.6,31.4c0.1,0.1,0.1,0.1,0.1,0.2c0.1,0.1,0.2,0.1,0.2,0h0.1c-0.1,0.1-0.2,0.2-0.2,0.3c0.1,0.2,0.2-0.1,0.2-0.2
			c0-0.2,0.3,0.1,0.3-0.2c0-0.1-0.2-0.2-0.2-0.2c-0.1,0.2-0.1,0-0.2-0.1c-0.1-0.1,0.1-0.2-0.1-0.2c-0.1,0-0.2,0-0.2-0.1
			c0,0,0.2-0.1,0.1-0.1S71.6,31,71.5,31c-0.1,0-0.1,0.1-0.1,0.1c0.1,0,0.1-0.1,0.1,0C71.6,31.2,71.5,31.3,71.6,31.4z"/>
		<path d="M72.5,31.9l-0.2-0.2l-0.2,0.2C72.2,31.9,72,31.9,72,32s0.1,0.1,0.1,0.1s0.1-0.1,0.2-0.1l0.2,0.2
			C72.5,32.2,72.7,32,72.5,31.9z"/>
		<path d="M72.5,33.4c0.2-0.4-0.1-0.1-0.2-0.3c-0.1-0.2-0.2,0.1-0.2,0.2l0.2,0.2h-0.1c0,0.1,0.1,0.1,0.1,0.1
			C72.3,33.7,72.7,33.6,72.5,33.4C72.5,33.4,72.5,33.4,72.5,33.4z"/>
		<path d="M74.4,31.6c0.2,0.1,0.5,0,0.5-0.2C74.7,31.1,74.1,31.4,74.4,31.6z"/>
		<path d="M74.6,31.2C74.6,31.2,74.7,31.2,74.6,31.2c0.1-0.2,0-0.2,0-0.3c-0.1-0.2-0.1-0.1-0.3-0.1c-0.1,0-0.2,0.1-0.2,0.2l0.2,0.1
			C74.4,31.1,74.4,31.3,74.6,31.2z"/>
		<path d="M70,31.7c-0.1,0,0,0.2-0.1,0.2C69.8,32,69.8,32,69.8,32c-0.2,0.1,0.1,0.2,0.2,0.3c0.2,0,0.4-0.2,0.2-0.3
			C70.1,31.9,70.1,31.6,70,31.7z"/>
		<path d="M72.6,30.4L72.6,30.4L72.6,30.4z"/>
	</g>
	<g>
		<polygon class="st0" points="75,15.9 75,15.9 60.1,25.4 69.5,40.1 75,36.5 		"/>
		<path d="M71.7,26c-0.1,0-0.1-0.2-0.2-0.1c-0.1,0.1,0,0.2,0.1,0.2C71.6,26.1,71.7,26,71.7,26c0.2,0.1,0.2,0.2,0.2,0.2
			C72,26,71.9,25.9,71.7,26C71.8,25.9,71.8,26,71.7,26z"/>
		<path d="M73.2,26.5l-0.1,0.2c0.1,0.1,0.2-0.1,0.3,0.1c0.1,0.1,0.2,0.2,0.2,0.1c0.1-0.2-0.2-0.2-0.2-0.2
			C73.5,26.6,73.4,26.4,73.2,26.5z"/>
		<path d="M74.4,27.3c0.1,0.1,0.2,0.2,0.3,0.2c0,0,0.2,0,0.1-0.1c0-0.1-0.1-0.2-0.2-0.2c-0.2-0.2-0.2-0.1-0.3-0.1
			c-0.1,0-0.2,0.1-0.2,0.2C74.2,27.3,74.3,27.3,74.4,27.3z"/>
		<path d="M72.2,28.5c0,0,0.1-0.1,0.2-0.1l0.2,0.2c0.2,0.2,0.2-0.2,0.2-0.2l-0.2-0.2l-0.2,0.2C72.4,28.4,72.2,28.4,72.2,28.5
			C72.1,28.5,72.2,28.5,72.2,28.5z"/>
		<path d="M72.7,29.9c0.1-0.4-0.1-0.1-0.2-0.3c-0.1-0.2-0.2,0.1-0.2,0.2l0.2,0.2c0,0-0.1,0-0.1,0.1s0.1,0.1,0.1,0.1
			C72.5,30.2,72.9,30,72.7,29.9L72.7,29.9z"/>
		<path d="M73.6,29.1c0.2-0.2,0-0.2-0.1-0.4c-0.1-0.2-0.1-0.2-0.2-0.3c0,0,0,0,0-0.1c0,0,0,0,0,0.1c-0.1,0.1-0.1,0.2-0.2,0.2
			s-0.4,0.4-0.2,0.5c0.2,0,0.2,0.1,0.3,0.1C73.3,29.1,73.5,29.1,73.6,29.1z"/>
		<path d="M72,28C72,28,72.1,28,72,28c0,0.1-0.1,0.2,0,0.3c0.1,0.2,0.2-0.1,0.2-0.2c-0.1-0.2,0.3,0,0.2-0.2c0-0.1-0.2-0.2-0.2-0.2
			c-0.1,0.2-0.1,0-0.2-0.1c-0.1-0.1,0-0.2-0.1-0.2c-0.1,0-0.2,0-0.2,0s0.2-0.1,0.1-0.1c-0.1,0-0.2,0.1-0.2,0.1s-0.1,0.1,0,0.1
			s0.1-0.1,0.1-0.1c0.1,0.1-0.1,0.2,0,0.2c0.1,0.1,0.1,0.1,0.1,0.2C71.8,28.2,71.9,28.1,72,28z"/>
		<path d="M74.4,27.9c0.2,0.1,0.5,0,0.5-0.2C74.8,27.4,74.2,27.8,74.4,27.9z"/>
		<path d="M70.1,28.9c0.2,0,0.4-0.2,0.2-0.3c-0.1-0.1-0.1-0.4-0.2-0.3c-0.1,0,0,0.2-0.1,0.2c0,0.1-0.1,0.1-0.2,0.2
			C69.8,28.8,70,28.9,70.1,28.9z"/>
		<path d="M72.7,26.9L72.7,26.9L72.7,26.9z"/>
	</g>
	<g>
		<polygon class="st0" points="75,15.1 62.3,17.2 65.1,34.6 75,33 		"/>
		<path d="M71.9,24.3c0,0,0,0.2,0.1,0.2l-0.2,0.2c-0.2,0.1,0,0.3,0.2,0.2l0.2-0.1L72,24.5C72,24.5,72,24.3,71.9,24.3
			C71.9,24.2,71.9,24.2,71.9,24.3z"/>
		<path d="M72.5,22.4c0.1,0,0.3,0.1,0.3-0.1c0-0.1-0.2-0.1-0.2-0.2s0-0.1-0.1-0.2c-0.1-0.2-0.2-0.1-0.3,0.1
			C72.2,22.3,72.3,22.5,72.5,22.4z"/>
		<path d="M70.4,24.2C70.4,24.2,70.4,24.2,70.4,24.2c0.3,0.2,0.2-0.1,0.5-0.1c0.2,0,0-0.2-0.1-0.2l-0.2,0.1V24h-0.1
			C70.1,23.9,70.1,24.3,70.4,24.2z"/>
		<path d="M72.8,24c0,0,0,0.1,0,0.2c-0.1,0-0.1-0.2-0.2-0.1c-0.1,0.1-0.1,0-0.2,0c-0.1,0-0.2,0.2-0.1,0.2c0,0.1,0,0.1-0.1,0.1
			c0-0.1-0.2-0.2-0.2-0.2c-0.2,0.1,0,0.2,0.1,0.2c0.2,0-0.2,0.2,0.1,0.3c0.1,0,0.2,0,0.2-0.2c-0.1-0.2,0-0.1,0.2-0.2
			c0.1-0.1,0.2,0.1,0.2,0c0.1,0,0.1-0.2,0.1-0.2s0,0.2,0.1,0.1C72.9,24.2,72.8,24.1,72.8,24C73,24,72.9,23.9,72.8,24z"/>
		<path d="M71.6,27c0.2,0.1,0.2-0.6-0.1-0.5C71.4,26.6,71.3,27,71.6,27z"/>
		<path d="M71.5,25.4C71.5,25.4,71.5,25.3,71.5,25.4c-0.1-0.2-0.2-0.2-0.2-0.4s-0.2-0.5-0.4-0.3c-0.1,0.1-0.2,0.1-0.2,0.3
			c0,0.1-0.1,0.3,0,0.4c0.1,0.2,0.2,0.1,0.3,0.1C71.3,25.4,71.3,25.4,71.5,25.4L71.5,25.4z"/>
		<path d="M73,26.2c0.1,0,0.3,0.1,0.3-0.2c0,0-0.2-0.2-0.2-0.2c-0.1,0,0,0.2-0.2,0.2c-0.2,0-0.3,0.1-0.2,0.2
			C72.8,26.4,72.9,26.2,73,26.2z"/>
		<path d="M73.1,25.4L73.1,25.4L73.1,25.4z"/>
	</g>
	<g>
		<polygon class="st0" points="75,10 60.8,16.6 68.2,32.6 75,29.5 		"/>
		<path d="M72.6,18.7c0.1-0.2,0-0.5-0.2-0.5C72.2,18.3,72.5,18.9,72.6,18.7z"/>
		<path d="M71.3,19.8c0.1,0,0-0.2,0.2-0.2c0.1,0,0.3-0.2,0.1-0.2c-0.2-0.1-0.2,0.2-0.2,0.2c-0.1,0.1-0.3,0.1-0.2,0.2
			C71.1,19.7,71.3,19.8,71.3,19.8z"/>
		<path d="M71.8,18.7c0,0.1,0.1,0.2,0.2,0.2l0.1-0.2c0.1-0.1,0.2-0.1,0.2-0.2c0,0,0-0.2-0.1-0.1c-0.1,0-0.2,0.1-0.2,0.1
			C71.7,18.6,71.8,18.6,71.8,18.7z"/>
		<path d="M72.8,20.5c0,0-0.2,0.1-0.2,0.2c0,0,0.2,0.2,0.2,0.2c0.1,0.1,0.1,0.2,0.1,0.2c0.1,0,0.1-0.1,0.1-0.1s-0.1-0.1-0.1-0.2
			c0,0,0.2-0.2,0.2-0.2C73.1,20.5,72.9,20.4,72.8,20.5z"/>
		<path d="M71.9,21.4c0.1,0,0.2,0.2,0.2,0.1s0.1-0.1,0.2-0.1c0.1,0,0.1-0.2,0-0.2v-0.1c0,0.1,0.2,0.2,0.2,0.2
			c0.2-0.1-0.1-0.2-0.1-0.2c-0.2,0,0.1-0.2-0.2-0.3c-0.1,0-0.2,0.1-0.2,0.2c0.2,0.2,0,0.1-0.1,0.2c-0.1,0.1-0.2-0.1-0.2,0
			c-0.1,0.1,0,0.2-0.1,0.2c0,0,0-0.2-0.1-0.1C71.8,21.4,71.9,21.4,71.9,21.4C71.9,21.6,71.9,21.6,71.9,21.4
			C72,21.5,71.9,21.4,71.9,21.4z"/>
		<path d="M74.4,20.7L74.4,20.7c-0.4-0.2-0.2,0.1-0.4,0.2c-0.2,0.1,0.1,0.2,0.2,0.2c0,0,0.2-0.1,0.2-0.2v0.1c0.1,0,0.1-0.1,0.1-0.1
			C74.7,20.9,74.5,20.5,74.4,20.7z"/>
		<path d="M73.8,20.1c0-0.1,0-0.3-0.1-0.4c-0.2-0.2-0.2,0-0.4,0s-0.2,0.1-0.3,0.2c0,0,0,0-0.1,0c0,0,0,0,0.1,0.1s0.2,0.2,0.2,0.2
			c0,0.2,0.4,0.4,0.5,0.2C73.7,20.2,73.8,20.2,73.8,20.1z"/>
		<path d="M72.7,22.9c-0.1,0.1-0.4,0-0.3,0.2c0,0.1,0.2,0.1,0.2,0.1c0.1,0.1,0.1,0.1,0.1,0.2c0.1,0.2,0.2,0,0.3-0.2
			C73.1,23,72.8,22.8,72.7,22.9z"/>
		<path d="M70.4,21.3c0.1-0.1-0.1-0.2,0-0.2c0-0.1,0.2-0.2,0.1-0.2c-0.1-0.1-0.2,0-0.2,0.1s0.1,0.1,0.1,0.1c0,0.1-0.2,0.1-0.2,0.2
			C70.2,21.4,70.4,21.4,70.4,21.3z"/>
		<path d="M71.3,20.3L71.3,20.3L71.3,20.3z"/>
	</g>
	<g>
		<polygon class="st0" points="75,7.3 72.8,5.1 60.1,16.8 72.1,29.8 75,27.1 		"/>
		<path d="M71.2,15.5c0,0.1,0.1,0.2,0.2,0.1c0,0,0-0.2,0.1-0.2c0.1-0.1,0.2-0.2,0.1-0.3c0,0,0-0.2-0.1-0.1c-0.1,0.1-0.2,0.1-0.2,0.2
			C71.1,15.3,71.2,15.3,71.2,15.5z"/>
		<path d="M71.1,16.4c0.1-0.1,0.2-0.2,0-0.2c-0.2,0-0.1,0.2-0.2,0.2s-0.3,0.2-0.2,0.3H71C71.1,16.6,71,16.5,71.1,16.4z"/>
		<path d="M74.1,13.5c0-0.2,0.2-0.2,0-0.3c-0.1-0.1-0.2-0.1-0.4,0C73.5,13.5,74.1,13.7,74.1,13.5z"/>
		<path d="M74.3,16.8C74.3,16.8,74.3,16.8,74.3,16.8c0.2,0.1,0.2,0,0.2,0c0.2-0.1-0.1-0.4-0.2-0.2l0,0c-0.4,0-0.1,0.2-0.3,0.2
			c-0.2,0.1,0.1,0.1,0.2,0.1C74.1,16.9,74.3,16.8,74.3,16.8z"/>
		<path d="M72.7,16.2C72.6,16.2,72.6,16.2,72.7,16.2C72.6,16.2,72.7,16.2,72.7,16.2c0.2,0.1,0.3,0.2,0.3,0.2
			c0.1,0.1,0.5,0.3,0.5,0.1c0-0.2,0.1-0.2,0-0.3c-0.1-0.1-0.1-0.3-0.2-0.4s-0.2,0.1-0.3,0.1C72.8,16,72.8,16.1,72.7,16.2z"/>
		<path d="M72.6,16.9l-0.2,0.2l0.2,0.2c0.1,0.1,0.1,0.2,0.2,0.2c0.1,0,0.1-0.1,0-0.1c0,0-0.1-0.1-0.2-0.1l0.1-0.2
			C73.1,16.8,72.8,16.8,72.6,16.9z"/>
		<path d="M72.5,17.6C72.5,17.6,72.5,17.5,72.5,17.6c0.1-0.1,0.2,0,0.3,0c0.2-0.2-0.1-0.2-0.2-0.1c-0.2,0.1,0-0.3-0.2-0.2
			c-0.1,0-0.2,0.2-0.1,0.2c0.2,0.1,0.1,0.1,0,0.2c-0.1,0.1-0.2,0-0.2,0.2c0,0.1,0,0.2,0,0.2s-0.1-0.2-0.1,0c0,0.1,0.1,0.2,0.1,0.2
			c0,0.1,0.1,0.1,0.1,0S72.2,18,72.2,18c0.1-0.1,0.2,0.1,0.2-0.1c0.1-0.1,0.1-0.1,0.2-0.2C72.7,17.8,72.6,17.7,72.5,17.6z"/>
		<path d="M73.4,19.2c-0.1,0.1-0.3,0.1-0.2,0.2c0,0.1,0.2,0,0.2,0s0.1,0.1,0.2,0.1c0.2,0.1,0.2-0.1,0.2-0.2
			C73.8,19.2,73.5,19,73.4,19.2z"/>
		<path d="M70.7,18c-0.1,0-0.2,0.2-0.2,0.2c0,0.1,0.1,0.1,0.1,0.1c0,0.1-0.2,0.2-0.1,0.2c0.1,0.1,0.2,0,0.2-0.1s-0.1-0.1-0.1-0.2
			C70.6,18.1,70.7,18,70.7,18z"/>
		<path d="M71.3,17.1L71.3,17.1L71.3,17.1z"/>
	</g>
	<g>
		<polygon class="st0" points="75,3.2 60.9,9.7 68.1,25.4 75,22.3 		"/>
		<path d="M72.2,11.9C72.2,11.9,72.3,11.9,72.2,11.9c-0.2,0.4,0.1,0.2,0.2,0.4c0.1,0.2,0.2-0.1,0.2-0.2c0,0-0.1-0.2-0.2-0.2h0.1
			c0-0.1-0.1-0.1-0.1-0.1C72.5,11.6,72.2,11.8,72.2,11.9z"/>
		<path d="M71.3,12.6c-0.2,0.2,0,0.2,0,0.4c0,0.2,0.1,0.2,0.2,0.3c0,0,0,0,0,0.1c0,0,0,0,0.1-0.1s0.2-0.2,0.2-0.2
			c0.2,0,0.4-0.4,0.2-0.5s-0.2-0.2-0.3-0.1C71.6,12.6,71.4,12.5,71.3,12.6z"/>
		<path d="M73.1,14C73,14,73,14,73,13.9s-0.2-0.1-0.2,0h-0.1c0.1,0,0.2-0.2,0.2-0.2c-0.1-0.2-0.2,0.1-0.2,0.1c0,0.2-0.2-0.1-0.3,0.2
			c0,0.1,0.1,0.2,0.2,0.2c0.2-0.2,0.1,0,0.2,0.1c0.1,0.1-0.1,0.2,0,0.2c0.1,0.1,0.2,0,0.2,0.1c0,0-0.2,0-0.1,0.1
			c0.1,0.1,0.2-0.1,0.2,0c0.1,0,0.1-0.1,0.1-0.1s-0.1,0.1-0.1,0C73,14.3,73.1,14.2,73.1,14z"/>
		<path d="M72.1,13.5c0,0,0.1,0.2,0.2,0.2c0,0,0.2-0.2,0.2-0.2c0.1-0.1,0.2-0.1,0.2-0.1c0-0.1-0.1-0.1-0.1-0.1s-0.1,0.1-0.2,0.1
			l-0.2-0.2C72.1,13.1,72,13.4,72.1,13.5z"/>
		<path d="M70.3,13.7c-0.2-0.2-0.5,0-0.5,0.2C69.8,14,70.5,13.8,70.3,13.7z"/>
		<path d="M71.1,14.9c0-0.1-0.2-0.3-0.2-0.1C70.8,14.9,71,14.9,71,15c0.1,0.1,0.1,0.3,0.2,0.2l0.1-0.2C71.3,14.9,71.2,15,71.1,14.9z
			"/>
		<path d="M72.8,15.9c-0.1-0.1-0.2,0.1-0.2,0c-0.1,0-0.2-0.2-0.2-0.1c-0.1,0.1,0,0.2,0.1,0.2s0.1-0.1,0.1-0.1c0.1,0,0.1,0.2,0.2,0.2
			C73,16.1,72.9,15.9,72.8,15.9z"/>
		<path d="M75,13.4c0-0.1-0.1-0.2-0.2-0.2c-0.2-0.1-0.4,0.2-0.2,0.3c0.1,0.1,0,0.4,0.2,0.3c0.1,0,0.1-0.2,0.1-0.2
			c0.1-0.1,0.1-0.1,0.2-0.1l0,0V13.4z"/>
		<path d="M69.3,11.1c-0.1,0-0.2-0.2-0.3-0.1c-0.1,0.1-0.2,0.2-0.1,0.3C69.1,11.7,69.4,11.2,69.3,11.1z"/>
		<path d="M70.4,14.3c-0.1-0.1-0.1-0.2-0.2-0.2c0,0-0.2,0-0.1,0.1c0,0.1,0.1,0.2,0.1,0.2c0.1,0.2,0.1,0.2,0.2,0.1
			c0.1,0,0.2-0.1,0.2-0.2C70.4,14.3,70.4,14.3,70.4,14.3z"/>
		<path d="M71.9,14.9L71.9,14.9L71.9,14.9z"/>
	</g>
	<g>
		<path class="st0" d="M71,0.5c-0.6,0.1-1.2,0.2-1.8,0.3l-8.9,10.9l13.4,11l1.3-1.5V1C73.6,1,72.2,0.9,71,0.5z"/>
		<path d="M72.5,9.9c0-0.1-0.1-0.1-0.2,0c0,0-0.1,0.1-0.1,0.2L72.1,10c-0.2-0.1-0.2,0.2-0.1,0.3c0,0,0.2,0.1,0.2,0.1
			c0,0,0.1-0.2,0.2-0.2C72.4,10,72.5,10,72.5,9.9z"/>
		<path d="M71,10c0.1,0.2,0.2,0.2,0.3,0.2c0,0,0,0,0.1,0c0,0,0,0,0-0.1s0-0.2,0.2-0.3c0.1-0.1,0.2-0.5,0-0.5c-0.2,0-0.2-0.1-0.3,0.1
			C71.2,9.6,71,9.7,71,9.7C70.8,10,71,10,71,10z"/>
		<path d="M71.5,8.7L71.5,8.7c0.1,0.4,0.2,0.1,0.3,0.3c0.1,0.2,0.1-0.2,0.1-0.2l-0.2-0.2c0,0,0.1,0,0.1-0.1s-0.1-0.1-0.1-0.1
			C71.6,8.3,71.3,8.6,71.5,8.7z"/>
		<path d="M74.3,9.1c0.1,0,0.2,0.3,0.2,0.2c0-0.1,0-0.2,0-0.2c0-0.1,0.1-0.1,0.1-0.2c0.1-0.2-0.2-0.2-0.2-0.2
			C74.1,8.8,74.1,9.1,74.3,9.1z"/>
		<path d="M71.7,11.9c-0.1-0.1-0.2-0.2-0.2,0s0.2,0.1,0.3,0.2c0.1,0.1,0.2,0.3,0.3,0.1v-0.2C71.9,11.8,71.8,11.9,71.7,11.9z"/>
		<path d="M70.5,11.9c0.2,0.1,0.2,0.1,0.3,0c0.1,0,0.2-0.2,0.1-0.2h-0.2c-0.1-0.1-0.2-0.2-0.3-0.1l-0.1,0.1
			C70.4,11.8,70.4,11.9,70.5,11.9z"/>
		<path d="M73.9,12.2c0.1-0.1-0.1-0.2-0.2-0.2c-0.1,0-0.1,0.1-0.2,0.1s-0.2-0.1-0.2,0c0,0.1,0.2,0.2,0.2,0.2c0.1,0,0.1-0.1,0.1-0.1
			C73.7,12.2,73.8,12.3,73.9,12.2z"/>
		<path d="M73.3,10.5C73.2,10.5,73.2,10.6,73.3,10.5c-0.2,0,0-0.1-0.2-0.2c-0.1-0.1-0.1-0.1-0.2-0.2c-0.1-0.1-0.2,0-0.2,0.1
			c0,0.1-0.1,0-0.1,0c0-0.1,0.1-0.2,0-0.3c-0.2-0.1-0.1,0.1-0.1,0.2c0.1,0.1-0.3,0.1-0.2,0.2c0,0.1,0.2,0.2,0.2,0.1
			c0.1-0.2,0.1-0.1,0.2,0c0.1,0.1,0,0.2,0.2,0.2c0.1,0,0.2-0.1,0.2,0c0,0-0.1,0.1,0,0.1S73.1,10.6,73.3,10.5
			C73.4,10.6,73.4,10.5,73.3,10.5z"/>
		<path d="M72.5,11.5L72.5,11.5L72.5,11.5z"/>
	</g>
	<g>
		<path class="st0" d="M71,0.5c-0.9,0.2-1.7,0.3-2.6,0.5c-0.9,0.2-1.9,0.4-2.9,0.5l-5.4,5.7l13,12l1.8-2V1C73.6,1,72.2,0.9,71,0.5z"
			/>
		<path d="M72.5,6.6C72.5,6.6,72.5,6.7,72.5,6.6c-0.1,0.1-0.2,0-0.3,0.1c-0.1,0.1,0.2,0.1,0.2,0.1c0.2-0.1,0,0.3,0.2,0.2
			c0.1,0,0.2-0.2,0.1-0.2c-0.2-0.1-0.1-0.1,0-0.2c0.1-0.1,0.2,0,0.2-0.2c0-0.1,0-0.2,0-0.2s0.1,0.1,0.1,0c0-0.1-0.1-0.1-0.1-0.2
			s-0.1-0.1-0.1,0s0.1,0.1,0.1,0.1c-0.1,0.1-0.2-0.1-0.2,0.1c-0.1,0.1-0.1,0.1-0.2,0.2C72.3,6.5,72.4,6.6,72.5,6.6z"/>
		<path d="M74.4,5.9c0,0.1-0.1,0.2,0,0.2C74.4,6.2,74.6,6,74.5,6C74.5,5.9,74.4,5.9,74.4,5.9c0.1-0.2,0.2-0.2,0.1-0.3
			c-0.1-0.1-0.2,0.1-0.2,0.2C74.3,5.8,74.4,5.8,74.4,5.9z"/>
		<path d="M72.3,7c-0.1,0-0.2-0.2-0.2-0.2c-0.1,0-0.1,0.1,0,0.2C72.1,7,72.2,7.1,72.3,7l-0.2,0.3c-0.1,0.2,0.2,0.2,0.3,0.1
			c0,0,0.2-0.2,0.1-0.2C72.5,7.1,72.3,7,72.3,7z"/>
		<path d="M71.5,5.1c0-0.1,0.3-0.2,0.2-0.2c-0.1,0-0.2,0-0.2,0s-0.1-0.1-0.2-0.1c-0.2-0.1-0.2,0.2-0.2,0.2
			C71.2,5.1,71.4,5.3,71.5,5.1z"/>
		<path d="M72.5,8L72.5,8c-0.2-0.1-0.3-0.1-0.4-0.2c-0.1-0.1-0.5-0.2-0.5,0c0,0.2-0.1,0.2,0,0.3c0.1,0.1,0.2,0.3,0.2,0.3
			c0.2,0.1,0.2-0.1,0.3-0.2C72.3,8.2,72.4,8.2,72.5,8L72.5,8z"/>
		<path d="M71.2,7.5C71.3,7.4,71,7.4,71,7.4s-0.2,0.2-0.2,0.2c0,0,0-0.1-0.1-0.1s-0.1,0.1-0.1,0.1c-0.2,0.1,0.1,0.4,0.2,0.2l0,0
			C71.3,7.8,71,7.6,71.2,7.5z"/>
		<path d="M74.3,7.5h-0.2c-0.1,0.1,0.1,0.2,0,0.3S73.8,8,74.1,8c0.2,0,0.1-0.2,0.2-0.2C74.2,7.7,74.4,7.5,74.3,7.5z"/>
		<path d="M73.8,8.5v0.2c-0.1,0.1-0.2,0.2-0.1,0.3c0,0,0,0.2,0.1,0.1C73.8,9,73.9,9,73.9,8.9c0.1-0.2,0.1-0.2,0-0.3
			C73.9,8.6,73.8,8.5,73.8,8.5z"/>
	</g>
	<g>
		<path class="st0" d="M71,0.5c-0.9,0.2-1.7,0.3-2.6,0.5c-2.3,0.5-4.7,0.8-7,0.8l8.5,13.7l5.1-3.2V1C73.6,1,72.2,0.9,71,0.5z"/>
		<path d="M71.3,2.3C71.4,2.2,71.3,2,71.4,2c0.1-0.1,0.2-0.2,0.1-0.2c-0.2-0.1-0.2,0.2-0.2,0.2C71.2,2,71,2,71,2.2
			C71.1,2.3,71.3,2.3,71.3,2.3z"/>
		<path d="M72,0.8c-0.1,0-0.2,0.1-0.2,0.1c-0.2,0.2-0.1,0.1-0.1,0.3c0,0.1,0.1,0.2,0.2,0.2l0.1-0.2C72,1.1,72.2,1,72,0.8
			C72.1,0.8,72.1,0.8,72,0.8z"/>
		<path d="M72.8,2.9L72.7,3l0.2,0.2c0.1,0.1,0.1,0.2,0.2,0.2c0.1,0,0.1-0.1,0.1-0.1S73,3.2,73,3.2l0.2-0.2C73.3,2.8,73,2.7,72.8,2.9
			z"/>
		<path d="M73.1,2.2c0.1,0.1,0.2,0.1,0.2,0.2c0,0.2,0.4,0.4,0.5,0.2c0-0.2,0.1-0.2,0.1-0.3c-0.1-0.1-0.1-0.3-0.2-0.4
			c-0.2-0.2-0.2,0-0.4,0.1C73.2,2,73.1,2,73.1,2.2C73,2.2,73,2.2,73.1,2.2C73,2.2,73,2.2,73.1,2.2z"/>
		<path d="M72.6,3.8c0.1-0.1,0.1-0.2,0-0.2V3.5c0.1,0.1,0.2,0.2,0.3,0.1c0.2-0.1-0.1-0.2-0.2-0.2c-0.2,0.1,0-0.3-0.2-0.2
			c-0.1,0-0.2,0.2-0.2,0.2c0.2,0.1,0,0.1-0.1,0.2c-0.1,0.1-0.2,0-0.2,0.1c0,0.1,0,0.2,0,0.2s-0.1-0.2-0.1-0.1c0,0.1,0.1,0.2,0.1,0.2
			s0.1,0.1,0.1,0c0-0.1-0.1-0.1-0.1-0.1c0.1-0.1,0.2,0.2,0.2,0C72.5,3.8,72.5,3.8,72.6,3.8z"/>
		<path d="M74.5,2.8L74.5,2.8c-0.4-0.1-0.2,0.2-0.4,0.2c-0.2,0.1,0.1,0.2,0.2,0.2L74.5,3c0,0,0,0.1,0.1,0.1S74.7,3,74.7,3
			C74.8,2.9,74.7,2.6,74.5,2.8z"/>
		<path d="M73.2,5.7c0.1,0.1,0.2-0.1,0.3-0.2c0-0.2-0.2-0.4-0.3-0.2c-0.1,0.1-0.4,0-0.3,0.2c0,0.1,0.2,0,0.2,0.1
			C73.1,5.5,73.2,5.6,73.2,5.7z"/>
		<path d="M70.7,3.5c-0.1-0.1-0.2,0.1-0.2,0.2c0,0.1,0.1,0.1,0.1,0.1c0,0.1-0.2,0.1-0.1,0.2c0.1,0.1,0.2,0,0.2-0.1
			c0-0.1-0.1-0.2-0.1-0.2S70.7,3.5,70.7,3.5z"/>
		<path d="M71.5,2.8L71.5,2.8L71.5,2.8z"/>
	</g>
</g>
<g>
	<g>
		<path class="st0" d="M20.4,66l-3.2-13.1L0,57.1L2.2,66H20.4z M6.9,62.9c0.2-0.3,0.5-0.6,0.9-0.8C7.9,62,7.9,62,8.1,62
			c0.2-0.2,0.5-0.5,0.8-0.7c0.2-0.4,0.4-0.7,0.5-1.1c0.4-0.7,1.2-0.4,1.4,0.2c0,0,0,0,0,0.1c0,0,0,0,0,0.1v0.1
			c0.2,0.2,0.5,0.4,0.5,0.7c0,0.4-0.1,0.7-0.2,1c-0.3,1.1-0.8,2.2-1.4,3.2c-0.5,0.8-1.9,0.1-1.4-0.8c0-0.1,0.1-0.1,0.1-0.2
			c0,0,0,0-0.1,0c-0.4,0.5-0.9,0.8-1.5,0.8c-0.4,0-0.7-0.2-0.8-0.6c-0.2-0.5-0.2-0.8-0.1-1.4C6,62.8,6.4,62.7,6.9,62.9z"/>
		<path d="M12.7,63.5c0.1,0.1-0.1,0.3,0.1,0.3c0.1,0,0.1-0.2,0.2-0.2c0.1,0,0.1-0.1,0.2-0.1c0.2-0.1,0-0.2-0.1-0.3
			C12.8,63.2,12.6,63.3,12.7,63.5z"/>
	</g>
	<g>
		<path class="st0" d="M22.9,66l3.2-6.1l-15.8-8.1L3,66L22.9,66L22.9,66z M6.9,62.9c0.2-0.3,0.5-0.6,0.9-0.8C7.9,62,7.9,62,8.1,62
			c0.2-0.2,0.5-0.5,0.8-0.7c0.2-0.4,0.4-0.7,0.5-1.1c0.4-0.7,1.2-0.4,1.4,0.2c0,0,0,0,0,0.1c0,0,0,0,0,0.1v0.1
			c0.2,0.2,0.5,0.4,0.5,0.7c0,0.4-0.1,0.7-0.2,1c-0.3,1.1-0.8,2.2-1.4,3.2c-0.5,0.8-1.9,0.1-1.4-0.8c0-0.1,0.1-0.1,0.1-0.2
			c0,0,0,0-0.1,0c-0.4,0.5-0.9,0.8-1.5,0.8c-0.4,0-0.7-0.2-0.8-0.6c-0.2-0.5-0.2-0.8-0.1-1.4C6,62.8,6.4,62.7,6.9,62.9z"/>
		<path d="M12.5,64.9C12.5,65,12.6,64.9,12.5,64.9c0.1,0.2-0.1,0.2,0.1,0.3c0.1,0.1,0.2-0.1,0.2-0.2C12.8,65,12.6,65,12.5,64.9
			c0.1-0.1,0.1-0.2,0.1-0.2C12.6,64.7,12.5,64.8,12.5,64.9z"/>
		<path d="M16.1,64.9c-0.1-0.2-0.4-0.2-0.4,0c0,0.1-0.3,0.2-0.2,0.3c0.1,0,0.2-0.1,0.2-0.1c0.1,0,0.1,0.1,0.2,0.1
			C16.1,65.3,16.1,65.1,16.1,64.9z"/>
		<path d="M14.3,64.1c0-0.1,0-0.1,0.1-0.2c0.1-0.1-0.1-0.2-0.2-0.2c-0.1,0-0.1-0.1,0-0.1c0.1,0,0.3,0,0.3-0.1c0.1-0.2-0.2-0.1-0.2,0
			c-0.1,0.1-0.1-0.2-0.3-0.2c-0.1,0.1-0.2,0.2,0,0.2s0.1,0.1,0.1,0.2S14,63.9,14,63.9s0.1,0.2,0.1,0.2S14,64,14,64.1
			s0.2,0.1,0.2,0.2s0.1,0.1,0.1,0s-0.1-0.1-0.1-0.1S14.3,64.2,14.3,64.1z"/>
		<path d="M14,62.4c0.1,0,0.2,0,0.3,0.1c0.1,0.1,0.5,0.1,0.5-0.1c-0.1-0.2,0-0.2-0.2-0.3c-0.1-0.1-0.2-0.2-0.3-0.2
			c-0.2-0.1-0.2,0.1-0.3,0.2C14,62.1,14,62.2,14,62.4C14,62.4,14,62.4,14,62.4C14,62.4,14,62.4,14,62.4z"/>
		<path d="M12.4,63.4l0.2-0.1c0-0.1-0.2-0.2-0.1-0.3c0.1-0.1,0.2-0.3-0.1-0.2c-0.2,0,0,0.2-0.1,0.3C12.4,63.2,12.2,63.3,12.4,63.4z"
			/>
		<path d="M14.2,63l-0.1,0.2l0.2,0.1c0.1,0,0.2,0.2,0.2,0.2s0-0.1,0-0.2l-0.2-0.1V63C14.5,62.7,14.3,62.8,14.2,63z"/>
		<path d="M12.4,62.1c0.1,0.1,0.2,0.1,0.2,0V62c0.1-0.2,0.2-0.2,0-0.3l-0.1-0.1c-0.2,0.2-0.2,0.2-0.2,0.3
			C12.2,62.1,12.2,62.1,12.4,62.1z"/>
		<path d="M15.6,62.1L15.6,62.1c-0.4,0.2-0.1,0.2-0.2,0.4c-0.1,0.2,0.2,0.1,0.2,0l0.1-0.2l0.1,0.1c0.1,0,0-0.1,0.1-0.1
			C15.9,62.1,15.6,61.9,15.6,62.1z"/>
	</g>
	<g>
		<path class="st0" d="M6,64.7c-0.2-0.4-0.2-0.8-0.1-1.1l-0.5,0.6L6,64.7L6,64.7z"/>
		<path class="st0" d="M8.3,64.5L8.3,64.5c-0.5,0.5-0.9,0.8-1.6,0.8c-0.1,0-0.2,0-0.2-0.1L7.3,66h20.2l2.6-2.8L17.1,51.3L6.6,62.8
			c0.1,0,0.2,0,0.3,0.1c0.2-0.3,0.5-0.6,0.9-0.8C7.9,62,7.9,62,8.1,62c0.2-0.2,0.5-0.5,0.8-0.7c0.2-0.4,0.4-0.7,0.5-1.1
			c0.4-0.7,1.2-0.4,1.4,0.2c0,0,0,0,0,0.1c0,0,0,0,0,0.1v0.1c0.2,0.2,0.5,0.4,0.5,0.7c0,0.4-0.1,0.7-0.2,1c-0.3,1.1-0.8,2.2-1.4,3.2
			c-0.5,0.8-1.9,0.1-1.4-0.8C8.2,64.5,8.3,64.5,8.3,64.5z"/>
		<path d="M15.9,64.4C15.9,64.4,15.9,64.5,15.9,64.4c-0.3,0.2,0,0.5,0.1,0.3l0,0c0.4,0,0.1-0.2,0.2-0.3c0.2-0.1-0.2-0.1-0.2-0.1
			s-0.2,0.2-0.2,0.2C15.9,64.5,15.9,64.4,15.9,64.4z"/>
		<path d="M16.8,64.6c0,0.2-0.1,0.2,0.1,0.3c0.1,0.1,0.2,0.3,0.2,0.3c0.2,0.1,0.2-0.1,0.3-0.2c0.2-0.1,0.2-0.2,0.2-0.3
			c0,0,0,0,0-0.1c0,0,0,0-0.1,0s-0.2-0.1-0.3-0.2C17.2,64.5,16.8,64.4,16.8,64.6z"/>
		<path d="M18.9,65.8C18.9,65.8,18.9,65.9,18.9,65.8c0.2,0,0.2,0,0.2-0.1c0.1-0.2,0.1-0.2,0-0.3c0-0.1-0.2-0.2-0.2-0.1v0.2
			C18.8,65.7,18.7,65.8,18.9,65.8z"/>
		<path d="M17.4,63.9c-0.1,0-0.2-0.2-0.2-0.2s-0.1,0.1,0,0.2C17.2,63.9,17.3,63.9,17.4,63.9l-0.2,0.3c-0.1,0.2,0.2,0.2,0.3,0.1
			c0,0,0.2-0.2,0.1-0.2C17.7,63.9,17.5,63.9,17.4,63.9z"/>
		<path d="M16.6,61.9c0-0.1,0.3-0.2,0.2-0.2c-0.1,0-0.2,0-0.2,0c-0.1,0-0.1-0.1-0.2-0.1c-0.2-0.1-0.2,0.2-0.2,0.2
			C16.3,62,16.5,62.1,16.6,61.9z"/>
		<path d="M19.2,64.5c-0.1,0.1-0.2,0.2,0,0.2c0.2,0,0.1-0.2,0.2-0.2c0.1-0.1,0.3-0.2,0.1-0.3h-0.2C19.1,64.3,19.2,64.5,19.2,64.5z"
			/>
		<path d="M19.5,62.7c0,0.1-0.1,0.2,0,0.2c0.1,0,0.2-0.2,0.2-0.2C19.6,62.7,19.6,62.7,19.5,62.7c0.1-0.2,0.2-0.2,0.1-0.3
			c-0.1-0.1-0.2,0.1-0.2,0.2C19.4,62.7,19.5,62.7,19.5,62.7z"/>
		<path d="M17.6,63.5C17.7,63.5,17.6,63.6,17.6,63.5c-0.1,0.1-0.2,0-0.3,0.1c-0.1,0.2,0.1,0.2,0.2,0.1c0.2-0.1,0.1,0.3,0.2,0.2
			c0.1,0,0.2-0.2,0.1-0.2c-0.2-0.1-0.1-0.1,0-0.2c0.1-0.1,0.2,0,0.2-0.2c0-0.1-0.1-0.2,0-0.2c0,0,0.1,0.1,0.1,0S18,63,17.9,63
			c0-0.1-0.1-0.1-0.1,0s0.1,0.1,0.1,0.1c-0.1,0.1-0.2-0.1-0.2,0.1c-0.1,0.1-0.1,0.1-0.2,0.2C17.4,63.3,17.5,63.4,17.6,63.5z"/>
	</g>
	<g>
		<polygon class="st0" points="30,66 33.1,60.2 17.9,51.9 10.1,66 		"/>
		<path d="M20.1,63.1c-0.2,0-0.2,0-0.3,0.1c-0.1,0.1-0.2,0.2-0.2,0.3c-0.1,0.2,0.1,0.2,0.2,0.3c0.1,0.1,0.2,0.2,0.3,0.2
			c0,0,0,0,0.1,0c0,0,0,0,0-0.1s0-0.2,0.1-0.3C20.2,63.5,20.2,63,20.1,63.1z"/>
		<path d="M22.3,65.3c0,0.1,0.2,0.2,0.2,0.2c0.1,0,0-0.1,0.1-0.1c0.1,0,0.2,0.2,0.2,0c0.1-0.1-0.1-0.2-0.2-0.2
			c-0.1,0-0.1,0.2-0.2,0.2C22.5,65.3,22.3,65.2,22.3,65.3z"/>
		<path d="M20.9,63.5h-0.2c-0.2-0.1-0.2,0.2,0,0.3l0.2,0.1l0.1-0.2c0-0.1,0.2-0.2,0.2-0.2C21.1,63.3,21.1,63.3,20.9,63.5
			C21,63.3,21,63.4,20.9,63.5z"/>
		<path d="M19.6,65.6c0.2,0.1,0.2,0.1,0.3-0.1c0.1-0.1,0.1-0.2,0.1-0.2h-0.2c-0.2-0.1-0.2-0.2-0.3,0l-0.1,0.1
			C19.4,65.5,19.5,65.6,19.6,65.6z"/>
		<path d="M21.1,65.5L21,65.3c-0.1,0-0.2,0.2-0.3,0.1c-0.1-0.1-0.3-0.2-0.2,0.1c0,0.2,0.2,0.1,0.3,0.1
			C20.8,65.5,20.9,65.8,21.1,65.5z"/>
		<path d="M19.9,62.4L19.9,62.4c0.2,0.4,0.2,0.1,0.4,0.2c0.2,0.1,0.1-0.2,0-0.2L20,62.4l0.1-0.1c0-0.1-0.1,0-0.1-0.1
			C19.9,62,19.6,62.3,19.9,62.4z"/>
		<path d="M21.2,63.6c0.1,0.1-0.2,0.1-0.2,0.3c0.1,0.1,0.2,0.2,0.2,0s0.1-0.1,0.2-0.1c0.1,0,0.1,0.2,0.2,0.2c0.1,0,0.2-0.1,0.2-0.1
			s-0.1,0.1,0,0.1c0.1,0,0.1-0.2,0.2-0.2c0.1,0,0.1-0.1,0-0.1c-0.1,0-0.1,0.1-0.1,0.1c-0.1-0.1,0-0.2-0.2-0.2c-0.1,0-0.1,0-0.2-0.1
			c0-0.1-0.2,0.1-0.2,0.2S21.3,63.7,21.2,63.6c0.1,0,0.1-0.2,0-0.2C21.1,63.3,21.2,63.5,21.2,63.6z"/>
		<path d="M22.7,62.3c0.1,0,0.2,0.3,0.3,0.2c0-0.1-0.1-0.2-0.1-0.2s0.1-0.1,0.1-0.2c0.1-0.2-0.2-0.2-0.3-0.2
			C22.5,62,22.5,62.3,22.7,62.3z"/>
	</g>
	<g>
		<polygon class="st0" points="36.4,66 27.8,51.9 12.7,61.1 15.7,66 		"/>
		<path d="M27,63.9c0.2,0.1,0.5,0,0.5-0.2C27.4,63.4,26.8,63.7,27,63.9z"/>
		<path d="M25.6,64.6c-0.2,0-0.4,0.4-0.2,0.5c0.2,0,0.2,0.1,0.3,0.1c0.1-0.1,0.3,0,0.4-0.2c0.2-0.2,0-0.2-0.1-0.4s-0.1-0.2-0.2-0.3
			c0,0,0,0,0-0.1c0,0,0,0,0,0.1C25.7,64.4,25.7,64.5,25.6,64.6z"/>
		<path d="M24.1,63.6C24.2,63.6,24.2,63.5,24.1,63.6c0.2,0-0.1,0.1,0.1,0.2c0.1,0.1,0.1,0.1,0.1,0.2c0.1,0.1,0.2,0.1,0.2,0h0.1
			c-0.1,0.1-0.2,0.2-0.1,0.3c0.1,0.2,0.2-0.1,0.2-0.2c0-0.2,0.3,0.1,0.2-0.2c0-0.1-0.2-0.2-0.2-0.2c-0.1,0.2-0.1,0-0.2-0.1
			c-0.1-0.1,0-0.2-0.1-0.2c-0.1,0-0.2,0-0.2,0s0.2-0.1,0.1-0.1c-0.1,0-0.2,0.1-0.2,0.1C24.1,63.4,24.1,63.5,24.1,63.6z"/>
		<path d="M24.6,64.3C24.6,64.4,24.7,64.4,24.6,64.3c0.1,0.1,0.2,0,0.2,0l0.2,0.2c0.2,0.2,0.3-0.2,0.2-0.2l-0.2-0.2l-0.2,0.2
			C24.8,64.2,24.7,64.2,24.6,64.3z"/>
		<path d="M24.2,62c0.1,0,0.2-0.1,0.2-0.1c0.1,0,0.2,0.2,0.2,0.1c0.1-0.1-0.1-0.2-0.2-0.2c-0.1,0-0.1,0.1-0.1,0.1
			c-0.1,0-0.1-0.2-0.2-0.1C24,61.7,24.1,61.9,24.2,62z"/>
		<path d="M22.6,64.2c-0.1,0,0,0.2-0.1,0.2c-0.1,0.1-0.1,0.1-0.2,0.1c-0.2,0.1,0.1,0.2,0.2,0.3c0.2,0,0.4-0.2,0.2-0.3
			C22.7,64.4,22.7,64.1,22.6,64.2z"/>
		<path d="M26.9,63.3c0.1,0.1,0.2,0.2,0.3,0.2c0,0,0.2,0,0.1-0.1c0-0.1-0.1-0.2-0.1-0.2C27,63,27.1,63,26.9,63
			c-0.1,0-0.2,0.1-0.2,0.2C26.8,63.3,26.9,63.3,26.9,63.3z"/>
		<path d="M25.8,62.4l-0.1,0.2c0.1,0.1,0.2-0.1,0.3,0.1c0.1,0.1,0.2,0.2,0.2,0.1c0.1-0.2-0.2-0.2-0.2-0.2C26,62.6,26,62.3,25.8,62.4
			z"/>
	</g>
	<g>
		<polygon class="st0" points="38,66 34.4,53.3 17.4,58 19.7,66 		"/>
		<path d="M25.7,63.6c0,0.2,0.6,0.1,0.5-0.1C26,63.3,25.7,63.3,25.7,63.6z"/>
		<path d="M28.5,63.9c0,0.2-0.2-0.1-0.3,0.1c0,0.1,0.1,0.2,0.2,0.2c0.2-0.1,0.1,0,0.2,0.1c0.1,0.1-0.1,0.2,0,0.2
			c0,0.1,0.2,0.1,0.2,0.1s-0.2,0-0.1,0.1c0.1,0.1,0.2,0,0.2,0c0.1,0,0.1-0.1,0.1-0.1s-0.1,0.1-0.2,0c0-0.1,0.2-0.2,0.1-0.2
			c-0.1-0.1-0.1-0.1-0.1-0.2C28.7,63.9,28.5,63.9,28.5,63.9C28.5,63.9,28.4,63.9,28.5,63.9c0,0,0.2-0.2,0.1-0.2
			C28.5,63.6,28.5,63.8,28.5,63.9z"/>
		<path d="M28.2,63.4c-0.2-0.2-0.3,0.1-0.2,0.2c0,0,0.1,0.2,0.1,0.2c0,0,0.2-0.1,0.2-0.1c0.1,0,0.2,0,0.2-0.1s0-0.1-0.1-0.1
			l-0.2,0.1C28.3,63.6,28.2,63.4,28.2,63.4z"/>
		<path d="M27.3,62.9c0,0.2,0.1,0.2,0.1,0.4v0.1c0,0,0,0,0.1-0.1c0.1-0.1,0.2-0.2,0.3-0.2c0.2,0,0.5-0.3,0.3-0.4
			c-0.1-0.1-0.2-0.2-0.3-0.2c-0.1,0-0.3-0.1-0.4,0C27.1,62.7,27.3,62.8,27.3,62.9z"/>
		<path d="M26.6,64.8c0.1,0.1,0,0.3,0.2,0.2l0.1-0.2c0-0.1-0.2,0-0.2-0.2s-0.1-0.3-0.2-0.2C26.4,64.8,26.6,64.8,26.6,64.8z"/>
		<path d="M28.3,62.1C28.4,62.1,28.4,62.1,28.3,62.1c-0.2,0.4,0.1,0.2,0.2,0.4c0,0.2,0.2-0.1,0.2-0.1l-0.1-0.2h0.1v-0.1
			C28.6,61.7,28.2,61.8,28.3,62.1z"/>
		<path d="M30.3,64c0.1,0.1-0.1,0.3,0.1,0.3c0.1,0,0.1-0.2,0.2-0.2s0.1-0.1,0.2-0.1c0.2-0.1,0-0.2-0.1-0.3
			C30.4,63.6,30.3,63.9,30.3,64z"/>
	</g>
	<g>
		<polygon class="st0" points="42,66 36.3,52.6 20.4,59.4 23.2,66 		"/>
		<path d="M32.7,65.8c0.2,0.1,0.2-0.2,0.2-0.2c0.1-0.1,0.3,0,0.2-0.2l-0.2-0.1c-0.1,0,0,0.2-0.2,0.2C32.6,65.6,32.5,65.7,32.7,65.8z
			"/>
		<path d="M30.6,64.6c-0.1,0.2-0.2,0.2-0.1,0.3c0,0.1,0,0.3,0.1,0.4c0.2,0.2,0.2,0,0.4,0s0.2-0.1,0.3-0.2c0,0,0,0,0.1,0
			c0,0,0,0-0.1-0.1S31,64.9,31,64.8C31,64.8,30.6,64.5,30.6,64.6z"/>
		<path d="M31.5,64.5c0,0,0.2-0.1,0.2-0.2c0,0-0.1-0.2-0.2-0.2c-0.1-0.1,0-0.2-0.1-0.2S31.3,64,31.3,64s0.1,0.1,0.1,0.2l-0.2,0.2
			C31,64.5,31.3,64.6,31.5,64.5z"/>
		<path d="M29.8,64.3C29.9,64.3,29.9,64.3,29.8,64.3c0.4,0.2,0.2-0.1,0.4-0.2c0.2-0.1-0.1-0.2-0.2-0.2l-0.2,0.1V64
			c-0.1,0-0.1,0.1-0.1,0.1C29.6,64.1,29.7,64.5,29.8,64.3z"/>
		<path d="M31.6,62.1c0.1-0.1,0.4,0,0.3-0.1c0-0.1-0.2-0.1-0.2-0.1c-0.1-0.1-0.1-0.1-0.1-0.2c-0.1-0.2-0.2,0-0.3,0.2
			C31.2,62.1,31.4,62.2,31.6,62.1z"/>
		<path d="M31.9,63.6c-0.1,0-0.1,0.2,0,0.2v0.1c0-0.1-0.2-0.2-0.2-0.2c-0.2,0.1,0.1,0.2,0.1,0.2c0.2,0-0.1,0.2,0.2,0.3
			c0.1,0,0.2-0.1,0.2-0.2c-0.2-0.2,0-0.1,0.1-0.2s0.2,0.1,0.2,0s0-0.2,0.1-0.2c0,0,0,0.2,0.1,0.1c0.1-0.1-0.1-0.2,0-0.2
			c0-0.1-0.1-0.1-0.1-0.1s0.1,0.1,0,0.1s-0.2-0.2-0.2-0.1C31.9,63.6,31.9,63.6,31.9,63.6z"/>
	</g>
	<g>
		<polygon class="st0" points="44.4,66 42.7,54.3 25.5,56.7 26.8,66 		"/>
		<path d="M35.3,64.3c0.1,0,0.2,0,0.2-0.2s0-0.1,0.2-0.2c0.1-0.1,0.2,0.1,0.2,0.1s0.1-0.2,0.1-0.2s0,0.2,0.1,0.1
			c0.1-0.1,0-0.2,0-0.2s0-0.1-0.1-0.1c-0.1,0,0,0.1,0,0.2c-0.1,0-0.1-0.2-0.2-0.1c-0.1,0.1-0.1,0-0.2,0c-0.1,0-0.2,0.2-0.1,0.2
			c0,0.1,0,0.1-0.1,0.1c0-0.1-0.2-0.2-0.2-0.2c-0.2,0.1,0,0.2,0.1,0.2C35.3,64.1,35,64.2,35.3,64.3z"/>
		<path d="M34,64.4c-0.1,0.1-0.2,0.1-0.2,0.2c0,0.1-0.1,0.3-0.1,0.4c0.1,0.2,0.2,0.1,0.3,0.1c0.2,0,0.2,0,0.4-0.1h0.1
			c0,0,0,0-0.1-0.1s-0.2-0.2-0.2-0.3C34.3,64.6,34.1,64.2,34,64.4z"/>
		<path d="M33.4,63.9C33.4,63.9,33.4,63.9,33.4,63.9c0.3,0.2,0.2-0.1,0.5-0.1c0.2,0,0-0.2-0.1-0.2l-0.2,0.1c0,0,0.1-0.1,0-0.1h-0.1
			C33.1,63.6,33.2,64,33.4,63.9z"/>
		<path d="M34.9,64v0.2l-0.2,0.2c-0.2,0.1,0,0.3,0.2,0.2l0.2-0.1L35,64.2C35,64.2,35,64,34.9,64C35,63.9,34.9,64,34.9,64z"/>
		<path d="M35.6,62.2c0.1,0,0.3,0.1,0.3,0s-0.2-0.1-0.2-0.2s0-0.1-0.1-0.2c-0.1-0.2-0.2-0.1-0.3,0.1C35.3,62.1,35.4,62.3,35.6,62.2z
			"/>
	</g>
	<g>
		<polygon class="st0" points="48.3,66 44.9,53.5 28.2,58.1 30.3,66 		"/>
		<path d="M38.3,64.5c-0.2,0.2,0.1,0.3,0.2,0.2c0,0,0.2-0.1,0.2-0.1c0,0-0.1-0.2-0.1-0.2s0-0.2-0.1-0.2s-0.1,0-0.1,0.1l0.1,0.2
			C38.5,64.4,38.3,64.5,38.3,64.5z"/>
		<path d="M36.8,64c-0.2,0-0.2,0.4,0.1,0.2c0,0,0,0,0.1,0c0.3,0.2,0.2-0.1,0.4-0.1c0.2,0-0.1-0.2-0.1-0.2l-0.2,0.1V64
			C36.9,63.9,36.9,64,36.8,64z"/>
		<path d="M37.6,64.7c-0.1,0.1-0.2,0.2-0.2,0.3c0,0.1-0.1,0.3,0,0.4c0.1,0.2,0.2,0.1,0.3,0.1c0.2,0,0.2-0.1,0.4-0.1h0.1
			c0,0,0,0-0.1-0.1S38,65.1,38,65C38,64.8,37.7,64.5,37.6,64.7z"/>
		<path d="M39.4,63.9c-0.1,0-0.2-0.2-0.2-0.1c-0.1,0.1-0.1,0.1-0.2,0.1c-0.1,0-0.2,0.2-0.1,0.2c0,0,0,0.1-0.1,0.1
			c0-0.1-0.2-0.2-0.2-0.2c-0.2,0.1,0,0.2,0.1,0.2c0.2,0-0.1,0.2,0.1,0.3c0.1,0,0.2-0.1,0.2-0.2c-0.1-0.2,0-0.1,0.1-0.2
			c0.1-0.1,0.2,0.1,0.2,0c0.1,0,0.1-0.2,0.1-0.2s0,0.2,0.1,0.1C39.6,64,39.5,63.9,39.4,63.9c0.1-0.1,0-0.2,0-0.2
			C39.3,63.9,39.4,63.9,39.4,63.9z"/>
		<path d="M38.9,62.3c0.1-0.1,0.3,0.1,0.3-0.1c0-0.1-0.2-0.1-0.2-0.2S39,62,39,61.9c-0.1-0.2-0.2,0-0.3,0.1
			C38.6,62.2,38.7,62.4,38.9,62.3z"/>
	</g>
	<g>
		<polygon class="st0" points="52.8,66 54.8,63.8 41.5,52.1 30,65.1 31,66 		"/>
		<path d="M40.9,63.3c-0.2,0-0.1,0.2-0.2,0.2s-0.3,0.2-0.1,0.3h0.2c0.1-0.1-0.1-0.2,0-0.3C41.1,63.5,41.1,63.3,40.9,63.3z"/>
		<path d="M40.5,65.4C40.5,65.4,40.5,65.4,40.5,65.4c0.1,0.2-0.1,0.2,0.1,0.3c0.1,0.1,0.2-0.1,0.2-0.2s-0.1-0.1-0.1-0.2
			s0.1-0.2,0-0.2C40.6,65.1,40.5,65.3,40.5,65.4z"/>
		<path d="M42.7,64.2c0.1,0,0.2,0.2,0.2,0.2s0.1-0.1,0-0.2C42.9,64.2,42.8,64.2,42.7,64.2l0.2-0.3c0.1-0.2-0.2-0.2-0.3-0.1
			c0,0-0.1,0.2-0.1,0.2S42.7,64.2,42.7,64.2z"/>
		<path d="M42.4,65.1c0.1-0.2,0.1-0.2,0.2-0.2c0.1-0.1,0-0.2-0.1-0.2s0-0.1,0-0.1c0.1,0,0.2,0.1,0.3,0c0.1-0.2-0.1-0.1-0.2-0.1
			c-0.2,0.1-0.1-0.3-0.2-0.2c-0.1,0-0.2,0.2-0.1,0.2c0.2,0.1,0.1,0.1,0,0.2c-0.1,0.1-0.2,0-0.2,0.2c0,0.1,0.1,0.2,0,0.2
			c0,0-0.1-0.1-0.1,0s0.1,0.1,0.2,0.2c0,0.1,0.1,0.1,0.1,0s-0.1-0.1-0.1-0.1C42.3,65.1,42.3,65.1,42.4,65.1z"/>
		<path d="M41.1,62.7v-0.2c0.1-0.1,0.2-0.2,0.1-0.3c0,0,0-0.1-0.1-0.1c-0.1,0.1-0.2,0.1-0.2,0.2c-0.1,0.2-0.1,0.2,0,0.3
			C41,62.7,41.1,62.8,41.1,62.7z"/>
		<path d="M42.4,63.3C42.5,63.3,42.5,63.3,42.4,63.3c0.2,0.1,0.3,0.1,0.4,0.2s0.5,0.2,0.5,0c0-0.2,0.1-0.2-0.1-0.3
			C43.1,63,43,62.8,43,62.8c-0.2-0.1-0.2,0.1-0.3,0.2C42.7,63,42.6,63.1,42.4,63.3C42.5,63.3,42.5,63.3,42.4,63.3z"/>
		<path d="M43.8,63.7c-0.2,0.1,0.2,0.1,0.2,0.1s0.2-0.2,0.2-0.2c0,0,0,0.1,0.1,0.1c0.1,0,0.1-0.1,0.1-0.1c0.2-0.1-0.1-0.4-0.2-0.2
			l0,0C43.7,63.5,44,63.6,43.8,63.7z"/>
	</g>
	<g>
		<polygon class="st0" points="56.8,66 49.4,52.7 34,61.2 36.6,66 		"/>
		<path d="M48.6,64.4c0-0.2-0.6,0.1-0.5,0.2C48.3,64.7,48.6,64.6,48.6,64.4z"/>
		<path d="M45.4,64.4c0.1,0.1,0.1,0.1,0.1,0.2c0.1,0.1,0.2,0.1,0.2,0h0.1c-0.1,0.1-0.2,0.2-0.2,0.3c0.1,0.2,0.2-0.1,0.2-0.2
			c0-0.2,0.3,0.1,0.3-0.2c0-0.1-0.2-0.2-0.2-0.2c-0.1,0.2-0.1,0-0.2-0.1c-0.1-0.1,0.1-0.2-0.1-0.2c-0.1,0-0.2,0-0.2-0.1
			c0,0,0.2-0.1,0.1-0.1c-0.1,0-0.2,0.1-0.2,0.1s-0.1,0.1-0.1,0.1c0.1,0,0.1-0.1,0.1,0C45.4,64.2,45.3,64.3,45.4,64.4z"/>
		<path d="M45.9,65.1c0,0,0.1-0.1,0.2-0.1l0.2,0.2c0.2,0.2,0.3-0.1,0.2-0.2l-0.2-0.2l-0.2,0.2C46,65,45.9,65,45.9,65.1
			C45.7,65.1,45.8,65.1,45.9,65.1z"/>
		<path d="M46.7,65.3c-0.2,0-0.4,0.4-0.2,0.5c0.2,0.1,0.2,0.1,0.3,0.1c0.1,0,0.3,0,0.4-0.1c0.2-0.2,0-0.2,0-0.4s-0.1-0.2-0.2-0.3
			c0,0,0,0,0-0.1c0,0,0,0-0.1,0.1C46.9,65.1,46.9,65.3,46.7,65.3z"/>
		<path d="M43.7,65.4c0.2,0,0.4-0.2,0.2-0.3c-0.1-0.1,0-0.4-0.2-0.3c-0.1,0,0,0.2-0.1,0.2c-0.1,0.1-0.1,0.1-0.2,0.1
			C43.4,65.1,43.6,65.3,43.7,65.4z"/>
		<path d="M47.9,63.9l0.2,0.1c0.1,0.1,0.1,0.2,0.3,0.2c0,0,0.2,0,0.1-0.1c0-0.1-0.1-0.2-0.1-0.2c-0.1-0.2-0.1-0.1-0.3-0.1
			C48,63.8,47.9,63.9,47.9,63.9z"/>
		<path d="M47.3,63.5c0,0.1,0.2,0.2,0.2,0.1c0.1-0.2-0.2-0.2-0.2-0.2c-0.1-0.1-0.1-0.3-0.2-0.2L47,63.3C47,63.5,47.2,63.3,47.3,63.5
			z"/>
	</g>
	<g>
		<polygon class="st0" points="60.8,66 52.2,52.5 37.4,62.1 39.8,66 		"/>
		<path d="M51.7,64.5c0.2,0.1,0.5,0,0.5-0.2C52.1,64.1,51.5,64.5,51.7,64.5z"/>
		<path d="M48.9,64.5c0.1,0.1,0.1,0.1,0.1,0.2c0.1,0.1,0.2,0.1,0.2,0h0.1c-0.1,0.1-0.2,0.2-0.1,0.3c0.1,0.2,0.2-0.1,0.2-0.2
			c-0.1-0.2,0.3,0,0.2-0.2c0-0.1-0.2-0.2-0.2-0.2c-0.1,0.2-0.1,0-0.2-0.1c-0.1-0.1,0-0.2-0.1-0.2c-0.1,0-0.2,0-0.2,0
			s0.2-0.1,0.1-0.1s-0.2,0.1-0.2,0.1c-0.1,0-0.1,0.1,0,0.1c0.1,0,0.1-0.1,0.1-0.1C48.9,64.4,48.8,64.5,48.9,64.5z"/>
		<path d="M49.6,64.9c-0.1,0.1-0.2,0.1-0.2,0.2s0.1,0.1,0.1,0.1s0.1-0.1,0.2-0.1l0.2,0.2C50,65.4,50,65.1,50,65l-0.2-0.2
			C49.7,64.8,49.6,64.9,49.6,64.9z"/>
		<path d="M50.4,65.4c-0.2,0-0.4,0.4-0.2,0.5c0.2,0,0.2,0.1,0.3,0.1c0.1-0.1,0.3-0.1,0.4-0.2c0.2-0.2,0-0.2-0.1-0.4
			s-0.1-0.2-0.2-0.3c0,0,0,0,0-0.1c0,0,0,0,0,0.1C50.5,65.1,50.4,65.3,50.4,65.4z"/>
		<path d="M49,62.6c-0.1,0-0.1-0.2-0.2-0.1c-0.1,0.1,0,0.2,0.1,0.2S49,62.7,49,62.6c0.2,0.1,0.2,0.2,0.2,0.2
			C49.3,62.7,49.1,62.5,49,62.6C49,62.5,49,62.6,49,62.6z"/>
		<path d="M47.3,65c-0.1,0,0,0.2-0.1,0.2c0,0.1-0.1,0.1-0.2,0.2c-0.1,0.1,0.1,0.2,0.2,0.3c0.2,0,0.4-0.2,0.2-0.3
			C47.4,65.2,47.4,64.9,47.3,65z"/>
		<path d="M51.6,64c0.1,0.1,0.2,0.2,0.3,0.2c0,0,0.2,0,0.1-0.1c0-0.1-0.1-0.2-0.2-0.2c-0.2-0.2-0.2-0.1-0.3-0.1
			c-0.1,0-0.2,0.1-0.2,0.2C51.5,63.9,51.6,63.9,51.6,64z"/>
		<path d="M50.5,63.2l-0.1,0.2c0.1,0.1,0.2-0.1,0.3,0.1c0.1,0.1,0.2,0.2,0.2,0.1c0.1-0.2-0.2-0.2-0.2-0.2
			C50.7,63.3,50.7,63,50.5,63.2z"/>
	</g>
	<g>
		<polygon class="st0" points="62,66 60.1,54.7 43,57.4 44.4,66 		"/>
		<path d="M51.6,64.9c-0.1,0.1-0.2,0.1-0.2,0.3c0,0.1-0.1,0.3,0,0.4c0.1,0.2,0.2,0.1,0.3,0.1c0.2,0,0.2,0,0.4-0.1h0.1
			c0,0,0,0-0.1-0.1c-0.1-0.1-0.2-0.2-0.2-0.3C52,65.1,51.8,64.8,51.6,64.9z"/>
		<path d="M51,64.5L51,64.5c0.3,0.2,0.2-0.1,0.5-0.1c0.2,0,0-0.2-0.1-0.2l-0.2,0.1v-0.1h-0.1C50.8,64.2,50.8,64.5,51,64.5z"/>
		<path d="M52.5,64.5c0,0,0,0.2,0.1,0.2l-0.2,0.2c-0.2,0.1,0,0.3,0.2,0.2l0.2-0.1l-0.1-0.2C52.7,64.7,52.7,64.5,52.5,64.5
			C52.5,64.5,52.5,64.5,52.5,64.5z"/>
		<path d="M53.2,62.7c0.1,0,0.3,0.1,0.3-0.1c0-0.1-0.2-0.1-0.2-0.2s0-0.1-0.1-0.2c-0.1-0.2-0.2-0.1-0.3,0.1S53,62.8,53.2,62.7z"/>
		<path d="M53.5,64.2c0,0,0,0.1,0,0.2c-0.1,0-0.1-0.2-0.2-0.1c-0.1,0.1-0.1,0-0.2,0c-0.1,0-0.2,0.2-0.1,0.2c0,0.1,0,0.1-0.1,0.1
			c0-0.1-0.2-0.2-0.2-0.2c-0.2,0.1,0,0.2,0.1,0.2c0.2,0-0.2,0.2,0.1,0.3c0.1,0,0.2,0,0.2-0.2c-0.1-0.2,0-0.1,0.2-0.2
			c0.1-0.1,0.2,0.1,0.2,0c0.1,0,0.1-0.2,0.1-0.2s0,0.2,0.1,0.1S53.5,64.3,53.5,64.2C53.7,64.3,53.6,64.2,53.5,64.2z"/>
	</g>
	<g>
		<polygon class="st0" points="66.7,66 60.7,53.1 44.9,60.5 47.5,66 		"/>
		<path d="M56.4,65.1c-0.1,0.1-0.2-0.1-0.2,0s0,0.2-0.1,0.2c0,0,0-0.2-0.1-0.1c-0.1,0.1,0.1,0.2,0,0.2c0,0.1,0.1,0.1,0.1,0.1
			s-0.1-0.1,0-0.1s0.2,0.2,0.2,0.1s0.1-0.1,0.2-0.1C56.5,65.4,56.5,65.1,56.4,65.1L56.4,65.1c0.1,0.1,0.3,0.2,0.3,0.2
			c0.2-0.1-0.1-0.2-0.1-0.2c-0.2,0,0.1-0.2-0.2-0.3c-0.1,0-0.2,0.1-0.2,0.2C56.5,65,56.5,65,56.4,65.1z"/>
		<path d="M56.7,64.5c0,0,0.2,0.2,0.2,0.2c0.1,0.1,0.1,0.2,0.1,0.2c0.1,0,0.1-0.1,0.1-0.1s-0.1-0.1-0.1-0.2c0,0,0.2-0.2,0.2-0.2
			c0.2-0.2-0.1-0.3-0.2-0.2L56.7,64.5z"/>
		<path d="M55.4,63.6c0.1,0,0-0.2,0.2-0.2c0.1,0,0.3-0.2,0.1-0.2c-0.2-0.1-0.2,0.2-0.2,0.2c-0.1,0-0.3,0-0.2,0.2
			C55.2,63.6,55.4,63.7,55.4,63.6z"/>
		<path d="M54.4,64.9C54.4,65,54.4,65,54.4,64.9c0.1,0.2-0.2,0.2-0.1,0.3c0.1,0.1,0.2,0,0.2,0c0.1-0.1-0.1-0.2,0-0.2
			c0-0.1,0.2-0.2,0.1-0.2C54.6,64.8,54.4,64.8,54.4,64.9z"/>
		<path d="M55.9,62.6c0,0.1,0.1,0.2,0.2,0.2l0.1-0.2c0.1-0.1,0.2-0.1,0.2-0.2c0,0,0-0.2-0.1-0.1c-0.1,0-0.2,0.1-0.2,0.1
			C55.9,62.4,55.9,62.4,55.9,62.6z"/>
		<path d="M56.7,62.6c0.1-0.2,0-0.5-0.2-0.5C56.3,62.1,56.5,62.8,56.7,62.6z"/>
		<path d="M57.1,63.7C57.1,63.8,57.1,63.8,57.1,63.7C57.1,63.8,57.1,63.8,57.1,63.7c0.1,0.2,0.2,0.2,0.2,0.3c0,0.2,0.4,0.4,0.5,0.2
			s0.2-0.2,0.1-0.3c0-0.1,0-0.3-0.1-0.4c-0.2-0.2-0.2,0-0.4,0C57.3,63.6,57.2,63.6,57.1,63.7z"/>
		<path d="M59.3,61.6c0-0.1,0.2-0.2,0.1-0.3c-0.1-0.2-0.2-0.2-0.3-0.1C58.7,61.4,59.2,61.7,59.3,61.6z"/>
		<path d="M58.2,64.8c0,0,0.2-0.1,0.2-0.2v0.1c0.1,0,0.1-0.1,0.1-0.1c0.2,0,0.1-0.4-0.1-0.2l0,0c-0.4-0.2-0.2,0.1-0.4,0.2
			C57.9,64.8,58.1,64.8,58.2,64.8z"/>
	</g>
	<g>
		<polygon class="st0" points="71.9,66 72.4,65.4 60.4,52.5 47.6,64.3 49.1,66 		"/>
		<path d="M59.7,65.2c0,0.1,0,0.2,0,0.2s-0.1-0.2-0.1,0c0,0.1,0.1,0.2,0.1,0.2c0,0.1,0.1,0.1,0.1,0s-0.1-0.1-0.1-0.1
			c0.1-0.1,0.2,0.1,0.2-0.1c0.1-0.1,0.1-0.1,0.2-0.2c0.1-0.1,0-0.2-0.1-0.2c-0.1,0,0-0.1,0-0.1c0.1,0,0.2,0.1,0.3,0.1
			c0.2-0.2-0.1-0.2-0.2-0.1c-0.2,0.1,0-0.3-0.2-0.2c-0.1,0-0.2,0.2-0.1,0.2c0.2,0.1,0.1,0.1,0,0.2C59.9,65.2,59.8,65.1,59.7,65.2z"
			/>
		<path d="M58.7,63.6c-0.2,0-0.1,0.2-0.2,0.2c-0.1,0.1-0.3,0.2-0.2,0.3h0.2c0.1-0.1-0.1-0.2,0.1-0.3C58.8,63.8,58.9,63.6,58.7,63.6z
			"/>
		<path d="M60.1,64.5l0.2,0.2c0.1,0.1,0.1,0.2,0.2,0.2c0.1,0,0.1-0.1,0-0.1c0,0-0.1-0.1-0.2-0.1l0.1-0.2
			C60.5,64.3,60.2,64.3,60.1,64.5C60.2,64.4,60.1,64.5,60.1,64.5z"/>
		<path d="M61.5,64.3c-0.2,0.1,0.1,0.1,0.2,0.1l0.2-0.2c0,0,0,0.1,0.1,0.1s0.1-0.1,0.1-0.1c0.2-0.1-0.1-0.4-0.2-0.2l0,0
			C61.4,64,61.7,64.2,61.5,64.3z"/>
		<path d="M58.8,63c0,0.1,0.1,0.2,0.2,0.1c0,0,0-0.2,0.1-0.2c0.1-0.1,0.2-0.2,0.1-0.3c0,0,0-0.2-0.1-0.1s-0.2,0.1-0.2,0.2
			C58.7,62.8,58.7,62.8,58.8,63z"/>
		<path d="M60.2,63.7L60.2,63.7L60.2,63.7c0.2,0.1,0.3,0.2,0.3,0.2C60.6,64,61,64.2,61,64c0-0.2,0.1-0.2,0-0.3
			c-0.1-0.1-0.1-0.3-0.2-0.4s-0.2,0.1-0.3,0.1C60.4,63.5,60.3,63.6,60.2,63.7z"/>
		<path d="M61.7,61c0-0.2,0.2-0.2,0-0.3c-0.1-0.1-0.2-0.1-0.4,0C61.1,61,61.7,61.1,61.7,61z"/>
	</g>
	<g>
		<polygon class="st0" points="73.8,66 68,53.4 51.9,60.7 54.4,66 		"/>
		<path d="M61.5,65.4l-0.2-0.1c-0.1-0.1-0.1-0.2-0.2-0.2c0,0-0.2,0-0.1,0.1c0,0.1,0.1,0.2,0.1,0.2c0.1,0.2,0.1,0.2,0.2,0.1
			C61.4,65.5,61.5,65.4,61.5,65.4z"/>
		<path d="M63.2,64.6c0,0,0.1,0.2,0.2,0.2c0,0,0.2-0.2,0.2-0.2c0.1-0.1,0.2-0.1,0.2-0.1c0-0.1-0.1-0.1-0.1-0.1s-0.1,0.1-0.2,0.1
			l-0.2-0.2C63.2,64.2,63,64.5,63.2,64.6z"/>
		<path d="M63.7,64.8c0,0.2-0.2-0.1-0.3,0.2c0,0.1,0.1,0.2,0.2,0.2c0.2-0.2,0.1,0,0.2,0.1c0.1,0.1-0.1,0.2,0,0.2
			c0.1,0.1,0.2,0,0.2,0.1c0,0-0.2,0-0.1,0.1c0.1,0.1,0.2-0.1,0.2,0c0.1,0,0.1-0.1,0.1-0.1s-0.1,0.1-0.1,0s0.2-0.2,0.1-0.2
			C64,65.1,64,65.1,64,65.1s-0.2-0.1-0.2,0h-0.1c0.1,0,0.2-0.2,0.2-0.2C63.8,64.5,63.7,64.7,63.7,64.8z"/>
		<path d="M61.4,64.7c-0.2-0.2-0.5,0-0.5,0.2C60.9,65.1,61.5,64.8,61.4,64.7z"/>
		<path d="M62.4,63.7c-0.2,0.2,0,0.2,0,0.4s0.1,0.2,0.2,0.3c0,0,0,0,0,0.1c0,0,0,0,0.1-0.1s0.2-0.2,0.2-0.2c0.2,0,0.4-0.4,0.2-0.5
			s-0.2-0.2-0.3-0.1C62.7,63.6,62.4,63.6,62.4,63.7z"/>
		<path d="M63.3,63C63.3,63,63.3,63,63.3,63c-0.2,0.4,0.1,0.2,0.2,0.4c0.1,0.2,0.2-0.1,0.2-0.2c0,0-0.1-0.2-0.2-0.2h0.1
			c0-0.1-0.1-0.1-0.1-0.1C63.6,62.7,63.2,62.8,63.3,63z"/>
		<path d="M60.4,62.2c-0.1,0-0.2-0.2-0.3-0.1c-0.2,0.1-0.2,0.2-0.1,0.3C60.2,62.7,60.5,62.2,60.4,62.2z"/>
		<path d="M65.6,64.6c0.1,0.1,0,0.4,0.2,0.3c0.1,0,0.1-0.2,0.1-0.2c0.1-0.1,0.1-0.1,0.2-0.1c0.2-0.1,0-0.2-0.2-0.3
			S65.4,64.5,65.6,64.6z"/>
	</g>
	<g>
		<polygon class="st0" points="77.5,66 79.4,63.6 66,52.6 55,66 		"/>
		<path d="M66.9,64.6l-0.2-0.1c-0.2-0.1-0.2,0.2-0.1,0.3c0,0,0.2,0.1,0.2,0.1C66.8,64.9,66.9,64.8,66.9,64.6c0.1,0,0.2-0.1,0.2-0.2
			s-0.1-0.1-0.2,0C67,64.5,66.9,64.6,66.9,64.6z"/>
		<path d="M67.1,64.7c0.1,0.1-0.3,0.1-0.2,0.2c0,0.1,0.2,0.2,0.2,0.1c0.1-0.2,0.1-0.1,0.2,0c0.1,0.1,0,0.2,0.2,0.2
			c0.1,0,0.2-0.1,0.2,0c0,0-0.1,0.1,0,0.1c0.1,0,0.1-0.1,0.2-0.2c0.1,0,0.1-0.1,0-0.1c-0.1,0-0.1,0.1-0.1,0.1
			c-0.1-0.1,0.1-0.2-0.1-0.2c-0.1-0.1-0.1-0.1-0.2-0.2c-0.1-0.1-0.2,0-0.2,0.1s-0.1,0-0.1,0c0-0.1,0.1-0.2,0-0.3
			C67,64.5,67.1,64.7,67.1,64.7z"/>
		<path d="M65.6,64.7c0.1,0.2,0.2,0.2,0.3,0.2c0,0,0,0,0.1,0c0,0,0,0,0-0.1s0-0.2,0.2-0.3c0.1-0.1,0.2-0.5,0-0.5
			c-0.2,0-0.2-0.1-0.3,0.1c-0.1,0.1-0.3,0.2-0.3,0.2C65.4,64.5,65.5,64.5,65.6,64.7z"/>
		<path d="M68.8,63.8c0.1,0,0.2,0.3,0.2,0.2c0-0.1,0-0.2,0-0.2s0.1-0.1,0.1-0.2c0.1-0.2-0.2-0.2-0.2-0.2
			C68.7,63.4,68.6,63.7,68.8,63.8z"/>
		<path d="M66,63.3C66.1,63.3,66.1,63.3,66,63.3c0.1,0.4,0.2,0.1,0.3,0.3c0.1,0.2,0.1-0.2,0.1-0.2l-0.2-0.2c0,0,0.1,0,0.1-0.1
			s-0.1-0.1-0.1-0.1C66.1,63,65.8,63.3,66,63.3z"/>
	</g>
	<g>
		<polygon class="st0" points="81.8,66 83,64.6 70.1,52.6 58.3,65.4 58.9,66 		"/>
		<path d="M70.4,65.1c-0.1,0-0.2-0.2-0.2-0.2s-0.1,0.1,0,0.2C70.1,65.1,70.2,65.2,70.4,65.1l-0.2,0.3c-0.1,0.2,0.2,0.2,0.3,0.1
			c0,0,0.2-0.2,0.1-0.2C70.6,65.3,70.4,65.1,70.4,65.1z"/>
		<path d="M69.5,63.2c0-0.1,0.3-0.2,0.2-0.2c-0.1,0-0.2,0-0.2,0s-0.1-0.1-0.2-0.1c-0.2-0.1-0.2,0.2-0.2,0.2
			C69.2,63.3,69.4,63.4,69.5,63.2z"/>
		<path d="M72.4,64.1c0,0.1-0.1,0.2,0,0.2c0.1,0.1,0.2-0.2,0.2-0.2C72.5,64,72.5,64,72.4,64.1c0.1-0.2,0.2-0.2,0.1-0.3
			c-0.1-0.1-0.2,0.1-0.2,0.2C72.3,63.9,72.4,64,72.4,64.1z"/>
		<path d="M70.5,64.8C70.6,64.8,70.5,64.8,70.5,64.8c-0.1,0.1-0.2,0-0.3,0.1c-0.1,0.2,0.1,0.2,0.2,0.1c0.2-0.1,0,0.3,0.2,0.2
			c0.1,0,0.2-0.2,0.1-0.2c-0.2-0.1-0.1-0.1,0-0.2c0.1-0.1,0.2,0,0.2-0.2c0-0.1,0-0.2,0-0.2s0.1,0.1,0.1,0s-0.1-0.1-0.1-0.2
			s-0.1-0.1-0.1,0s0.1,0.1,0.1,0.1c-0.1,0.1-0.2-0.1-0.2,0.1c-0.1,0.1-0.1,0.1-0.2,0.2C70.4,64.6,70.4,64.8,70.5,64.8z"/>
	</g>
	<g>
		<polygon class="st0" points="85,66 76.8,52.9 62.1,62.1 64.5,66 		"/>
		<path d="M74.1,65.6c0.1-0.1,0.1-0.1,0.2-0.1c0.1-0.1,0.1-0.2,0-0.2v-0.1c0.1,0.1,0.2,0.2,0.3,0.1c0.2-0.1-0.1-0.2-0.2-0.2
			c-0.2,0.1,0-0.3-0.2-0.2c-0.1,0-0.2,0.2-0.2,0.2c0.2,0.1,0,0.1-0.1,0.2s-0.2,0-0.2,0.1c0,0.1,0,0.2,0,0.2s-0.1-0.2-0.1-0.1
			s0.1,0.2,0.1,0.2c0,0.1,0.1,0.1,0.1,0s-0.1-0.1-0.1-0.1C73.8,65.5,73.9,65.7,74.1,65.6z"/>
		<path d="M72,65.7c0.1,0.1,0.2,0,0.2-0.1s-0.1-0.2-0.1-0.2c0-0.1,0.2-0.2,0.1-0.2c-0.1-0.1-0.2,0.1-0.2,0.2s0.1,0.1,0.1,0.1
			C72.1,65.5,71.9,65.5,72,65.7z"/>
		<path d="M74.3,64.7l0.2,0.2c0.1,0.1,0.1,0.2,0.2,0.2c0.1,0,0.1-0.1,0.1-0.1s-0.1-0.1-0.1-0.2l0.2-0.2c0.2-0.2-0.2-0.3-0.2-0.2
			C74.4,64.5,74.3,64.7,74.3,64.7z"/>
		<path d="M73.6,62.5c-0.1,0-0.2,0.1-0.2,0.1c-0.2,0.2-0.1,0.1-0.1,0.3c0,0.1,0.1,0.2,0.2,0.2l0.1-0.2
			C73.6,62.8,73.8,62.7,73.6,62.5C73.7,62.6,73.7,62.5,73.6,62.5z"/>
		<path d="M72.9,64c0.1-0.1-0.1-0.2,0.1-0.3c0.1-0.1,0.2-0.2,0.1-0.2c-0.2-0.1-0.2,0.2-0.2,0.2s-0.3,0.1-0.2,0.2
			C72.7,63.9,72.9,64,72.9,64z"/>
		<path d="M76.5,61.4c0-0.2,0.2-0.2,0.1-0.3c-0.1-0.2-0.2-0.2-0.4-0.1C75.9,61.4,76.5,61.6,76.5,61.4z"/>
		<path d="M75.9,64.8l0.2-0.2c0,0,0,0.1,0.1,0.1s0.1-0.1,0.1-0.1c0.2-0.1,0-0.4-0.1-0.2l0,0c-0.4-0.1-0.1,0.1-0.3,0.2
			C75.6,64.8,75.8,64.8,75.9,64.8z"/>
		<path d="M74.6,63.9c0.1,0.1,0.2,0.1,0.2,0.2c0,0.2,0.4,0.4,0.5,0.2c0-0.2,0.1-0.2,0.1-0.3c-0.1-0.1-0.1-0.3-0.2-0.4
			c-0.2-0.2-0.2,0-0.4,0.1C74.7,63.7,74.7,63.8,74.6,63.9C74.6,63.9,74.6,63.9,74.6,63.9C74.6,63.9,74.6,63.9,74.6,63.9z"/>
		<path d="M74.1,62.8c0.1-0.2,0-0.5-0.2-0.5S74,63,74.1,62.8z"/>
	</g>
</g>
<rect x="20.6" y="6.3" transform="matrix(0.665 -0.7469 0.7469 0.665 0.7566 18.8929)" width="1.6" height="4.7"/>
<rect x="14.6" y="58.4" class="st2" width="9.1" height="1.6"/>
<rect x="25.5" y="58.4" class="st2" width="3" height="1.6"/>
<line class="st4" x1="31.3" y1="19.5" x2="39.2" y2="26.4"/>
<line class="st4" x1="39.2" y1="19.5" x2="31.3" y2="26.4"/>
<line class="st4" x1="49.5" y1="19.5" x2="57.4" y2="26.4"/>
<line class="st4" x1="57.4" y1="19.5" x2="49.5" y2="26.4"/>
<line class="st4" x1="31.4" y1="34.1" x2="57.2" y2="34.1"/>
</svg>
