<?xml version="1.0" encoding="utf-8"?>
<!-- Generator: Adobe Illustrator 21.1.0, SVG Export Plug-In . SVG Version: 6.00 Build 0)  -->
<svg version="1.1" id="main" xmlns="http://www.w3.org/2000/svg" xmlns:xlink="http://www.w3.org/1999/xlink" x="0px" y="0px"
	 viewBox="0 0 107 19" style="enable-background:new 0 0 107 19;" xml:space="preserve">
<style type="text/css">
	.st0{fill:none;}
	.st1{fill:url(#SVGID_1_);}
	.st2{fill:url(#SVGID_2_);}
	.st3{fill:url(#SVGID_3_);}
	.st4{fill:url(#SVGID_4_);}
	.st5{fill:url(#SVGID_5_);}
	.st6{fill:url(#SVGID_6_);}
	.st7{fill:url(#SVGID_7_);}
	.st8{fill:url(#SVGID_8_);}
	.st9{fill:url(#SVGID_9_);}
	.st10{fill:url(#SVGID_10_);}
	.st11{fill:url(#SVGID_11_);}
	.st12{fill:url(#SVGID_12_);}
	.st13{fill:url(#SVGID_13_);}
	.st14{fill:url(#SVGID_14_);}
	.st15{fill:url(#SVGID_15_);}
	.st16{fill:url(#SVGID_16_);}
	.st17{fill:url(#SVGID_17_);}
	.st18{fill:url(#SVGID_18_);}
	.st19{fill:url(#SVGID_19_);}
	.st20{fill:url(#SVGID_20_);}
	.st21{fill:url(#SVGID_21_);}
	.st22{fill:url(#SVGID_22_);}
	.st23{fill:url(#SVGID_23_);}
	.st24{fill:url(#SVGID_24_);}
	.st25{fill:url(#SVGID_25_);}
	.st26{fill:url(#SVGID_26_);}
	.st27{fill:url(#SVGID_27_);}
	.st28{fill:url(#SVGID_28_);}
	.st29{fill:url(#SVGID_29_);}
	.st30{fill:url(#SVGID_30_);}
	.st31{fill:#1CA3FF;}
</style>
<g id="kryptex">
	<g fill="#000000">
		<path d="M39.6,10.3l-1.7,1.8v3.2h-2.9V2.5h2.9v6l5.7-6h3.3l-5.3,5.7l5.6,7.1h-3.4L39.6,10.3z"/>
		<path d="M52.3,5.7c0.6-0.2,1.2-0.4,2-0.4V8c-0.3,0-0.5,0-0.6,0c-0.8,0-1.5,0.2-1.9,0.7c-0.5,0.5-0.7,1.1-0.7,2.1v4.6h-2.8V5.5h2.7
			v1.3C51.3,6.3,51.7,6,52.3,5.7z"/>
		<path d="M66.5,5.5l-4.4,10.4c-0.4,1.1-1,1.9-1.7,2.4C59.8,18.8,59,19,58,19c-0.5,0-1-0.1-1.5-0.2c-0.5-0.2-0.9-0.4-1.2-0.7l1-2
			c0.2,0.2,0.5,0.3,0.8,0.5c0.3,0.1,0.6,0.2,0.8,0.2c0.4,0,0.7-0.1,0.9-0.3c0.2-0.2,0.5-0.5,0.7-0.9l0-0.1l-4.2-9.9h2.9l2.8,6.7
			l2.8-6.7H66.5z"/>
		<path d="M75.6,6c0.7,0.4,1.3,1,1.8,1.8c0.4,0.8,0.6,1.6,0.6,2.7c0,1-0.2,1.9-0.6,2.7c-0.4,0.8-1,1.3-1.8,1.8
			c-0.7,0.4-1.6,0.6-2.5,0.6c-1.3,0-2.2-0.4-3-1.2v4.6h-2.8V5.5h2.7v1.1c0.7-0.9,1.7-1.3,3.1-1.3C74,5.3,74.9,5.6,75.6,6z
			 M74.4,12.4c0.5-0.5,0.7-1.2,0.7-2c0-0.8-0.2-1.5-0.7-2c-0.5-0.5-1.1-0.7-1.8-0.7c-0.7,0-1.3,0.2-1.8,0.7c-0.5,0.5-0.7,1.2-0.7,2
			c0,0.8,0.2,1.5,0.7,2c0.5,0.5,1.1,0.7,1.8,0.7C73.4,13.1,74,12.9,74.4,12.4z"/>
		<path d="M85.9,14.8c-0.3,0.2-0.6,0.4-1,0.5c-0.4,0.1-0.8,0.2-1.3,0.2c-1.2,0-2.1-0.3-2.7-0.9c-0.6-0.6-1-1.5-1-2.6v-4h-1.5V5.7
			h1.5V3.3h2.8v2.4h2.4v2.2h-2.4v4c0,0.4,0.1,0.7,0.3,1c0.2,0.2,0.5,0.3,0.9,0.3c0.4,0,0.8-0.1,1.1-0.4L85.9,14.8z"/>
		<path d="M96.3,11.2h-7.4c0.1,0.6,0.4,1.1,0.9,1.4c0.5,0.4,1.1,0.5,1.9,0.5c0.5,0,1-0.1,1.4-0.2c0.4-0.2,0.8-0.4,1.1-0.7l1.5,1.6
			c-0.9,1.1-2.3,1.6-4,1.6c-1.1,0-2.1-0.2-2.9-0.6c-0.9-0.4-1.5-1-2-1.8c-0.5-0.8-0.7-1.6-0.7-2.6c0-1,0.2-1.8,0.7-2.6
			C87.2,7,87.8,6.4,88.6,6c0.8-0.4,1.7-0.6,2.7-0.6c1,0,1.8,0.2,2.6,0.6c0.8,0.4,1.4,1,1.8,1.8c0.4,0.8,0.7,1.7,0.7,2.7
			C96.4,10.5,96.4,10.7,96.3,11.2z M89.7,8c-0.4,0.4-0.7,0.9-0.8,1.5h4.8c-0.1-0.6-0.4-1.1-0.8-1.5c-0.4-0.4-1-0.6-1.6-0.6
			C90.6,7.5,90.1,7.7,89.7,8z"/>
		<path d="M103.8,15.3l-2.2-3l-2.2,3h-3.1l3.8-4.9l-3.6-4.9h3.2l2.1,2.9l2.1-2.9h3l-3.6,4.8l3.8,5H103.8z"/>
	</g>
</g>
<g id="diamond">
	<g>
		<path class="st0" d="M26.2,5.8c0-0.1-0.1-0.3-0.2-0.3C26.1,5.5,26.2,5.6,26.2,5.8z"/>
		<ellipse transform="matrix(0.3198 -0.9475 0.9475 0.3198 3.7178 5.5165)" class="st0" cx="5.7" cy="0.2" rx="0" ry="0"/>
		<polygon class="st0" points="15.1,2.7 15.1,2.7 10.3,10.8 		"/>
		<path class="st0" d="M26,6.1L26,6.1c0.1-0.1,0.2-0.2,0.2-0.4C26.2,5.9,26.2,6.1,26,6.1z"/>
		<linearGradient id="SVGID_1_" gradientUnits="userSpaceOnUse" x1="12.0415" y1="5.8512" x2="20.4036" y2="12.8678">
			<stop  offset="0" style="stop-color:#0EAFFF"/>
			<stop  offset="1" style="stop-color:#0163E5"/>
		</linearGradient>
		<path class="st1" d="M26,6.1c0.1-0.1,0.2-0.2,0.2-0.4c0-0.1-0.1-0.3-0.2-0.3c0,0,0,0,0,0l-1.6-0.4l-3.1-0.8l-0.1,0l-6-1.5l-4.8,8
			l-0.1,0.2l0,0l-2,3.4l2.2,2.2L26,6.1L26,6.1z"/>
		<linearGradient id="SVGID_2_" gradientUnits="userSpaceOnUse" x1="12.0415" y1="5.8512" x2="20.4036" y2="12.8678">
			<stop  offset="0" style="stop-color:#0EAFFF"/>
			<stop  offset="1" style="stop-color:#0163E5"/>
		</linearGradient>
		<path class="st2" d="M26,6.1c0.1-0.1,0.2-0.2,0.2-0.4c0-0.1-0.1-0.3-0.2-0.3c0,0,0,0,0,0l-1.6-0.4l-3.1-0.8l-0.1,0l-6-1.5l-4.8,8
			l-0.1,0.2l0,0l-2,3.4l2.2,2.2L26,6.1L26,6.1z"/>
		<linearGradient id="SVGID_3_" gradientUnits="userSpaceOnUse" x1="12.5706" y1="3.4477" x2="20.8623" y2="13.3293">
			<stop  offset="0" style="stop-color:#48BEFF"/>
			<stop  offset="0.427" style="stop-color:#1CA3FF"/>
		</linearGradient>
		<path class="st3" d="M26.4,4.3l-4.2-3.9C22,0.1,21.7,0,21.3,0h-0.9l-3.7,0l-1.6,2.7h0l0,0h0h0l6,1.5l0.1,0l0,0l3.1,0.8L26,5.5
			c0,0,0,0,0,0c0.1,0,0.2,0.2,0.2,0.3c0,0.1-0.1,0.3-0.2,0.4l0,0L10.4,16.6l1.9,1.9c0.3,0.3,0.7,0.5,1.2,0.5c0.3,0,0.7-0.1,0.9-0.3
			c0.1-0.1,0.2-0.2,0.3-0.3L26.6,6.7C26.9,6.4,27,6,27,5.6v0C27,5.1,26.8,4.6,26.4,4.3z"/>
		<linearGradient id="SVGID_4_" gradientUnits="userSpaceOnUse" x1="12.5706" y1="3.4477" x2="20.8623" y2="13.3293">
			<stop  offset="0" style="stop-color:#48BEFF"/>
			<stop  offset="0.427" style="stop-color:#1CA3FF"/>
		</linearGradient>
		<path class="st4" d="M26.4,4.3l-4.2-3.9C22,0.1,21.7,0,21.3,0h-0.9l-3.7,0l-1.6,2.7h0l0,0h0h0l6,1.5l0.1,0l0,0l3.1,0.8L26,5.5
			c0,0,0,0,0,0c0.1,0,0.2,0.2,0.2,0.3c0,0.1-0.1,0.3-0.2,0.4l0,0L10.4,16.6l1.9,1.9c0.3,0.3,0.7,0.5,1.2,0.5c0.3,0,0.7-0.1,0.9-0.3
			c0.1-0.1,0.2-0.2,0.3-0.3L26.6,6.7C26.9,6.4,27,6,27,5.6v0C27,5.1,26.8,4.6,26.4,4.3z"/>
		<linearGradient id="SVGID_5_" gradientUnits="userSpaceOnUse" x1="11.8805" y1="6.0432" x2="20.2425" y2="13.0597">
			<stop  offset="0" style="stop-color:#0EAFFF"/>
			<stop  offset="1" style="stop-color:#0163E5"/>
		</linearGradient>
		<polygon class="st5" points="26,6.1 10.4,16.6 26,6.1 		"/>
		<linearGradient id="SVGID_6_" gradientUnits="userSpaceOnUse" x1="11.9888" y1="3.9358" x2="20.2805" y2="13.8175">
			<stop  offset="0" style="stop-color:#48BEFF"/>
			<stop  offset="0.427" style="stop-color:#1CA3FF"/>
		</linearGradient>
		<polygon class="st6" points="26,6.1 10.4,16.6 26,6.1 		"/>
		<linearGradient id="SVGID_7_" gradientUnits="userSpaceOnUse" x1="11.8805" y1="6.0432" x2="20.2425" y2="13.0597">
			<stop  offset="0" style="stop-color:#0EAFFF"/>
			<stop  offset="1" style="stop-color:#0163E5"/>
		</linearGradient>
		<polygon class="st7" points="26,6.1 10.4,16.6 26,6.1 		"/>
		<linearGradient id="SVGID_8_" gradientUnits="userSpaceOnUse" x1="11.9888" y1="3.9358" x2="20.2805" y2="13.8175">
			<stop  offset="0" style="stop-color:#48BEFF"/>
			<stop  offset="0.427" style="stop-color:#1CA3FF"/>
		</linearGradient>
		<polygon class="st8" points="26,6.1 10.4,16.6 26,6.1 		"/>
		<linearGradient id="SVGID_9_" gradientUnits="userSpaceOnUse" x1="15.7122" y1="1.4766" x2="24.0743" y2="8.4932">
			<stop  offset="0" style="stop-color:#0EAFFF"/>
			<stop  offset="1" style="stop-color:#0163E5"/>
		</linearGradient>
		<polygon class="st9" points="15.1,2.7 15.1,2.7 21.1,4.3 		"/>
		<linearGradient id="SVGID_10_" gradientUnits="userSpaceOnUse" x1="15.8031" y1="0.7353" x2="24.0948" y2="10.6169">
			<stop  offset="0" style="stop-color:#48BEFF"/>
			<stop  offset="0.427" style="stop-color:#1CA3FF"/>
		</linearGradient>
		<polygon class="st10" points="15.1,2.7 15.1,2.7 21.1,4.3 		"/>
		<linearGradient id="SVGID_11_" gradientUnits="userSpaceOnUse" x1="15.7122" y1="1.4766" x2="24.0743" y2="8.4932">
			<stop  offset="0" style="stop-color:#0EAFFF"/>
			<stop  offset="1" style="stop-color:#0163E5"/>
		</linearGradient>
		<polygon class="st11" points="15.1,2.7 15.1,2.7 21.1,4.3 		"/>
		<linearGradient id="SVGID_12_" gradientUnits="userSpaceOnUse" x1="15.8031" y1="0.7353" x2="24.0948" y2="10.6169">
			<stop  offset="0" style="stop-color:#48BEFF"/>
			<stop  offset="0.427" style="stop-color:#1CA3FF"/>
		</linearGradient>
		<polygon class="st12" points="15.1,2.7 15.1,2.7 21.1,4.3 		"/>
		<linearGradient id="SVGID_13_" gradientUnits="userSpaceOnUse" x1="17.3052" y1="-0.4218" x2="25.6673" y2="6.5948">
			<stop  offset="0" style="stop-color:#0EAFFF"/>
			<stop  offset="1" style="stop-color:#0163E5"/>
		</linearGradient>
		<polygon class="st13" points="26,5.5 26,5.5 26,5.5 24.4,5.1 21.3,4.3 24.4,5.1 		"/>
		<linearGradient id="SVGID_14_" gradientUnits="userSpaceOnUse" x1="18.3529" y1="-1.4042" x2="26.6446" y2="8.4774">
			<stop  offset="0" style="stop-color:#48BEFF"/>
			<stop  offset="0.427" style="stop-color:#1CA3FF"/>
		</linearGradient>
		<polygon class="st14" points="26,5.5 26,5.5 26,5.5 24.4,5.1 21.3,4.3 24.4,5.1 		"/>
		<linearGradient id="SVGID_15_" gradientUnits="userSpaceOnUse" x1="17.3052" y1="-0.4218" x2="25.6673" y2="6.5948">
			<stop  offset="0" style="stop-color:#0EAFFF"/>
			<stop  offset="1" style="stop-color:#0163E5"/>
		</linearGradient>
		<polygon class="st15" points="26,5.5 26,5.5 26,5.5 24.4,5.1 21.3,4.3 24.4,5.1 		"/>
		<linearGradient id="SVGID_16_" gradientUnits="userSpaceOnUse" x1="18.3529" y1="-1.4042" x2="26.6446" y2="8.4774">
			<stop  offset="0" style="stop-color:#48BEFF"/>
			<stop  offset="0.427" style="stop-color:#1CA3FF"/>
		</linearGradient>
		<polygon class="st16" points="26,5.5 26,5.5 26,5.5 24.4,5.1 21.3,4.3 24.4,5.1 		"/>
		<linearGradient id="SVGID_17_" gradientUnits="userSpaceOnUse" x1="16.6034" y1="0.4146" x2="24.9654" y2="7.4312">
			<stop  offset="0" style="stop-color:#0EAFFF"/>
			<stop  offset="1" style="stop-color:#0163E5"/>
		</linearGradient>
		<polygon class="st17" points="21.3,4.3 21.1,4.3 21.3,4.3 		"/>
		<linearGradient id="SVGID_18_" gradientUnits="userSpaceOnUse" x1="17.2295" y1="-0.4616" x2="25.5212" y2="9.42">
			<stop  offset="0" style="stop-color:#48BEFF"/>
			<stop  offset="0.427" style="stop-color:#1CA3FF"/>
		</linearGradient>
		<polygon class="st18" points="21.3,4.3 21.1,4.3 21.3,4.3 		"/>
		<linearGradient id="SVGID_19_" gradientUnits="userSpaceOnUse" x1="16.6034" y1="0.4146" x2="24.9654" y2="7.4312">
			<stop  offset="0" style="stop-color:#0EAFFF"/>
			<stop  offset="1" style="stop-color:#0163E5"/>
		</linearGradient>
		<polygon class="st19" points="21.3,4.3 21.1,4.3 21.3,4.3 		"/>
		<linearGradient id="SVGID_20_" gradientUnits="userSpaceOnUse" x1="17.2295" y1="-0.4616" x2="25.5212" y2="9.42">
			<stop  offset="0" style="stop-color:#48BEFF"/>
			<stop  offset="0.427" style="stop-color:#1CA3FF"/>
		</linearGradient>
		<polygon class="st20" points="21.3,4.3 21.1,4.3 21.3,4.3 		"/>
		<linearGradient id="SVGID_21_" gradientUnits="userSpaceOnUse" x1="16.6034" y1="0.4146" x2="24.9654" y2="7.4312">
			<stop  offset="0" style="stop-color:#0EAFFF"/>
			<stop  offset="1" style="stop-color:#0163E5"/>
		</linearGradient>
		<polygon class="st21" points="21.3,4.3 21.1,4.3 21.3,4.3 		"/>
		<linearGradient id="SVGID_22_" gradientUnits="userSpaceOnUse" x1="17.2295" y1="-0.4616" x2="25.5212" y2="9.42">
			<stop  offset="0" style="stop-color:#48BEFF"/>
			<stop  offset="0.427" style="stop-color:#1CA3FF"/>
		</linearGradient>
		<polygon class="st22" points="21.3,4.3 21.1,4.3 21.3,4.3 		"/>
		<linearGradient id="SVGID_23_" gradientUnits="userSpaceOnUse" x1="16.6034" y1="0.4146" x2="24.9654" y2="7.4312">
			<stop  offset="0" style="stop-color:#0EAFFF"/>
			<stop  offset="1" style="stop-color:#0163E5"/>
		</linearGradient>
		<polygon class="st23" points="21.3,4.3 21.1,4.3 21.3,4.3 		"/>
		<linearGradient id="SVGID_24_" gradientUnits="userSpaceOnUse" x1="17.2295" y1="-0.4616" x2="25.5212" y2="9.42">
			<stop  offset="0" style="stop-color:#48BEFF"/>
			<stop  offset="0.427" style="stop-color:#1CA3FF"/>
		</linearGradient>
		<polygon class="st24" points="21.3,4.3 21.1,4.3 21.3,4.3 		"/>
		<linearGradient id="SVGID_25_" gradientUnits="userSpaceOnUse" x1="0" y1="6.3174" x2="15.1035" y2="6.3174">
			<stop  offset="0" style="stop-color:#2BAAFB"/>
			<stop  offset="1" style="stop-color:#0163E5"/>
		</linearGradient>
		<path class="st25" d="M15.1,2.7L15.1,2.7L15.1,2.7L15.1,2.7L5.7,0.2l0,0l0,0l0,0L5.3,0.1h0l0,0l0,0l0,0C5.1,0.1,5,0.2,4.8,0.3
			L0.6,4.3C0.2,4.6,0,5.1,0,5.6v0C0,6,0.2,6.4,0.4,6.7l5.9,5.9l3.9-1.6l0.1-0.2L15.1,2.7z"/>
		<linearGradient id="SVGID_26_" gradientUnits="userSpaceOnUse" x1="0" y1="6.3174" x2="15.1035" y2="6.3174">
			<stop  offset="0" style="stop-color:#2BAAFB"/>
			<stop  offset="1" style="stop-color:#0163E5"/>
		</linearGradient>
		<path class="st26" d="M15.1,2.7L15.1,2.7L15.1,2.7L15.1,2.7L5.7,0.2l0,0l0,0l0,0L5.3,0.1h0l0,0l0,0l0,0C5.1,0.1,5,0.2,4.8,0.3
			L0.6,4.3C0.2,4.6,0,5.1,0,5.6v0C0,6,0.2,6.4,0.4,6.7l5.9,5.9l3.9-1.6l0.1-0.2L15.1,2.7z"/>
		<linearGradient id="SVGID_27_" gradientUnits="userSpaceOnUse" x1="15.0709" y1="2.6993" x2="15.1353" y2="2.7761">
			<stop  offset="0" style="stop-color:#48BEFF"/>
			<stop  offset="0.427" style="stop-color:#1CA3FF"/>
		</linearGradient>
		<polygon class="st27" points="15.1,2.7 15.1,2.7 15.1,2.7 15.1,2.7 15.1,2.7 15.1,2.7 		"/>
		<linearGradient id="SVGID_28_" gradientUnits="userSpaceOnUse" x1="15.0411" y1="2.7382" x2="15.1659" y2="2.7382">
			<stop  offset="0" style="stop-color:#2BAAFB"/>
			<stop  offset="1" style="stop-color:#0163E5"/>
		</linearGradient>
		<polygon class="st28" points="15.1,2.7 15.1,2.7 15.1,2.7 15.1,2.7 15.1,2.7 15.1,2.7 		"/>
		<linearGradient id="SVGID_29_" gradientUnits="userSpaceOnUse" x1="15.0709" y1="2.6993" x2="15.1353" y2="2.7761">
			<stop  offset="0" style="stop-color:#48BEFF"/>
			<stop  offset="0.427" style="stop-color:#1CA3FF"/>
		</linearGradient>
		<polygon class="st29" points="15.1,2.7 15.1,2.7 15.1,2.7 15.1,2.7 15.1,2.7 15.1,2.7 		"/>
		<linearGradient id="SVGID_30_" gradientUnits="userSpaceOnUse" x1="15.0411" y1="2.7382" x2="15.1659" y2="2.7382">
			<stop  offset="0" style="stop-color:#2BAAFB"/>
			<stop  offset="1" style="stop-color:#0163E5"/>
		</linearGradient>
		<polygon class="st30" points="15.1,2.7 15.1,2.7 15.1,2.7 15.1,2.7 15.1,2.7 15.1,2.7 		"/>
		<path class="st31" d="M5.3,0.1L5.3,0.1l0.4,0.1l0,0l0,0l0,0l9.4,2.6l0,0l0,0l0,0L16.7,0H6.6h0h0h0H5.7h0H5.7h0c0,0-0.1,0-0.1,0
			l0,0c0,0,0,0,0,0l0,0C5.4,0,5.4,0,5.3,0.1L5.3,0.1L5.3,0.1L5.3,0.1z"/>
	</g>
</g>
</svg>
